<?xml version="1.0" encoding="UTF-8"?>
<svg version="1.1" xmlns="http://www.w3.org/2000/svg" width="860" height="430">
<path d="M0 0 C283.8 0 567.6 0 860 0 C860 141.9 860 283.8 860 430 C576.2 430 292.4 430 0 430 C0 288.1 0 146.2 0 0 Z " fill="#C8102E" transform="translate(0,0)"/>
<path d="M0 0 C127.71 0 255.42 0 387 0 C387 56.76 387 113.52 387 172 C259.29 172 131.58 172 0 172 C0 115.24 0 58.48 0 0 Z " fill="#FCFCFC" transform="translate(473,258)"/>
<path d="M0 0 C127.71 0 255.42 0 387 0 C387 56.76 387 113.52 387 172 C259.29 172 131.58 172 0 172 C0 115.24 0 58.48 0 0 Z " fill="#FCFBFC" transform="translate(0,258)"/>
<path d="M0 0 C127.71 0 255.42 0 387 0 C387 56.76 387 113.52 387 172 C259.29 172 131.58 172 0 172 C0 115.24 0 58.48 0 0 Z " fill="#FCFBFC" transform="translate(473,0)"/>
<path d="M0 0 C127.71 0 255.42 0 387 0 C387 56.76 387 113.52 387 172 C259.29 172 131.58 172 0 172 C0 115.24 0 58.48 0 0 Z " fill="#FCFBFC" transform="translate(0,0)"/>
<path d="M0 0 C0 43.23 0 86.46 0 131 C-86.13 131 -172.26 131 -261 131 C-258.07153347 128.8036501 -255.71307055 127.23164231 -252.51255512 125.63183308 C-251.16390998 124.95406141 -251.16390998 124.95406141 -249.78801948 124.26259738 C-248.8042702 123.77329452 -247.82052092 123.28399167 -246.80696106 122.77986145 C-245.23480875 121.99197449 -245.23480875 121.99197449 -243.63089579 121.18817061 C-240.72450086 119.73264265 -237.81633883 118.28071794 -234.90739119 116.83030045 C-231.76963821 115.26471397 -228.63419413 113.69451589 -225.49845886 112.12489319 C-219.35746459 109.05187558 -213.21434299 105.98313418 -207.07049111 102.91583446 C-199.92081448 99.34618655 -192.77322926 95.7723605 -185.62572511 92.19836517 C-172.87818526 85.82434495 -160.12871691 79.45419177 -147.37817383 73.08618164 C-134.99423368 66.90126059 -122.61170223 60.713531 -110.23071289 54.52270508 C-109.46765832 54.14115781 -108.70460375 53.75961055 -107.91842631 53.36650125 C-107.15671343 52.98562463 -106.39500056 52.60474802 -105.61020547 52.21232969 C-91.5270308 45.17039786 -77.44254328 38.13109552 -63.35743943 31.09302327 C-58.36919915 28.60041396 -53.38135177 26.10701953 -48.39362526 23.61338234 C-42.32189572 20.57785785 -36.24941623 17.54383962 -30.17598204 14.51172713 C-27.07464721 12.96337543 -23.97363651 11.41438364 -20.87347794 9.86367798 C-17.52060188 8.18699658 -14.16651662 6.51276023 -10.81208801 4.83918762 C-9.82164657 4.3431926 -8.83120513 3.84719758 -7.81075031 3.3361724 C-6.91947679 2.89214786 -6.02820326 2.44812333 -5.10992146 1.9906435 C-3.94724262 1.4098324 -3.94724262 1.4098324 -2.76107532 0.81728774 C-1 0 -1 0 0 0 Z " fill="#022168" transform="translate(358,299)"/>
<path d="M0 0 C86.13 0 172.26 0 261 0 C261 43.23 261 86.46 261 131 C239.17517454 120.66192478 239.17517454 120.66192478 230.52790833 116.32408142 C229.52345458 115.82228176 228.51900084 115.3204821 227.4841091 114.80347639 C224.19784978 113.16115477 220.9130058 111.51602398 217.62817383 109.87084961 C215.24125103 108.67724684 212.85424886 107.48380401 210.46714783 106.29055786 C205.36868313 103.74158524 200.27094154 101.19117163 195.17371559 98.63972282 C187.80435937 94.9509475 180.43387401 91.2644329 173.0631282 87.57843513 C161.09899892 81.59528141 149.13576038 75.61034899 137.1730957 69.62426758 C125.56582243 63.8160278 113.95812121 58.00864468 102.34985352 52.20239258 C101.63199233 51.84333062 100.91413115 51.48426867 100.1745166 51.11432605 C96.57252033 49.31267531 92.97051574 47.51104118 89.36850703 45.70941532 C59.5777158 30.80885265 29.78837596 15.90539057 0 1 C0 0.67 0 0.34 0 0 Z " fill="#022167" transform="translate(97,0)"/>
<path d="M0 0 C11.09832537 5.25710149 22.14536631 10.511097 33.10107422 16.04248047 C36.14661889 17.57817425 39.19855606 19.10107511 42.25 20.625 C43.56513792 21.28248458 44.88023977 21.9400413 46.1953125 22.59765625 C47.29794434 23.14897217 47.29794434 23.14897217 48.42285156 23.71142578 C101.94856771 50.47428385 155.47428385 77.23714193 209 104 C209.66008057 104.33 210.32016113 104.66 211.00024414 105 C212.33289393 105.66640624 213.66541362 106.33307273 214.99780273 107 C218.3405732 108.67281464 221.68551729 110.34097688 225.03515625 112 C232.36340487 115.63618775 239.61632545 119.37698092 246.81494141 123.26367188 C251.45639628 125.75280387 256.14775048 127.95694757 261 130 C261 130.33 261 130.66 261 131 C174.87 131 88.74 131 0 131 C0 87.77 0 44.54 0 0 Z " fill="#012167" transform="translate(502,299)"/>
<path d="M0 0 C86.13 0 172.26 0 261 0 C257.36840422 2.72369684 253.79614684 4.71519869 249.75 6.6875 C248.30723866 7.3996322 246.86453183 8.11187485 245.421875 8.82421875 C244.31875977 9.3663501 244.31875977 9.3663501 243.19335938 9.91943359 C239.78769782 11.59724504 236.39418593 13.29912825 233 15 C231.66673187 15.66679706 230.33339834 16.33346336 229 17 C228.34 17.33 227.68 17.66 227 18 C200 31.5 200 31.5 173 45 C172.01012085 45.495 172.01012085 45.495 171.00024414 46 C169.66622716 46.66692708 168.33207987 47.33359357 166.99780273 48 C163.67381415 49.66057534 160.35217756 51.32554606 157.03515625 53 C150.29710557 56.39514825 143.53318859 59.7020273 136.6875 62.875 C129.68060176 66.13056738 122.84360129 69.65661347 116.02294922 73.28417969 C109.05695947 76.98704084 102.02119903 80.53210302 94.95166016 84.03222656 C91.63003119 85.67932904 88.31543277 87.34047102 85 89 C83.65107416 89.67454415 82.30211594 90.34902356 80.953125 91.0234375 C79.96022461 91.5198877 79.96022461 91.5198877 78.94726562 92.02636719 C76.18457031 93.40771484 76.18457031 93.40771484 73.421875 94.7890625 C72.82383057 95.088125 72.22578613 95.3871875 71.60961914 95.6953125 C70.35372675 96.32317626 69.09770127 96.95077386 67.84155273 97.578125 C63.34552959 99.82426122 58.8536233 102.0784633 54.36328125 104.3359375 C33.03524562 115.04922393 33.03524562 115.04922393 23.75 119.375 C15.76605903 123.109424 7.88361522 127.05819239 0 131 C0 87.77 0 44.54 0 0 Z " fill="#012167" transform="translate(502,0)"/>
<path d="M0 0 C1.42059066 0.00934682 2.84119764 0.01645408 4.2618103 0.0214386 C7.96769151 0.04036227 11.67256407 0.08933108 15.37805176 0.1449585 C19.17246869 0.1964715 22.96705156 0.21902036 26.76171875 0.24414062 C34.18274726 0.29746886 41.60295008 0.38259747 49.0234375 0.48828125 C46.11533972 2.79673661 43.18790857 4.52774724 39.86621094 6.18041992 C38.83703552 6.6949321 37.80786011 7.20944427 36.74749756 7.73954773 C35.08197845 8.56456535 35.08197845 8.56456535 33.3828125 9.40625 C32.22783264 9.98232498 31.07285278 10.55839996 29.88287354 11.15193176 C26.80668633 12.68621275 23.72813581 14.2156912 20.64904785 15.74414062 C17.57453461 17.27129227 14.50217827 18.80276892 11.4296875 20.33398438 C6.8654707 22.60815685 2.29995762 24.87970423 -2.26660156 27.14916992 C-6.9434514 29.47479581 -11.61715994 31.80661588 -16.28851318 34.14326477 C-17.71180996 34.85506056 -19.13510789 35.56685406 -20.55840683 36.27864552 C-21.28851959 36.64380162 -22.01863235 37.00895772 -22.77086973 37.38517916 C-26.3386516 39.1694837 -29.90663899 40.95337715 -33.47460938 42.73730469 C-34.96932071 43.48465774 -36.46403097 44.23201293 -37.95874023 44.97937012 C-187.99438477 119.99719238 -187.99438477 119.99719238 -190.26542103 121.13257319 C-191.72083779 121.86037188 -193.17611168 122.58845636 -194.63123024 123.31685108 C-198.24348382 125.12461558 -201.85844238 126.92661989 -205.4781971 128.71932316 C-206.5708206 129.26182815 -206.5708206 129.26182815 -207.68551731 129.81529284 C-209.05914438 130.49714102 -210.43364807 131.17722734 -211.80920887 131.85516596 C-215.09446685 133.48812838 -218.25096321 135.19506887 -221.31201172 137.21850586 C-234.9333485 145.96785605 -250.3413701 144.5364929 -265.88049316 144.10626221 C-269.62167963 144.01280965 -273.3634421 143.97280093 -277.10546875 143.92773438 C-284.39736832 143.83231674 -291.68647793 143.67952707 -298.9765625 143.48828125 C-295.66191071 140.9328117 -292.36887246 139.08451262 -288.6015625 137.23828125 C-287.17688084 136.53556665 -285.75242201 135.83240017 -284.328125 135.12890625 C-283.50473633 134.72349609 -282.68134766 134.31808594 -281.83300781 133.90039062 C-276.53435487 131.28095399 -271.25139276 128.62998628 -265.96591187 125.98410034 C-262.6716301 124.33506436 -259.3769103 122.68690469 -256.08203125 121.0390625 C-255.45301407 120.72445572 -254.82399689 120.40984894 -254.17591858 120.08570862 C-250.8373023 118.41649746 -247.49666555 116.7514989 -244.15234375 115.09375 C-238.15607564 112.11860274 -232.20047815 109.08823662 -226.29199219 105.94165039 C-217.68592935 101.36029148 -208.98587074 97.05209731 -200.17333984 92.88232422 C-192.24478515 89.12102313 -184.38261143 85.23520216 -176.5390625 81.30078125 C-175.93816803 80.99940247 -175.33727356 80.69802368 -174.71817017 80.38751221 C-171.8252555 78.93598663 -168.93316434 77.48283108 -166.04150391 76.02880859 C-162.10624461 74.05083455 -158.16686591 72.08118135 -154.2265625 70.11328125 C-152.99736374 69.49876211 -151.76819615 68.88418062 -150.5390625 68.26953125 C-143.1640625 64.58203125 -143.1640625 64.58203125 -141.20629883 63.60327148 C-139.88829744 62.94418952 -138.57042594 62.28484777 -137.25268555 61.62524414 C-133.54523507 59.76994623 -129.83486298 57.92074558 -126.12109375 56.078125 C-118.24741826 52.16528075 -110.40773497 48.21565651 -102.6640625 44.05078125 C-95.35563122 40.13210446 -87.90923578 36.5497604 -80.41455078 33.00292969 C-72.06883495 29.04100144 -63.79676773 24.94200472 -55.5390625 20.80078125 C-54.89317169 20.4769043 -54.24728088 20.15302734 -53.58181763 19.81933594 C-50.4752385 18.26098074 -47.36940981 16.70113923 -44.26416016 15.14013672 C-40.08797201 13.04180841 -35.90778863 10.95154678 -31.7265625 8.86328125 C-30.62828125 8.31414063 -29.53 7.765 -28.3984375 7.19921875 C-26.70460938 6.35230469 -26.70460938 6.35230469 -24.9765625 5.48828125 C-23.98896439 4.87266579 -23.98896439 4.87266579 -22.98141479 4.24461365 C-15.44825585 -0.15363166 -8.5326273 -0.16666672 0 0 Z " fill="#C61231" transform="translate(809.9765625,-0.48828125)"/>
<path d="M0 0 C-2.78262908 2.12699188 -5.46726715 3.85592107 -8.60644531 5.41674805 C-9.51549622 5.87119797 -10.42454712 6.32564789 -11.36114502 6.79386902 C-12.34024841 7.27825943 -13.31935181 7.76264984 -14.328125 8.26171875 C-15.34992859 8.7712056 -16.37173218 9.28069244 -17.42449951 9.80561829 C-20.69780523 11.43668227 -23.97383476 13.06218855 -27.25 14.6875 C-29.4090387 15.76199908 -31.5678948 16.83686515 -33.7265625 17.91210938 C-37.7635152 19.92245643 -41.80162186 21.93044879 -45.84082031 23.9362793 C-52.39124531 27.19183226 -58.93324763 30.46415322 -65.47505951 33.73696327 C-70.50903839 36.25508211 -75.54364851 38.77193872 -80.578125 41.2890625 C-82.95149972 42.47574405 -85.32487231 43.66242987 -87.69824219 44.84912109 C-88.94087713 45.47043893 -90.18351223 46.09175647 -91.42614746 46.71307373 C-92.05339218 47.02669609 -92.6806369 47.34031845 -93.32688904 47.66344452 C-117.07587687 59.53793844 -140.82486471 71.41243235 -164.57385254 83.28692627 C-165.19325494 83.59663313 -165.81265734 83.90634 -166.45082951 84.22543192 C-167.67501554 84.83751358 -168.89921963 85.44955914 -170.12344265 86.06156683 C-173.02604809 87.51267511 -175.92828591 88.96451026 -178.82997131 90.41745758 C-183.43116938 92.72077254 -188.0329756 95.02178554 -192.65307617 97.2869873 C-199.99087093 100.89247453 -207.14822863 104.71679758 -214.24209595 108.78215027 C-259.31515219 134.61091848 -295.5528613 150.4639177 -348 143 C-344.30422191 139.93285445 -340.18170708 137.95722085 -335.90527344 135.83911133 C-335.09158295 135.43212006 -334.27789246 135.02512878 -333.43954468 134.60580444 C-330.7480337 133.26074547 -328.05372979 131.92138329 -325.359375 130.58203125 C-323.47510559 129.64176434 -321.5910141 128.70114079 -319.70709229 127.76017761 C-314.73702777 125.27896429 -309.76458514 122.80255394 -304.79162598 120.32714844 C-299.78675728 117.8348576 -294.78408021 115.33817638 -289.78125 112.84179688 C-281.65700927 108.78843082 -273.5315905 104.73743989 -265.40396118 100.69087219 C-263.85940944 99.92161339 -262.31525046 99.15156564 -260.77141571 98.38086891 C-258.66288767 97.33028642 -256.55231075 96.28381491 -254.44080353 95.23923302 C-245.2730841 90.69389359 -236.20900743 85.97650668 -227.18121719 81.15994453 C-209.65091308 71.81230863 -192.03425972 62.63554017 -174.37692261 53.5304718 C-164.21273422 48.28477475 -154.07778849 42.99369951 -143.99902344 37.58544922 C-132.28149883 31.30619846 -120.50550364 25.15322508 -108.625 19.1875 C-107.18614944 18.4649855 -107.18614944 18.4649855 -105.7182312 17.72787476 C-70.2244529 0.02601472 -39.35016814 -6.4347772 0 0 Z " fill="#C71231" transform="translate(349,287)"/>
<path d="M0 0 C62.37 0 124.74 0 189 0 C189 31.35 189 62.7 189 95 C167.02911114 84.59273686 167.02911114 84.59273686 156.84759521 79.48600769 C156.09970985 79.11120459 155.35182449 78.73640148 154.58127594 78.35024071 C153.80784599 77.96258852 153.03441605 77.57493633 152.23754883 77.17553711 C150.55997688 76.33660956 148.88231599 75.49785986 147.20457458 74.65927124 C142.71734287 72.41579689 138.23133524 70.16988541 133.74556947 67.9234817 C129.0324989 65.56378778 124.31827005 63.20641005 119.60417175 60.84877014 C110.70750705 56.39889334 101.81186256 51.9469811 92.91659707 47.49430805 C82.77688475 42.4188331 72.63601544 37.34567188 62.49505579 32.2726897 C41.66209632 21.85100545 20.8305671 11.42646513 0 1 C0 0.67 0 0.34 0 0 Z " fill="#022167" transform="translate(671,287)"/>
<path d="M0 0 C0 31.35 0 62.7 0 95 C-62.37 95 -124.74 95 -189 95 C-185.30821134 92.2311585 -181.64303648 90.18290317 -177.5403595 88.14656067 C-176.78627373 87.76831058 -176.03218796 87.39006049 -175.25525111 87.00034827 C-172.72910323 85.73445744 -170.20013755 84.47430343 -167.67114258 83.21411133 C-165.85922123 82.30761419 -164.04747311 81.40077071 -162.23588562 80.49360657 C-157.3165525 78.03151575 -152.39473316 75.57443364 -147.47240281 73.11834168 C-142.32792023 70.55048851 -137.18554396 67.97842384 -132.04289246 65.40690613 C-123.40992069 61.09088853 -114.77540493 56.77797296 -106.13989258 52.46704102 C-96.14171067 47.47582172 -86.14563274 42.48040984 -76.15074426 37.48259908 C-66.54834074 32.6810927 -56.94479842 27.88186895 -47.34061241 23.08392906 C-43.24659939 21.03869233 -39.15293006 18.99276999 -35.05951881 16.94632912 C-30.2465544 14.54034731 -25.43258036 12.13639778 -20.61779976 9.73405266 C-18.84566783 8.84945317 -17.07387872 7.96416653 -15.30244827 7.07816315 C-12.89544774 5.87441941 -10.48724171 4.67312378 -8.07868958 3.4724884 C-7.01324983 2.93860708 -7.01324983 2.93860708 -5.92628604 2.39394027 C-1.11417891 0 -1.11417891 0 0 0 Z " fill="#022268" transform="translate(860,48)"/>
<path d="M0 0 C4.66098324 0.93219665 8.16699825 2.4107293 12.3125 4.5625 C13.74601219 5.29312879 15.17960829 6.02359299 16.61328125 6.75390625 C17.34240723 7.12789551 18.0715332 7.50188477 18.82275391 7.88720703 C22.20341579 9.61506719 25.60196096 11.30664878 29 13 C30.33343111 13.66647107 31.6667642 14.3331383 33 15 C33.66 15.33 34.32 15.66 35 16 C70 33.5 70 33.5 105 51 C105.66053375 51.3302417 106.3210675 51.6604834 107.00161743 52.00073242 C108.32964079 52.6647948 109.65758322 53.32901903 110.98544312 53.9934082 C114.39936017 55.70128353 117.81480739 57.40598433 121.23291016 59.10546875 C128.33578476 62.64027615 135.39198311 66.23251939 142.375 70 C148.54344127 73.29460188 154.76418633 76.29923172 161.1875 79.0625 C170.87584298 83.23184298 180.21551003 88.14367336 189 94 C126.63 94 64.26 94 0 94 C0 62.98 0 31.96 0 0 Z " fill="#022167" transform="translate(0,49)"/>
<path d="M0 0 C62.37 0 124.74 0 189 0 C185.1992266 2.85058005 181.47212636 4.74857705 177.1875 6.6875 C171.61129304 9.25720797 166.13639207 11.9282347 160.75 14.875 C154.84727926 18.09415942 148.83559487 21.01783008 142.75 23.875 C134.99626297 27.51936161 127.38158396 31.35896416 119.82006836 35.38574219 C112.92306869 39.05739088 105.95347885 42.56563123 98.95166016 46.03222656 C96.30036647 47.34692861 93.65373608 48.67086604 91.00732422 49.99536133 C89.00149569 50.99925142 86.99489108 52.00157897 84.98828125 53.00390625 C82.35790132 54.31877536 79.7305534 55.6394366 77.10546875 56.96484375 C70.01206441 60.53948668 62.88240089 64.0089559 55.6875 67.375 C48.32616045 70.82604864 41.1147565 74.50577508 33.93896484 78.32617188 C26.96786787 82.03596239 19.92966168 85.59891932 12.84228516 89.08105469 C11.51190109 89.74465999 10.18955895 90.42447245 8.87255859 91.11425781 C8.16566895 91.48131836 7.4587793 91.84837891 6.73046875 92.2265625 C6.08875732 92.56510254 5.4470459 92.90364258 4.78588867 93.25244141 C3 94 3 94 0 94 C0 62.98 0 31.96 0 0 Z " fill="#012167" transform="translate(0,287)"/>
<path d="M0 0 C43.10325446 -8.63306747 76.3777324 2.99279946 114.8203125 22.28515625 C115.9354872 22.84480308 117.05066191 23.40444991 118.19962978 23.98105574 C132.08009782 30.97423415 145.84130182 38.18691403 159.56683421 45.47856557 C167.83146516 49.86453251 176.12616158 54.18716343 184.44677734 58.46557617 C185.33266406 58.92113026 185.33266406 58.92113026 186.23644747 59.38588745 C189.20370143 60.91132237 192.17154695 62.43559988 195.13961434 63.95945179 C215.45154298 74.39090856 235.70762454 84.92394893 255.89602661 95.59254456 C257.57274972 96.47789627 259.24958481 97.36303596 260.92654419 98.24794006 C261.71145241 98.66221634 262.49636063 99.07649262 263.30505395 99.50332272 C269.33272288 102.67390121 275.4106414 105.73143683 281.52482414 108.73143673 C284 110 284 110 285 111 C285.0883967 113.3756852 285.11530305 115.72208674 285.09765625 118.09765625 C285.09553383 119.16094398 285.09553383 119.16094398 285.09336853 120.24571228 C285.08775443 122.51801712 285.07519963 124.79022475 285.0625 127.0625 C285.05748681 128.59960796 285.05292359 130.13671745 285.04882812 131.67382812 C285.03862978 135.44925363 285.01930944 139.22461082 285 143 C270.31308996 136.1460188 255.79716028 128.96893053 241.30631793 121.71119177 C238.05650718 120.08409233 234.80551186 118.45936262 231.55467224 116.83432007 C225.94546533 114.02997662 220.33698265 111.22418943 214.72901344 108.41737175 C206.62119749 104.35937051 198.51225532 100.30362395 190.40305158 96.24839682 C177.24097939 89.66627104 164.07979826 83.08236565 150.91918945 76.49731445 C138.14785304 70.1070447 125.3760896 63.71762968 112.60375977 57.3293457 C111.81421069 56.9344398 111.02466161 56.5395339 110.2111868 56.13266116 C106.24957282 54.15120156 102.28795053 52.16975858 98.32632411 50.18832386 C65.5495947 33.79479021 32.7743164 17.3983572 0 1 C0 0.67 0 0.34 0 0 Z " fill="#C61230" transform="translate(575,287)"/>
<path d="M0 0 C11.9851658 5.62387317 23.89974899 11.36895399 35.73486328 17.30224609 C38.13034636 18.50267919 40.52795398 19.6987887 42.92578125 20.89453125 C50.41702585 24.63910085 57.86451883 28.44242758 65.2421875 32.40625 C72.72999212 36.41821431 80.36228038 40.08768561 88.0375824 43.72541809 C98.91682057 48.88845869 109.67659401 54.28326947 120.4375 59.6875 C122.41331424 60.67792833 124.3892256 61.66816296 126.36523438 62.65820312 C130.01939686 64.48928961 133.67295509 66.32157045 137.32592773 68.1550293 C143.67345474 71.33925907 150.02570104 74.51403555 156.37777901 77.68917274 C161.10072376 80.05013497 165.82340273 82.41162878 170.54612148 84.77304304 C173.705217 86.35262125 176.86432824 87.93216802 180.0234375 89.51171875 C181.35774747 90.17887355 182.69205736 90.8460285 184.02636719 91.51318359 C184.69923767 91.84961884 185.37210815 92.18605408 186.06536865 92.53268433 C219.0435791 109.02178955 252.02178955 125.51089478 285 142 C285 142.33 285 142.66 285 143 C276.98395214 143.2343392 268.96939337 143.41067629 260.95073986 143.51812172 C257.2249409 143.56975923 253.50152619 143.63946546 249.77709961 143.75439453 C232.70383111 144.26649914 218.93625862 144.14354661 204.24191284 134.40393066 C200.29392912 131.93162429 196.0618522 130.07653526 191.8359375 128.1328125 C175.76386864 120.5529009 159.90774422 112.52932467 144.01904297 104.57470703 C139.51296358 102.31880711 135.00508314 100.06653301 130.49666786 97.81530571 C126.96100186 96.04929784 123.4263087 94.28134971 119.89188766 92.51285172 C118.2315828 91.68237143 116.57099339 90.85245969 114.91008377 90.02318954 C106.56281557 85.85421109 98.25295243 81.63234949 90.01953125 77.2421875 C83.86248285 73.95937609 77.6595213 70.83506539 71.3359375 67.8828125 C58.30962184 61.7215091 45.42280215 55.28810598 32.53955078 48.83496094 C29.2201778 47.17236107 25.89895 45.51350226 22.57723427 43.85558891 C19.99271023 42.56512434 17.40913236 41.27277508 14.82584763 39.9798317 C13.59889435 39.36602224 12.37164526 38.75280373 11.14409256 38.14019394 C9.45268184 37.29574982 7.76267908 36.44848733 6.07275391 35.60107422 C4.63459824 34.88139969 4.63459824 34.88139969 3.16738892 34.14718628 C1 33 1 33 0 32 C-0.0883967 29.6243148 -0.11530305 27.27791326 -0.09765625 24.90234375 C-0.0962413 24.19348526 -0.09482635 23.48462677 -0.09336853 22.75428772 C-0.08775443 20.48198288 -0.07519963 18.20977525 -0.0625 15.9375 C-0.05748681 14.40039204 -0.05292359 12.86328255 -0.04882812 11.32617188 C-0.03778042 7.55074358 -0.02050641 3.77538829 0 0 Z " fill="#C61230" transform="translate(0,0)"/>
<path d="M0 0 C0.34975041 0.48677625 0.69950083 0.97355249 1.05984974 1.47507954 C3.97498395 3.76631847 6.3697064 3.38565732 10.04240417 3.39872742 C10.76367266 3.40537424 11.48494115 3.41202107 12.22806627 3.41886932 C14.65112862 3.43756012 17.07369983 3.43489003 19.49682617 3.43237305 C21.23124391 3.44138652 22.96565525 3.45171271 24.70005798 3.46325684 C29.41462269 3.49090175 34.12906679 3.50012149 38.84370208 3.50611091 C43.76851569 3.51547513 48.6932385 3.54167687 53.61799622 3.56611633 C62.94644415 3.60983887 72.27487452 3.63835046 81.60339385 3.66143972 C92.22241866 3.68846059 102.84135238 3.73237398 113.46031225 3.77772844 C135.30682589 3.87065711 157.15336679 3.94230016 179 4 C179 4.66 179 5.32 179 6 C116.63 6 54.26 6 -10 6 C-6.68366796 3.51275097 -3.70626844 1.76890085 0 0 Z " fill="#051857" transform="translate(681,137)"/>
<path d="M0 0 C5.445 2.475 5.445 2.475 11 5 C11 5.33 11 5.66 11 6 C-51.37 6 -113.74 6 -178 6 C-178 5.34 -178 4.68 -178 4 C-119.59 3.67 -61.18 3.34 -1 3 C-0.67 2.01 -0.34 1.02 0 0 Z " fill="#081A59" transform="translate(178,137)"/>
<path d="M0 0 C0 43.23 0 86.46 0 131 C-0.66 131 -1.32 131 -2 131 C-2.00496522 130.02097938 -2.00496522 130.02097938 -2.01003075 129.02218056 C-2.09117319 113.15717008 -2.18323658 97.29226654 -2.28752708 81.42739296 C-2.33769606 73.75532662 -2.38413836 66.0832712 -2.421875 58.41113281 C-2.45476717 51.72581734 -2.4945828 45.04058553 -2.54279006 38.3553623 C-2.56808284 34.81402583 -2.58985575 31.27274506 -2.60334396 27.73134232 C-2.61851334 23.78254523 -2.64913678 19.8339522 -2.68115234 15.88525391 C-2.68331253 14.70490067 -2.68547272 13.52454742 -2.68769836 12.3084259 C-2.69886185 11.23707901 -2.71002533 10.16573212 -2.7215271 9.06192017 C-2.72705786 8.12722208 -2.73258862 7.19252399 -2.73828697 6.22950172 C-2.7904057 3.79636355 -2.7904057 3.79636355 -5 2 C-1.125 0 -1.125 0 0 0 Z " fill="#071C5A" transform="translate(358,299)"/>
<path d="M0 0 C0.66 0 1.32 0 2 0 C2 42.24 2 84.48 2 128 C2.99 128.33 3.98 128.66 5 129 C2.525 129.99 2.525 129.99 0 131 C0 87.77 0 44.54 0 0 Z " fill="#0B1A60" transform="translate(502,0)"/>
<path d="M0 0 C-3.66002197 3.05001831 -9.07851471 7 -14 7 C-14 6.34 -14 5.68 -14 5 C-13.01 4.01 -12.02 3.02 -11 2 C-59.84 2 -108.68 2 -159 2 C-159 1.67 -159 1.34 -159 1 C-139.00724826 0.86941864 -119.01449531 0.73902295 -99.02174091 0.60884857 C-89.7388586 0.54840267 -80.45597669 0.48789591 -71.1730957 0.42724609 C-63.08257045 0.3743867 -54.99204446 0.32164128 -46.90151757 0.26903296 C-42.6172853 0.24117092 -38.33305341 0.21325165 -34.0488224 0.18519592 C-30.01633608 0.15879057 -25.98384878 0.13253761 -21.9513607 0.10640144 C-20.47152037 0.09678316 -18.9916804 0.08710923 -17.51184082 0.07737541 C-15.49046424 0.06408791 -13.46908622 0.05102044 -11.44770813 0.03796387 C-10.31666814 0.03058952 -9.18562815 0.02321518 -8.02031422 0.01561737 C-5.34679871 0.00179322 -2.67354306 -0.00302507 0 0 Z " fill="#0B266B" transform="translate(189,287)"/>
<path d="M0 0 C0 0.99 0 1.98 0 3 C-1.32 3.33 -2.64 3.66 -4 4 C-4 4.66 -4 5.32 -4 6 C22.73 5.505 22.73 5.505 50 5 C50 5.99 50 6.98 50 8 C28.88 8 7.76 8 -14 8 C-10.86217036 5.64662777 -8.22270281 4.00315795 -4.75 2.3125 C-3.41195312 1.65701172 -3.41195312 1.65701172 -2.046875 0.98828125 C-1.03367187 0.49908203 -1.03367187 0.49908203 0 0 Z " fill="#AF132B" transform="translate(525,135)"/>
<path d="M0 0 C2.66666667 0.66666667 5.33333333 1.33333333 8 2 C8 2.66 8 3.32 8 4 C9.8871875 4.1546875 9.8871875 4.1546875 11.8125 4.3125 C15.74407513 4.7970251 15.74407513 4.7970251 17.8125 6.4375 C18.204375 6.953125 18.59625 7.46875 19 8 C19.99 8.66 20.98 9.32 22 10 C19 11 19 11 16.9152832 10.19555664 C16.13499756 9.77137451 15.35471191 9.34719238 14.55078125 8.91015625 C13.70322266 8.45576172 12.85566406 8.00136719 11.98242188 7.53320312 C11.10134766 7.04787109 10.22027344 6.56253906 9.3125 6.0625 C8.41982422 5.58103516 7.52714844 5.09957031 6.60742188 4.60351562 C4.39992466 3.41123103 2.19792067 2.20982106 0 1 C0 0.67 0 0.34 0 0 Z " fill="#B72845" transform="translate(600,299)"/>
<path d="M0 0 C0 0.99 0 1.98 0 3 C-1.32 3.33 -2.64 3.66 -4 4 C-4 4.66 -4 5.32 -4 6 C-1.69 6 0.62 6 3 6 C3 6.33 3 6.66 3 7 C-5.415 7.495 -5.415 7.495 -14 8 C-10.86217036 5.64662777 -8.22270281 4.00315795 -4.75 2.3125 C-3.41195312 1.65701172 -3.41195312 1.65701172 -2.046875 0.98828125 C-1.03367187 0.49908203 -1.03367187 0.49908203 0 0 Z " fill="#B92242" transform="translate(525,135)"/>
<path d="M0 0 C4.455 1.98 4.455 1.98 9 4 C9 4.33 9 4.66 9 5 C-0.57 4.67 -10.14 4.34 -20 4 C-20 3.67 -20 3.34 -20 3 C-13.73 2.67 -7.46 2.34 -1 2 C-0.67 1.34 -0.34 0.68 0 0 Z " fill="#C11833" transform="translate(276,138)"/>
<path d="M0 0 C0.391875 0.474375 0.78375 0.94875 1.1875 1.4375 C3.40808374 3.35179633 5.13375709 3.61266988 8 4 C8 4.33 8 4.66 8 5 C2.06 5.33 -3.88 5.66 -10 6 C-6.68366796 3.51275097 -3.70626844 1.76890085 0 0 Z " fill="#172B69" transform="translate(681,137)"/>
<path d="M0 0 C-3.40219265 2.74792483 -7.48464588 6 -12 6 C-12 4.35 -12 2.7 -12 1 C-7.9472484 0.01751476 -4.16138263 -0.08159574 0 0 Z " fill="#B41F3C" transform="translate(349,287)"/>
<path d="M0 0 C0.33 0.66 0.66 1.32 1 2 C0.34 2 -0.32 2 -1 2 C-1.66 3.65 -2.32 5.3 -3 7 C-5.97 7 -8.94 7 -12 7 C-8.35140239 3.95950199 -4.2555467 2.03481238 0 0 Z " fill="#BD233F" transform="translate(13,423)"/>
<path d="M0 0 C0 0.66 0 1.32 0 2 C-0.9590625 2.1546875 -0.9590625 2.1546875 -1.9375 2.3125 C-2.618125 2.539375 -3.29875 2.76625 -4 3 C-4.33 3.99 -4.66 4.98 -5 6 C-9.09724467 7.54613006 -11.81857651 8.29227216 -16 7 C-13.71070947 5.82845707 -11.41881638 4.66261926 -9.125 3.5 C-8.47402344 3.16613281 -7.82304687 2.83226562 -7.15234375 2.48828125 C-2.2265625 0 -2.2265625 0 0 0 Z " fill="#1D356A" transform="translate(241,358)"/>
<path d="M0 0 C-3.66002197 3.05001831 -9.07851471 7 -14 7 C-14 6.34 -14 5.68 -14 5 C-9.32047046 0.71043126 -6.20913339 -0.17247593 0 0 Z " fill="#162A65" transform="translate(189,287)"/>
<path d="M0 0 C0.66 0.33 1.32 0.66 2 1 C-1.73530598 4.28254162 -5.2896745 6.37279665 -10 8 C-12.21484375 7.57421875 -12.21484375 7.57421875 -14 7 C-11.71296692 5.80274117 -9.42115138 4.61702982 -7.125 3.4375 C-6.14853516 2.92413086 -6.14853516 2.92413086 -5.15234375 2.40039062 C-3.46470143 1.53917109 -1.73420407 0.76313297 0 0 Z " fill="#BC2A4A" transform="translate(39,410)"/>
<path d="M0 0 C0.66 0.33 1.32 0.66 2 1 C1.01 1.33 0.02 1.66 -1 2 C-1.33 2.99 -1.66 3.98 -2 5 C-5.24484731 7.28341107 -8.12459955 7.17615457 -12 7 C-8.44008172 4.03340143 -4.34777457 1.618652 0 0 Z " fill="#FDDDE6" transform="translate(77,423)"/>
<path d="M0 0 C4.19469571 0.59924224 8.00999834 1.57499941 12 3 C12 3.66 12 4.32 12 5 C12.66 5.33 13.32 5.66 14 6 C11 7 11 7 8.30078125 5.78515625 C7.31464844 5.21667969 6.32851563 4.64820313 5.3125 4.0625 C4.31863281 3.49660156 3.32476563 2.93070312 2.30078125 2.34765625 C1.54152344 1.90292969 0.78226563 1.45820313 0 1 C0 0.67 0 0.34 0 0 Z " fill="#1E336B" transform="translate(832,367)"/>
<path d="M0 0 C0.66 0.33 1.32 0.66 2 1 C-1.8247211 4.36111854 -5.32632146 6.14816511 -10 8 C-10.99 8.495 -10.99 8.495 -12 9 C-12.66 8.34 -13.32 7.68 -14 7 C-11.71296692 5.80274117 -9.42115138 4.61702982 -7.125 3.4375 C-6.14853516 2.92413086 -6.14853516 2.92413086 -5.15234375 2.40039062 C-3.46470143 1.53917109 -1.73420407 0.76313297 0 0 Z " fill="#BD2A46" transform="translate(143,358)"/>
<path d="M0 0 C0.33 0.99 0.66 1.98 1 3 C3.72435637 4.07585059 3.72435637 4.07585059 7 5 C9.35646599 5.95201226 11.67328026 6.97624332 14 8 C14 8.66 14 9.32 14 10 C8.31497465 8.35433477 3.23318364 5.70967216 -2 3 C-1.34 2.67 -0.68 2.34 0 2 C0 1.34 0 0.68 0 0 Z " fill="#BA2947" transform="translate(119,88)"/>
<path d="M0 0 C0.33 0.99 0.66 1.98 1 3 C2.32 3 3.64 3 5 3 C5 3.66 5 4.32 5 5 C7.97 5.495 7.97 5.495 11 6 C11.33 6.99 11.66 7.98 12 9 C7.0276578 7.50829734 2.58154261 5.39542583 -2 3 C-1.34 2.67 -0.68 2.34 0 2 C0 1.34 0 0.68 0 0 Z " fill="#22386B" transform="translate(143,20)"/>
<path d="M0 0 C0.33 0.66 0.66 1.32 1 2 C0.34 2 -0.32 2 -1 2 C-1.33 2.99 -1.66 3.98 -2 5 C-5.41557141 6.80266269 -8.16865501 7.218934 -12 7 C-8.35140239 3.95950199 -4.2555467 2.03481238 0 0 Z " fill="#1E3768" transform="translate(317,319)"/>
<path d="M0 0 C0 0.66 0 1.32 0 2 C-1.36125 2.6496875 -1.36125 2.6496875 -2.75 3.3125 C-5.43218449 4.70517271 -7.66139605 6.11112757 -10 8 C-10.66 7.01 -11.32 6.02 -12 5 C-10.37750059 4.16180842 -8.75191503 3.3295884 -7.125 2.5 C-6.22007812 2.0359375 -5.31515625 1.571875 -4.3828125 1.09375 C-2 0 -2 0 0 0 Z " fill="#FAD8DA" transform="translate(165,380)"/>
<path d="M0 0 C2.64 0 5.28 0 8 0 C7.67 0.99 7.34 1.98 7 3 C8.32 3 9.64 3 11 3 C11.33 3.99 11.66 4.98 12 6 C7.76570244 4.68938409 3.92592596 3.05643741 0 1 C0 0.67 0 0.34 0 0 Z " fill="#1E346D" transform="translate(233,68)"/>
<path d="M0 0 C2.125 0.9375 2.125 0.9375 4 2 C4 2.66 4 3.32 4 4 C0.7 4 -2.6 4 -6 4 C-2 1 -2 1 0 0 Z " fill="#1A2C6F" transform="translate(103,426)"/>
<path d="M0 0 C0.66 0.33 1.32 0.66 2 1 C-0.11770166 3.32947183 -2.03335588 4.88750845 -5 6 C-5.99 5.67 -6.98 5.34 -8 5 C-5.45378681 2.99940392 -3.01962385 1.20784954 0 0 Z " fill="#BD2648" transform="translate(231,314)"/>
<path d="M0 0 C-0.8125 2.4375 -0.8125 2.4375 -2 5 C-2.99 5.33 -3.98 5.66 -5 6 C-5 5.34 -5 4.68 -5 4 C-5.99 3.67 -6.98 3.34 -8 3 C-2.25 0 -2.25 0 0 0 Z " fill="#133065" transform="translate(137,410)"/>
<path d="M0 0 C4.455 0.99 4.455 0.99 9 2 C9 2.66 9 3.32 9 4 C9.66 4 10.32 4 11 4 C11 4.66 11 5.32 11 6 C6.95743617 4.77782954 3.50711041 3.37245704 0 1 C0 0.67 0 0.34 0 0 Z " fill="#B62641" transform="translate(784,391)"/>
<path d="M0 0 C5.75 1.75 5.75 1.75 8 4 C5 5 5 5 1 5 C0.67 3.35 0.34 1.7 0 0 Z " fill="#132C6C" transform="translate(657,377)"/>
<path d="M0 0 C0.33 0.99 0.66 1.98 1 3 C2.84725052 3.69159401 2.84725052 3.69159401 5 4 C7.1875 4.375 7.1875 4.375 9 5 C9.33 5.99 9.66 6.98 10 8 C5.76570244 6.68938409 1.92592596 5.05643741 -2 3 C-1.34 2.67 -0.68 2.34 0 2 C0 1.34 0 0.68 0 0 Z " fill="#B92E49" transform="translate(735,364)"/>
<path d="M0 0 C3.48299045 0.49757006 6.13292037 2.00897248 9 4 C9 4.66 9 5.32 9 6 C5.08788267 4.84414715 2.1254959 3.64465038 -1 1 C-0.67 0.67 -0.34 0.34 0 0 Z " fill="#B82845" transform="translate(580,288)"/>
<path d="M0 0 C3.91211733 1.15585285 6.8745041 2.35534962 10 5 C8.35 5.33 6.7 5.66 5 6 C4.67 5.34 4.34 4.68 4 4 C1.98330173 2.86649466 1.98330173 2.86649466 0 2 C0 1.34 0 0.68 0 0 Z " fill="#B82543" transform="translate(235,118)"/>
<path d="M0 0 C0.66 0.33 1.32 0.66 2 1 C-1.88309282 4.64775386 -4.71201818 5.58525633 -10 6 C-6.87511433 3.47605388 -3.68685613 1.60298093 0 0 Z " fill="#FEDFE2" transform="translate(661,99)"/>
<path d="M0 0 C3.91211733 1.15585285 6.8745041 2.35534962 10 5 C8.35 5.33 6.7 5.66 5 6 C4.67 5.34 4.34 4.68 4 4 C1.98330173 2.86649466 1.98330173 2.86649466 0 2 C0 1.34 0 0.68 0 0 Z " fill="#B82543" transform="translate(11,6)"/>
<path d="M0 0 C0 0.66 0 1.32 0 2 C-0.99 2 -1.98 2 -3 2 C-3.33 2.99 -3.66 3.98 -4 5 C-5.9375 5.8125 -5.9375 5.8125 -8 6 C-8.66 5.34 -9.32 4.68 -10 4 C-8.71086513 3.32845067 -7.41859796 2.66291141 -6.125 2 C-5.40570313 1.62875 -4.68640625 1.2575 -3.9453125 0.875 C-2 0 -2 0 0 0 Z " fill="#BE2846" transform="translate(75,393)"/>
<path d="M0 0 C1.32 0 2.64 0 4 0 C4 0.99 4 1.98 4 3 C5.32 3 6.64 3 8 3 C8.33 3.99 8.66 4.98 9 6 C5.08788267 4.84414715 2.1254959 3.64465038 -1 1 C-0.67 0.67 -0.34 0.34 0 0 Z " fill="#1B336B" transform="translate(300,100)"/>
<path d="M0 0 C3.63 1.65 7.26 3.3 11 5 C6.7175431 6.07061422 5.72413618 6.05807526 2 4 C1.34 2.68 0.68 1.36 0 0 Z " fill="#B92A46" transform="translate(118,59)"/>
<path d="M0 0 C0.33 0.66 0.66 1.32 1 2 C-1.87164566 4.70272533 -3.30991841 5.94791837 -7.3125 6.25 C-8.199375 6.1675 -9.08625 6.085 -10 6 C-8.64695791 3.29391583 -7.19033456 3.03816953 -4.4375 1.875 C-3.61121094 1.52179687 -2.78492188 1.16859375 -1.93359375 0.8046875 C-1.29550781 0.53914063 -0.65742187 0.27359375 0 0 Z " fill="#F9D9D9" transform="translate(807,26)"/>
<path d="M0 0 C0.33 0.66 0.66 1.32 1 2 C4.02934491 2.65772428 4.02934491 2.65772428 7 3 C7 3.99 7 4.98 7 6 C3.08788267 4.84414715 0.1254959 3.64465038 -3 1 C-2.01 0.67 -1.02 0.34 0 0 Z " fill="#FCDBDE" transform="translate(776,353)"/>
<path d="M0 0 C0.86625 0.556875 0.86625 0.556875 1.75 1.125 C0.4375 2.625 0.4375 2.625 -1.25 4.125 C-2.24 4.125 -3.23 4.125 -4.25 4.125 C-4.25 3.465 -4.25 2.805 -4.25 2.125 C-4.91 1.795 -5.57 1.465 -6.25 1.125 C-2.80384615 -1.09038462 -2.80384615 -1.09038462 0 0 Z " fill="#C91F44" transform="translate(287.25,287.875)"/>
<path d="M0 0 C0 0.99 0 1.98 0 3 C-5.5 6.125 -5.5 6.125 -10 5 C-6.7 3.35 -3.4 1.7 0 0 Z " fill="#BD2744" transform="translate(541,127)"/>
<path d="M0 0 C0.66 0.33 1.32 0.66 2 1 C0.375 3 0.375 3 -2 5 C-5.25 5.25 -5.25 5.25 -8 5 C-6.35197949 1.70395897 -3.32254422 1.22409524 0 0 Z " fill="#FADAD9" transform="translate(613,123)"/>
<path d="M0 0 C0.66 0.99 1.32 1.98 2 3 C-2.1077065 4.58706842 -3.59232396 5.10191901 -8 4 C-5.36 2.68 -2.72 1.36 0 0 Z " fill="#C12345" transform="translate(639,78)"/>
<path d="M0 0 C-2 3 -2 3 -4.5 3.8125 C-5.7375 3.9053125 -5.7375 3.9053125 -7 4 C-7.66 3.34 -8.32 2.68 -9 2 C-3.375 -1.125 -3.375 -1.125 0 0 Z " fill="#1B316D" transform="translate(290,335)"/>
<path d="M0 0 C1.32 0.66 2.64 1.32 4 2 C1.61426621 3.89213369 -0.07175348 5.02391783 -3 6 C-3 5.01 -3 4.02 -3 3 C-2.34 3 -1.68 3 -1 3 C-0.67 2.01 -0.34 1.02 0 0 Z " fill="#C21D3E" transform="translate(299,308)"/>
<path d="M0 0 C0.99 0.33 1.98 0.66 3 1 C-0.1254959 3.64465038 -3.08788267 4.84414715 -7 6 C-7 5.34 -7 4.68 -7 4 C-4 2 -4 2 0 2 C0 1.34 0 0.68 0 0 Z " fill="#B62645" transform="translate(636,109)"/>
<path d="M0 0 C0 0.66 0 1.32 0 2 C-3.96 3.98 -3.96 3.98 -8 6 C-8 5.01 -8 4.02 -8 3 C-2.25 0 -2.25 0 0 0 Z " fill="#BA2347" transform="translate(25,418)"/>
<path d="M0 0 C2.64 0.33 5.28 0.66 8 1 C8.33 2.32 8.66 3.64 9 5 C5.22454612 3.90931332 2.52956528 3.0916909 0 0 Z " fill="#B92845" transform="translate(824,411)"/>
<path d="M0 0 C0 0.66 0 1.32 0 2 C-0.9590625 2.433125 -0.9590625 2.433125 -1.9375 2.875 C-4.15206079 3.82823451 -4.15206079 3.82823451 -5 6 C-5.99 6 -6.98 6 -8 6 C-8 5.01 -8 4.02 -8 3 C-2.25 0 -2.25 0 0 0 Z " fill="#EBF1F9" transform="translate(113,326)"/>
<path d="M0 0 C0 0.99 0 1.98 0 3 C-2.64 3.66 -5.28 4.32 -8 5 C-8 4.34 -8 3.68 -8 3 C-5.09451118 0.95830515 -3.59857954 0 0 0 Z " fill="#C02C4D" transform="translate(599,99)"/>
<path d="M0 0 C1.65 0.33 3.3 0.66 5 1 C5 2.32 5 3.64 5 5 C3.02 4.34 1.04 3.68 -1 3 C-0.67 2.01 -0.34 1.02 0 0 Z " fill="#172C62" transform="translate(118,8)"/>
<path d="M0 0 C5.75 1.75 5.75 1.75 8 4 C5.69 4 3.38 4 1 4 C0.67 2.68 0.34 1.36 0 0 Z " fill="#1C2E67" transform="translate(755,426)"/>
<path d="M0 0 C-2.97 1.32 -5.94 2.64 -9 4 C-8.67 2.68 -8.34 1.36 -8 0 C-4.63458162 -1.08174162 -3.70152678 -0.92538169 0 0 Z " fill="#E3F0F7" transform="translate(109,424)"/>
<path d="M0 0 C0 0.66 0 1.32 0 2 C-2.66666667 3.33333333 -5.33333333 4.66666667 -8 6 C-8.66 5.34 -9.32 4.68 -10 4 C-8.71086513 3.32845067 -7.41859796 2.66291141 -6.125 2 C-5.40570313 1.62875 -4.68640625 1.2575 -3.9453125 0.875 C-2 0 -2 0 0 0 Z " fill="#FCDDE2" transform="translate(241,342)"/>
<path d="M0 0 C3.91211733 1.15585285 6.8745041 2.35534962 10 5 C6.44219804 4.39009109 3.3171411 3.4216319 0 2 C0 1.34 0 0.68 0 0 Z " fill="#B72443" transform="translate(659,298)"/>
<path d="M0 0 C3.55780196 0.60990891 6.6828589 1.5783681 10 3 C10 3.66 10 4.32 10 5 C6.08788267 3.84414715 3.1254959 2.64465038 0 0 Z " fill="#B92945" transform="translate(35,49)"/>
<path d="M0 0 C-0.33 0.99 -0.66 1.98 -1 3 C-3.5625 4.1875 -3.5625 4.1875 -6 5 C-6.66 4.34 -7.32 3.68 -8 3 C-2.25 0 -2.25 0 0 0 Z " fill="#C1264A" transform="translate(89,386)"/>
<path d="M0 0 C0 0.99 0 1.98 0 3 C-1.98 3.99 -3.96 4.98 -6 6 C-6.66 5.34 -7.32 4.68 -8 4 C-5.36 2.68 -2.72 1.36 0 0 Z " fill="#1F3C6A" transform="translate(201,377)"/>
<path d="M0 0 C0 0.66 0 1.32 0 2 C-0.61875 2.28875 -1.2375 2.5775 -1.875 2.875 C-4.13325765 3.93720042 -4.13325765 3.93720042 -6 6 C-6.66 5.01 -7.32 4.02 -8 3 C-2.25 0 -2.25 0 0 0 Z " fill="#FCDEE3" transform="translate(177,374)"/>
<path d="M0 0 C0 0.99 0 1.98 0 3 C-0.61875 3.28875 -1.2375 3.5775 -1.875 3.875 C-4.13325765 4.93720042 -4.13325765 4.93720042 -6 7 C-6 6.34 -6 5.68 -6 5 C-6.66 4.67 -7.32 4.34 -8 4 C-5.36 2.68 -2.72 1.36 0 0 Z " fill="#FADADB" transform="translate(217,353)"/>
<path d="M0 0 C-0.598125 0.268125 -1.19625 0.53625 -1.8125 0.8125 C-3.97224808 1.98493467 -5.35790256 3.19369282 -7 5 C-7 4.34 -7 3.68 -7 3 C-7.66 2.67 -8.32 2.34 -9 2 C-3.375 -1.125 -3.375 -1.125 0 0 Z " fill="#1E346B" transform="translate(258,351)"/>
<path d="M0 0 C0.99 0 1.98 0 3 0 C3 0.66 3 1.32 3 2 C-2.75 5 -2.75 5 -5 5 C-4.67 4.01 -4.34 3.02 -4 2 C-2.68 2 -1.36 2 0 2 C0 1.34 0 0.68 0 0 Z " fill="#B62341" transform="translate(220,349)"/>
<path d="M0 0 C-0.66 1.32 -1.32 2.64 -2 4 C-3.98 4 -5.96 4 -8 4 C-2.7826087 0 -2.7826087 0 0 0 Z " fill="#FDDCDE" transform="translate(229,348)"/>
<path d="M0 0 C2.31 0 4.62 0 7 0 C7.33 1.32 7.66 2.64 8 4 C2.25 2.25 2.25 2.25 0 0 Z " fill="#FCDDE0" transform="translate(753,344)"/>
<path d="M0 0 C0.99 0 1.98 0 3 0 C3 0.66 3 1.32 3 2 C3.99 1.67 4.98 1.34 6 1 C6.66 2.32 7.32 3.64 8 5 C2.25 3.125 2.25 3.125 0 2 C0 1.34 0 0.68 0 0 Z " fill="#213569" transform="translate(689,295)"/>
<path d="M0 0 C4.455 1.98 4.455 1.98 9 4 C9 4.33 9 4.66 9 5 C5.93606987 5.25532751 4.36766788 5.21861333 1.6875 3.625 C1.130625 3.08875 0.57375 2.5525 0 2 C0 1.34 0 0.68 0 0 Z " fill="#AC2F44" transform="translate(276,138)"/>
<path d="M0 0 C1.98 0.66 3.96 1.32 6 2 C5.67 2.99 5.34 3.98 5 5 C2.69 4.01 0.38 3.02 -2 2 C-1.34 1.34 -0.68 0.68 0 0 Z " fill="#243471" transform="translate(329,114)"/>
<path d="M0 0 C-0.33 1.32 -0.66 2.64 -1 4 C-3.31 4 -5.62 4 -8 4 C-2.7826087 0 -2.7826087 0 0 0 Z " fill="#223772" transform="translate(833,62)"/>
</svg>
