<?xml version="1.0" encoding="UTF-8"?>
<svg version="1.1" xmlns="http://www.w3.org/2000/svg" width="860" height="573">
<path d="M0 0 C283.8 0 567.6 0 860 0 C860 189.09 860 378.18 860 573 C576.2 573 292.4 573 0 573 C0 383.91 0 194.82 0 0 Z " fill="#DA261D" transform="translate(0,0)"/>
<path d="M0 0 C0.66 0 1.32 0 2 0 C4.4182302 7.37467598 6.83504326 14.74981539 9.25097656 22.12524414 C10.06893288 24.62212151 10.88737534 27.11883795 11.70605469 29.61547852 C16.25469428 43.48771168 20.77403603 57.36814588 25.21032715 71.27674866 C27.18018237 77.44982893 29.17071258 83.6155356 31.1875 89.7734375 C31.66278166 91.22785764 32.13804263 92.68228454 32.61328125 94.13671875 C33.31994972 96.29873417 34.02807658 98.46023049 34.73974609 100.62060547 C35.45550897 102.79526013 36.16576007 104.97164821 36.875 107.1484375 C37.28492188 108.39802246 37.69484375 109.64760742 38.1171875 110.93505859 C39 114 39 114 39 117 C80.25 117 121.5 117 164 117 C158.37414966 122.62585034 158.37414966 122.62585034 154.98828125 125.09375 C153.86583008 125.91649414 153.86583008 125.91649414 152.72070312 126.75585938 C151.92599609 127.33142578 151.13128906 127.90699219 150.3125 128.5 C149.47525391 129.11166016 148.63800781 129.72332031 147.77539062 130.35351562 C141.45989066 134.9608413 135.12006366 139.53494651 128.77490234 144.10131836 C123.2980019 148.04690753 117.86280937 152.04636189 112.4375 156.0625 C105.83624538 160.94635504 99.17410726 165.72868069 92.44677734 170.43701172 C85.90557404 175.03016436 79.47841783 179.77354237 73.06640625 184.54492188 C72.30328125 185.11146484 71.54015625 185.67800781 70.75390625 186.26171875 C70.07658447 186.76662842 69.3992627 187.27153809 68.70141602 187.79174805 C67 189 67 189 65 190 C65.6023523 197.103603 68.06506531 203.54376617 70.375 210.25 C71.29650748 212.9593111 72.2117257 215.67071605 73.125 218.3828125 C73.48070572 219.43811661 73.48070572 219.43811661 73.84359741 220.51473999 C76.47192634 228.34801466 78.9236374 236.23496074 81.375 244.125 C85.73718232 258.1523944 90.31296324 272.09975721 95.02880859 286.01220703 C97.59746964 293.61453136 100.02706796 301.21649175 102 309 C99.24678614 307.69302984 96.80366726 306.24417133 94.33984375 304.453125 C93.63859375 303.94523437 92.93734375 303.43734375 92.21484375 302.9140625 C91.08755859 302.09035156 91.08755859 302.09035156 89.9375 301.25 C89.14601563 300.67507813 88.35453125 300.10015625 87.5390625 299.5078125 C81.04120805 294.78023966 74.574866 290.00991993 68.11132812 285.2355957 C60.5300691 279.6403104 52.89405523 274.12263404 45.24707031 268.61767578 C15.74864558 247.38163034 15.74864558 247.38163034 2 237 C-0.64398662 238.26575751 -3.04867577 239.63675287 -5.44140625 241.328125 C-6.0974585 241.79081787 -6.75351074 242.25351074 -7.42944336 242.73022461 C-8.13335205 243.23175049 -8.83726074 243.73327637 -9.5625 244.25 C-10.67927124 245.04192749 -10.67927124 245.04192749 -11.81860352 245.84985352 C-18.21079712 250.40030756 -24.53053348 255.04661499 -30.83789062 259.71362305 C-39.91019186 266.42480445 -49.07019289 273.01284578 -58.22949219 279.60449219 C-60.46610128 281.21465497 -62.70196489 282.82584649 -64.9375 284.4375 C-65.66952637 284.96472656 -66.40155273 285.49195313 -67.15576172 286.03515625 C-71.16071345 288.92621164 -75.14527148 291.84220247 -79.109375 294.7890625 C-79.95765869 295.4188501 -80.80594238 296.0486377 -81.67993164 296.69750977 C-83.30409509 297.90547243 -84.92584087 299.11669537 -86.54467773 300.33178711 C-90.88940769 303.5630886 -95.23774983 306.42018501 -100 309 C-98.11232342 301.7944639 -95.97457174 294.73315653 -93.5625 287.6875 C-89.89411055 276.83664248 -86.43022996 265.92793 -83 255 C-77.92016975 238.8289792 -72.67676735 222.72213206 -67.1796875 206.6875 C-66.89528809 205.8512207 -66.61088867 205.01494141 -66.31787109 204.15332031 C-65.79237454 202.60914477 -65.26186658 201.06666061 -64.72509766 199.52636719 C-63.56833287 196.12201085 -63 193.64404213 -63 190 C-65.39876388 188.0158752 -67.72304541 186.3272559 -70.3125 184.625 C-71.88421186 183.55543887 -73.45447243 182.48374266 -75.0234375 181.41015625 C-75.84424805 180.85215332 -76.66505859 180.29415039 -77.51074219 179.71923828 C-81.55484709 176.92612464 -85.49386026 173.99493961 -89.4375 171.0625 C-97.82947882 164.84878105 -106.27850135 158.71829907 -114.75292969 152.61767578 C-124.78867734 145.392897 -134.82106715 138.16423407 -144.77856445 130.83178711 C-147.62006327 128.73995042 -150.46762433 126.65888984 -153.33984375 124.609375 C-154.34144531 123.89265625 -155.34304688 123.1759375 -156.375 122.4375 C-157.24898438 121.81746094 -158.12296875 121.19742188 -159.0234375 120.55859375 C-161 119 -161 119 -162 117 C-120.75 117 -79.5 117 -37 117 C-36.34 113.7 -35.68 110.4 -35 107 C-34.47710268 105.16073994 -33.91558583 103.33137753 -33.29296875 101.5234375 C-32.96071289 100.54479736 -32.62845703 99.56615723 -32.28613281 98.55786133 C-31.92358398 97.50751709 -31.56103516 96.45717285 -31.1875 95.375 C-30.37214459 92.97057827 -29.55844622 90.56559421 -28.74609375 88.16015625 C-28.52865509 87.51775497 -28.31121643 86.8753537 -28.08718872 86.21348572 C-25.23548085 77.77030586 -22.49729318 69.2900904 -19.75 60.8125 C-19.20317648 59.12677367 -18.65630118 57.44106412 -18.109375 55.75537109 C-16.98804179 52.29879565 -15.86719425 48.84206315 -14.74658203 45.38525391 C-12.02424888 36.98926056 -9.29462858 28.5956343 -6.5657959 20.20175171 C-5.17251338 15.9158346 -3.77962542 11.62978927 -2.38671875 7.34375 C-1.92016798 5.90820249 -1.45361547 4.47265554 -0.98706055 3.03710938 C-0.66133057 2.03486328 -0.33560059 1.03261719 0 0 Z " fill="#FEFD01" transform="translate(429,116)"/>
<path d="M0 0 C2 3 2 3 3 9 C44.25 9 85.5 9 128 9 C126.35 10.65 124.7 12.3 123 14 C121.68 14 120.36 14 119 14 C119.99 13.67 120.98 13.34 122 13 C122 12.34 122 11.68 122 11 C121.38947124 11.00460896 120.77894247 11.00921793 120.14991283 11.01396656 C105.30283714 11.12432911 90.45580096 11.2070996 75.60841656 11.25906086 C68.42832915 11.28485617 61.24851533 11.32003139 54.06860352 11.37719727 C47.81146291 11.42699242 41.55452039 11.45928138 35.29718715 11.47044247 C31.98301028 11.47696815 28.66953326 11.49494059 25.35550499 11.52865028 C21.6581249 11.56477467 17.96193152 11.56995204 14.2644043 11.56762695 C12.61147621 11.59459152 12.61147621 11.59459152 10.92515564 11.62210083 C8.19097764 11.60340904 5.67765301 11.5513238 3 11 C0.2507655 8.0800422 0.03785971 6.66885488 -0.1875 2.6875 C-0.125625 1.800625 -0.06375 0.91375 0 0 Z " fill="#FDC51E" transform="translate(465,224)"/>
<path d="M0 0 C41.25 0 82.5 0 125 0 C125 0.66 125 1.32 125 2 C85.4 2 45.8 2 5 2 C5 2.66 5 3.32 5 4 C1.125 2.25 1.125 2.25 0 0 Z " fill="#FBC021" transform="translate(267,233)"/>
<path d="M0 0 C1.78343364 2.67515046 2.61050454 4.52137072 3.55639648 7.52807617 C3.9921122 8.900467 3.9921122 8.900467 4.43663025 10.30058289 C4.7450032 11.28807022 5.05337616 12.27555756 5.37109375 13.29296875 C5.69408951 14.31296463 6.01708527 15.33296051 6.34986877 16.38386536 C7.38356497 19.6503466 8.41090268 22.91878143 9.4375 26.1875 C10.4614218 29.43807218 11.48672946 32.68819347 12.51441956 35.93757629 C13.15348978 37.95918782 13.79027711 39.9815229 14.42442322 42.00468445 C15.74800482 46.19991131 17.10580995 50.34133375 18.71899414 54.43481445 C20 58 20 58 20 62 C19.34 62 18.68 62 18 62 C16.80712589 58.12315913 16 55.08378077 16 51 C15.34 51 14.68 51 14 51 C13.855625 49.865625 13.71125 48.73125 13.5625 47.5625 C13.38828522 44.19222799 13.38828522 44.19222799 12 43 C11.95936168 41.33382885 11.957279 39.66611905 12 38 C11.34 38 10.68 38 10 38 C9.81824219 37.11957031 9.63648438 36.23914063 9.44921875 35.33203125 C9.19785156 34.17058594 8.94648438 33.00914062 8.6875 31.8125 C8.32205078 30.08966797 8.32205078 30.08966797 7.94921875 28.33203125 C7.0257678 25.09045238 5.76333321 22.83959109 4 20 C3.61250787 17.67504723 3.27017161 15.34148732 3 13 C2.67 12.67 2.34 12.34 2 12 C1.95936168 10.33382885 1.957279 8.66611905 2 7 C1.34 7 0.68 7 0 7 C0 4.69 0 2.38 0 0 Z " fill="#FDDB1E" transform="translate(499,328)"/>
<path d="M0 0 C0.66 0 1.32 0 2 0 C3.03810444 2.91080728 4.05237641 5.82937658 5.0625 8.75 C5.35705078 9.575 5.65160156 10.4 5.95507812 11.25 C6.22900391 12.04921875 6.50292969 12.8484375 6.78515625 13.671875 C7.04176025 14.4050293 7.29836426 15.13818359 7.56274414 15.89355469 C8.05680388 18.27364818 7.76066537 19.71574672 7 22 C6.67 20.02 6.34 18.04 6 16 C5.34 16 4.68 16 4 16 C3.51171875 14.01432292 3.0234375 12.02864583 2.53515625 10.04296875 C2.08989295 8.34316798 1.55566015 6.66698046 1 5 C-0.80317221 8.96697886 -1.49202991 12.6822542 -2 17 C-2.66 17 -3.32 17 -4 17 C-4.10957031 17.72445312 -4.21914063 18.44890625 -4.33203125 19.1953125 C-5.22871105 24.66287223 -6.15954315 29.22286803 -9 34 C-10.63164223 29.9496361 -9.281401 27.04210661 -7.91015625 23.046875 C-7.68678085 22.38665344 -7.46340546 21.72643188 -7.23326111 21.04620361 C-6.51948457 18.94397078 -5.79124222 16.84708609 -5.0625 14.75 C-4.57520886 13.32324521 -4.08886946 11.89616499 -3.60351562 10.46875 C-2.41335299 6.97532671 -1.21016848 3.48655075 0 0 Z " fill="#FDD621" transform="translate(429,116)"/>
<path d="M0 0 C0.33 0 0.66 0 1 0 C1.16682272 4.92127034 1.24828052 8.50343896 -1 13 C-1.66 13 -2.32 13 -3 13 C-2.938125 13.845625 -2.87625 14.69125 -2.8125 15.5625 C-2.99378356 18.88603191 -3.72935165 20.96370981 -5.14453125 23.93359375 C-6.56014591 27.3530465 -7.31239105 30.95042852 -8.15625 34.546875 C-9.056272 37.16360564 -10.01434589 38.15235019 -12 40 C-10.33233687 31.42207756 -7.59351285 23.22451848 -4.875 14.9375 C-4.4019611 13.48515062 -3.92930174 12.03267756 -3.45703125 10.58007812 C-2.30905993 7.05194875 -1.15596072 3.52552098 0 0 Z " fill="#FCDC1C" transform="translate(360,328)"/>
<path d="M0 0 C0 0.66 0 1.32 0 2 C-1.99330842 3.34331654 -3.99384866 4.67594012 -6 6 C-6.99 7.485 -6.99 7.485 -8 9 C-13.33333333 12 -13.33333333 12 -16 12 C-16.20625 12.598125 -16.4125 13.19625 -16.625 13.8125 C-19.26868224 18.01835811 -24.51118246 19.28368741 -29 21 C-24.92821526 16.61313668 -20.42382345 13.31784511 -15.5 9.9375 C-14.00939009 8.90643045 -12.51978126 7.87391193 -11.03125 6.83984375 C-10.33386719 6.35628418 -9.63648438 5.87272461 -8.91796875 5.37451172 C-7.26317106 4.18860146 -5.67121444 2.91589673 -4.09375 1.62890625 C-2 0 -2 0 0 0 Z " fill="#CD3F06" transform="translate(587,239)"/>
<path d="M0 0 C0.66 0.33 1.32 0.66 2 1 C1.4375 3.375 1.4375 3.375 0 6 C-1.65403494 6.46312978 -3.31399526 6.91406165 -4.99609375 7.26171875 C-8.38023455 8.50850746 -10.6115388 11.1021545 -13.10546875 13.63671875 C-13.73066406 14.08660156 -14.35585938 14.53648437 -15 15 C-16.32 14.67 -17.64 14.34 -19 14 C-12.73 9.38 -6.46 4.76 0 0 Z " fill="#CC3B06" transform="translate(399,374)"/>
<path d="M0 0 C3.64138867 3.64138867 4.58666025 9.0640994 6.1875 13.875 C6.56841797 14.97714844 6.94933594 16.07929688 7.34179688 17.21484375 C7.87450195 18.80619141 7.87450195 18.80619141 8.41796875 20.4296875 C8.74563232 21.40147949 9.0732959 22.37327148 9.41088867 23.37451172 C10.01354292 26.06035664 9.92623777 27.44519985 9 30 C8.67 28.68 8.34 27.36 8 26 C7.34 26 6.68 26 6 26 C5.896875 24.845 5.79375 23.69 5.6875 22.5 C5.13222944 18.01024092 3.69448198 14.16704242 2 10 C0.6314264 6.25443013 0 4.03399757 0 0 Z " fill="#FDDD1E" transform="translate(455,194)"/>
<path d="M0 0 C0.66 0.33 1.32 0.66 2 1 C1.2575 1.556875 0.515 2.11375 -0.25 2.6875 C-3.06754901 4.88831866 -3.06754901 4.88831866 -5.0625 7.6875 C-7.18277419 10.21814984 -7.9151809 10.38303618 -11 11 C-11.99 12.485 -11.99 12.485 -13 14 C-16.625 15.1875 -16.625 15.1875 -20 16 C-16.23938761 12.00973189 -12.24982069 8.86813301 -7.75 5.75 C-3.69642307 3.0876775 -3.69642307 3.0876775 0 0 Z " fill="#CD4008" transform="translate(367,397)"/>
<path d="M0 0 C7.25904881 4.67438749 14.13458887 9.7725296 21 15 C18 16 18 16 16.0625 15.3125 C13.67541153 13.7934437 11.97211412 12.03011747 10 10 C7.14830796 7.42670534 4.70558656 5.23519552 1 4 C0.3125 1.9375 0.3125 1.9375 0 0 Z " fill="#CF3E05" transform="translate(503,405)"/>
<path d="M0 0 C0.66 0.33 1.32 0.66 2 1 C1.39671875 1.45890625 0.7934375 1.9178125 0.171875 2.390625 C-0.62734375 3.00421875 -1.4265625 3.6178125 -2.25 4.25 C-3.43335938 5.15492188 -3.43335938 5.15492188 -4.640625 6.078125 C-7.04914774 7.96431056 -7.04914774 7.96431056 -9.171875 10.234375 C-11 12 -11 12 -13 12 C-13 12.66 -13 13.32 -13 14 C-15.31 14.66 -17.62 15.32 -20 16 C-16.23938761 12.00973189 -12.24982069 8.86813301 -7.75 5.75 C-3.69642307 3.0876775 -3.69642307 3.0876775 0 0 Z " fill="#CC4006" transform="translate(516,289)"/>
<path d="M0 0 C3.85658398 2.15078722 7.54319097 4.23455278 11 7 C10.343621 11.48525648 9.29925791 15.66914029 8 20 C7.67 20 7.34 20 7 20 C5.63557692 12.55769231 5.63557692 12.55769231 7.48046875 9.734375 C7.98191406 9.16203125 8.48335938 8.5896875 9 8 C8.3503125 7.59007812 7.700625 7.18015625 7.03125 6.7578125 C6.1959375 6.21898437 5.360625 5.68015625 4.5 5.125 C3.6646875 4.59132813 2.829375 4.05765625 1.96875 3.5078125 C1.3190625 3.01023437 0.669375 2.51265625 0 2 C0 1.34 0 0.68 0 0 Z " fill="#CA4802" transform="translate(356,299)"/>
<path d="M0 0 C1.24881179 3.54734944 0.73522457 5.67616446 -0.43359375 9.203125 C-0.75263672 10.1828125 -1.07167969 11.1625 -1.40039062 12.171875 C-1.74263672 13.18765625 -2.08488281 14.2034375 -2.4375 15.25 C-2.77587891 16.28125 -3.11425781 17.3125 -3.46289062 18.375 C-4.2993977 20.9198666 -5.14537912 23.46117074 -6 26 C-6.33 26 -6.66 26 -7 26 C-7 23.03 -7 20.06 -7 17 C-6.34 17 -5.68 17 -5 17 C-4.9175 15.865625 -4.835 14.73125 -4.75 13.5625 C-4.15436286 8.5929304 -2.21237727 4.4453348 0 0 Z " fill="#CE4104" transform="translate(428,115)"/>
<path d="M0 0 C0.66 0 1.32 0 2 0 C1.31184495 5.38328888 -0.30741635 10.26856173 -2.0625 15.375 C-2.34416016 16.20644531 -2.62582031 17.03789062 -2.91601562 17.89453125 C-3.60657101 19.93108441 -4.30272179 21.96573881 -5 24 C-5.33 24 -5.66 24 -6 24 C-6.19294408 19.17639811 -5.75747614 15.50353262 -4 11 C-3.34 11 -2.68 11 -2 11 C-1.855625 9.9275 -1.71125 8.855 -1.5625 7.75 C-1.16250558 5.08337051 -0.72408076 2.58600271 0 0 Z " fill="#C94A04" transform="translate(353,344)"/>
<path d="M0 0 C0.33 0 0.66 0 1 0 C1.33 2.31 1.66 4.62 2 7 C1.01 7.33 0.02 7.66 -1 8 C-1.10957031 8.75925781 -1.21914063 9.51851562 -1.33203125 10.30078125 C-1.49058594 11.29464844 -1.64914062 12.28851563 -1.8125 13.3125 C-1.96332031 14.29863281 -2.11414063 15.28476563 -2.26953125 16.30078125 C-3.03436705 19.12699269 -3.75258762 20.1959128 -6 22 C-5.40421223 16.73378394 -4.18691204 12.05591981 -2.4375 7.0625 C-2.20353516 6.37865234 -1.96957031 5.69480469 -1.72851562 4.99023438 C-1.15788171 3.32491499 -0.57972902 1.66217507 0 0 Z " fill="#FEDF1A" transform="translate(398,212)"/>
<path d="M0 0 C0.66 0.33 1.32 0.66 2 1 C-0.10034847 2.65091584 -2.20495833 4.29581238 -4.3125 5.9375 C-4.90740234 6.40607422 -5.50230469 6.87464844 -6.11523438 7.35742188 C-8.72700884 9.38555959 -10.83892403 10.94630801 -14 12 C-14 10.68 -14 9.36 -14 8 C-11.69 7.34 -9.38 6.68 -7 6 C-7 5.01 -7 4.02 -7 3 C-4.69631264 1.93347808 -2.35981813 0.93578995 0 0 Z " fill="#FEE521" transform="translate(354,405)"/>
<path d="M0 0 C0.33 0 0.66 0 1 0 C1 2.31 1 4.62 1 7 C0.34 7 -0.32 7 -1 7 C-1.33 8.32 -1.66 9.64 -2 11 C-0.68 11.33 0.64 11.66 2 12 C-0.31 13.32 -2.62 14.64 -5 16 C-4.54548816 14.26982492 -4.08621143 12.54090123 -3.625 10.8125 C-3.36976563 9.84957031 -3.11453125 8.88664062 -2.8515625 7.89453125 C-2.05233704 5.17789793 -1.0968638 2.60862825 0 0 Z " fill="#FDD422" transform="translate(334,409)"/>
<path d="M0 0 C2.0625 0.4375 2.0625 0.4375 4 1 C2.04594482 2.50587739 0.08718716 4.00478644 -1.875 5.5 C-2.43058594 5.92925781 -2.98617188 6.35851562 -3.55859375 6.80078125 C-7.7734375 10 -7.7734375 10 -10 10 C-9.67 8.35 -9.34 6.7 -9 5 C-7.02 5.495 -7.02 5.495 -5 6 C-5 5.34 -5 4.68 -5 4 C-4.01 4 -3.02 4 -2 4 C-1.67 3.01 -1.34 2.02 -1 1 C-0.67 0.67 -0.34 0.34 0 0 Z " fill="#FEE81C" transform="translate(421,355)"/>
<path d="M0 0 C0.99 0.33 1.98 0.66 3 1 C2.74213573 7.52396607 2.17832479 11.87818251 -2 17 C-3.15049408 13.54851775 -2.81766391 12.89400468 -1.5625 9.625 C-0.35964253 6.2734017 0.34883384 3.60461639 0 0 Z " fill="#FEE41E" transform="translate(366,305)"/>
<path d="M0 0 C0.99 0.495 0.99 0.495 2 1 C2 2.65 2 4.3 2 6 C2.99 5.67 3.98 5.34 5 5 C4.979375 6.03125 4.95875 7.0625 4.9375 8.125 C4.99276661 11.55152969 5.34550715 14.64572414 6 18 C3.52621876 15.52621876 2.96861769 13.43825655 1.875 10.125 C1.52179688 9.07570313 1.16859375 8.02640625 0.8046875 6.9453125 C0 4 0 4 0 0 Z " fill="#CD3905" transform="translate(499,324)"/>
<path d="M0 0 C5.40838443 3.56879789 10.74979781 7.20198139 16 11 C15.01 11.33 14.02 11.66 13 12 C11.09765625 10.85546875 11.09765625 10.85546875 9.0625 9.1875 C6.98946228 7.50590293 5.26391742 6.11431717 2.80859375 5.05078125 C1 4 1 4 0.25 1.875 C0.1675 1.25625 0.085 0.6375 0 0 Z " fill="#C94103" transform="translate(340,287)"/>
<path d="M0 0 C1.13732426 3.40401948 0.83989957 5.77456664 0.0625 9.25 C-0.13214844 10.14203125 -0.32679688 11.0340625 -0.52734375 11.953125 C-0.68332031 12.62859375 -0.83929688 13.3040625 -1 14 C-1.66 14 -2.32 14 -3 14 C-3.66 15.32 -4.32 16.64 -5 18 C-3.9007105 11.68878497 -2.41862058 5.93661416 0 0 Z " fill="#FDDD23" transform="translate(344,378)"/>
<path d="M0 0 C1.18771723 3.42943519 0.80226223 5.37784675 -0.4375 8.75 C-0.86869141 9.94882813 -0.86869141 9.94882813 -1.30859375 11.171875 C-1.53675781 11.77515625 -1.76492188 12.3784375 -2 13 C-4.03125 9.3359375 -4.03125 9.3359375 -3.75 6.3125 C-3.5025 5.549375 -3.255 4.78625 -3 4 C-2.34 3.67 -1.68 3.34 -1 3 C-0.67 2.01 -0.34 1.02 0 0 Z " fill="#D03906" transform="translate(416,152)"/>
<path d="M0 0 C1.32 0.66 2.64 1.32 4 2 C4 2.33 4 2.66 4 3 C2.3603125 3.4021875 2.3603125 3.4021875 0.6875 3.8125 C-2.61692663 4.87663739 -3.94960422 5.34654664 -6 8 C-6.99 7.67 -7.98 7.34 -9 7 C-6.03 4.69 -3.06 2.38 0 0 Z " fill="#CD4B03" transform="translate(429,352)"/>
<path d="M0 0 C4.455 0.99 4.455 0.99 9 2 C9.33 3.65 9.66 5.3 10 7 C5.56541027 5.6062718 3.12621626 3.39417765 0 0 Z " fill="#FDDE1D" transform="translate(494,398)"/>
<path d="M0 0 C0.66 0.33 1.32 0.66 2 1 C0.54634731 2.17249353 -0.91307419 3.33783816 -2.375 4.5 C-3.18710937 5.1496875 -3.99921875 5.799375 -4.8359375 6.46875 C-7 8 -7 8 -9 8 C-9 7.01 -9 6.02 -9 5 C-8.195625 4.71125 -7.39125 4.4225 -6.5625 4.125 C-3.8673532 3.26737432 -3.8673532 3.26737432 -3 1 C-2.01 0.67 -1.02 0.34 0 0 Z " fill="#FEE21D" transform="translate(528,279)"/>
<path d="M0 0 C2.45823172 3.68734758 3.01242616 6.69699971 4 11 C0.125 9.25 0.125 9.25 -1 7 C-0.34 7 0.32 7 1 7 C0.67 4.69 0.34 2.38 0 0 Z " fill="#FCC22F" transform="translate(527,414)"/>
<path d="M0 0 C4.43458973 1.3937282 6.87378374 3.60582235 10 7 C6.00118212 6.38479725 3.19641774 4.39731331 0 2 C0 1.34 0 0.68 0 0 Z " fill="#C94704" transform="translate(484,392)"/>
<path d="M0 0 C0.33 0 0.66 0 1 0 C1.19294408 4.82360189 0.75747614 8.49646738 -1 13 C-1.33 13 -1.66 13 -2 13 C-2.19294408 8.17639811 -1.75747614 4.50353262 0 0 Z " fill="#CC3C07" transform="translate(349,355)"/>
<path d="M0 0 C2.64 1.65 5.28 3.3 8 5 C6.68 5.33 5.36 5.66 4 6 C1.75 4.1875 1.75 4.1875 0 2 C0 1.34 0 0.68 0 0 Z " fill="#CD4609" transform="translate(456,371)"/>
<path d="M0 0 C1.32 0.33 2.64 0.66 4 1 C1.69 2.65 -0.62 4.3 -3 6 C-3.33 5.34 -3.66 4.68 -4 4 C-3.34 4 -2.68 4 -2 4 C-2 3.34 -2 2.68 -2 2 C-1.34 2 -0.68 2 0 2 C0 1.34 0 0.68 0 0 Z " fill="#FDDD1D" transform="translate(377,387)"/>
<path d="M0 0 C2.31 0.66 4.62 1.32 7 2 C7 2.99 7 3.98 7 5 C3.34683329 3.75023244 2.21934164 3.32901247 0 0 Z " fill="#FEE519" transform="translate(453,368)"/>
<path d="M0 0 C0.66 0.66 1.32 1.32 2 2 C1.96712417 4.72869407 1.43602229 7.2966618 1 10 C0.67 10 0.34 10 0 10 C-1.125 2.25 -1.125 2.25 0 0 Z " fill="#CD3B0E" transform="translate(363,309)"/>
</svg>
