<?xml version="1.0" encoding="UTF-8"?>
<svg version="1.1" xmlns="http://www.w3.org/2000/svg" width="1024" height="1024">
<path d="M0 0 C1.62533095 -0.00239283 3.2506608 -0.00565993 4.87598845 -0.0097166 C9.33761679 -0.01831951 13.79916076 -0.01451725 18.26079035 -0.00866088 C23.11657686 -0.00448576 27.97234811 -0.01189526 32.8281309 -0.01781338 C41.33711022 -0.02657525 49.84606547 -0.02788754 58.35504818 -0.02431011 C71.00832435 -0.01900433 83.66157721 -0.02509716 96.31485085 -0.03339304 C120.22782618 -0.04863993 144.14079093 -0.05033741 168.0537701 -0.04787002 C186.51830329 -0.04603793 204.98283301 -0.04779519 223.44736576 -0.05209446 C226.09939601 -0.05269686 228.75142626 -0.05329806 231.40345651 -0.05389806 C236.39662408 -0.05503076 236.39662408 -0.05503076 241.38979166 -0.05617132 C279.21650849 -0.06484351 317.04322401 -0.06948886 354.86994171 -0.06522369 C355.92042147 -0.06510661 355.92042147 -0.06510661 356.99212304 -0.06498716 C364.80127195 -0.06411437 372.61042086 -0.06318511 380.41956977 -0.06223653 C381.12460867 -0.06215102 381.82964758 -0.06206551 382.55605129 -0.06197741 C388.41402645 -0.06126665 388.41402645 -0.06126665 391.10974105 -0.06093518 C436.20620601 -0.05539942 481.30265049 -0.06294184 526.39911175 -0.08170605 C537.76235894 -0.08642833 549.12560615 -0.09110888 560.48885345 -0.09554291 C561.18855179 -0.09581623 561.88825013 -0.09608955 562.60915145 -0.09637116 C584.17705831 -0.1047435 605.74496346 -0.10942221 627.31287193 -0.11025047 C627.99008923 -0.11027684 628.66730653 -0.11030321 629.36504556 -0.11033037 C644.23209253 -0.11087117 659.09913935 -0.11049865 673.96618628 -0.10929066 C679.94806177 -0.10881207 685.92993728 -0.10841639 691.91181278 -0.10803318 C693.87481963 -0.10789708 693.87481963 -0.10789708 695.87748317 -0.10775824 C715.64185234 -0.10659177 735.40620908 -0.11324428 755.17057514 -0.1238451 C777.64535938 -0.13588732 800.12011624 -0.13746731 822.59490088 -0.12505493 C835.17400526 -0.11841884 847.7530442 -0.1200747 860.33214336 -0.13364345 C868.73450233 -0.14187656 877.13681219 -0.13920519 885.53916715 -0.12766818 C890.32657012 -0.12140054 895.11384525 -0.11983997 899.90124092 -0.13153151 C904.26152914 -0.14208198 908.62158139 -0.13868008 912.98185704 -0.12442699 C914.54451229 -0.12171167 916.10718662 -0.12395284 917.66982384 -0.13193413 C933.09022207 -0.20528235 946.86881632 1.20152654 958.71625042 11.91463184 C967.45606386 21.29773104 970.20211087 33.05336273 970.13478851 45.5118885 C970.13799499 46.40338576 970.14120147 47.29488301 970.14450511 48.21339533 C970.15278729 51.19202421 970.14688703 54.17045107 970.14100933 57.14908314 C970.14403082 59.30969506 970.14792029 61.47030591 970.1526019 63.63091487 C970.16289091 69.56185646 970.16069775 75.49273767 970.1564213 81.42368424 C970.15395573 87.82259501 970.16296617 94.22149118 970.17045879 100.62039661 C970.18321257 113.15424635 970.18500444 125.68807403 970.18265853 138.22192911 C970.18082504 148.40944846 970.18258666 158.59696153 970.18688297 168.78448009 C970.18748538 170.24872778 970.18808658 171.71297546 970.18868658 173.17722314 C970.18959384 175.38377869 970.19050251 177.59033424 970.19141893 179.79688979 C970.19984726 200.30968028 970.20418499 220.82246841 970.20001221 241.33526039 C970.19985583 242.1083824 970.19969946 242.88150441 970.19953834 243.67805436 C970.19873257 247.5964332 970.1978868 251.51481203 970.19702504 255.43319086 C970.19685395 256.21137582 970.19668286 256.98956078 970.19650659 257.7913271 C970.19615993 259.36500578 970.1958114 260.93868447 970.195461 262.51236316 C970.19010417 286.99713428 970.19803364 311.48186939 970.21649456 335.9666338 C970.23721762 363.48381994 970.24793668 391.00098378 970.24391907 418.51817816 C970.24352374 421.45312671 970.24316219 424.38807525 970.24282169 427.3230238 C970.2426856 428.4069887 970.2426856 428.4069887 970.24254675 429.51285189 C970.24138152 440.41462356 970.24802342 451.31637267 970.25863361 462.21813869 C970.27069071 474.61912771 970.27196074 487.02005762 970.25984345 499.42104844 C970.25394947 505.74753953 970.25286981 512.07393362 970.26484585 518.40041828 C970.2756864 524.19442344 970.27262285 529.98825039 970.25858416 535.78224715 C970.25593222 537.8757174 970.25831935 539.96920153 970.26632003 542.06265817 C970.32419533 558.33901277 969.67125091 572.38077505 958.22015667 585.09822559 C946.20300314 596.23468939 931.26483435 596.55670553 915.7522459 596.50615788 C914.12600724 596.50824687 912.49976951 596.51121138 910.87353384 596.51496661 C906.40940364 596.52274129 901.94536017 596.51810183 897.48123141 596.5114107 C892.62278036 596.50633259 887.7643425 596.51285901 882.90589333 596.51789737 C874.39232179 596.52511992 865.87877561 596.5249021 857.3652029 596.51980305 C844.70526184 596.51224119 832.0453422 596.51610396 819.38540128 596.52221966 C796.77536782 596.5327553 774.16534565 596.5318367 751.55531111 596.52606184 C731.76902103 596.52103293 711.9827351 596.51971629 692.19644451 596.52210712 C690.22858815 596.52233628 690.22858815 596.52233628 688.22097712 596.52257006 C682.89567918 596.52319273 677.57038124 596.52382834 672.2450833 596.52448959 C657.35881934 596.52632358 642.47255537 596.5274648 627.58629131 596.52806187 C626.90841516 596.52808916 626.23053901 596.52811645 625.53212116 596.52814457 C603.93316268 596.52896308 582.33420564 596.52670956 560.73524761 596.52236271 C560.03474045 596.52222221 559.33423329 596.52208171 558.61249864 596.52193696 C547.23683091 596.51964708 535.86116322 596.51720815 524.48549552 596.51475661 C479.36872495 596.50504399 434.25196625 596.5054948 389.13519573 596.51521778 C377.76525658 596.51766018 366.39531742 596.52008228 355.02537823 596.52236271 C354.32528261 596.52250361 353.625187 596.5226445 352.90387636 596.52278967 C331.32736223 596.52710225 309.75084908 596.52893055 288.17433453 596.52806187 C287.49695662 596.5280347 286.81957872 596.52800753 286.12167421 596.52797954 C271.25192828 596.52735457 256.38218245 596.52608728 241.51243661 596.52424086 C235.52968486 596.52350065 229.54693309 596.52280381 223.56418133 596.52210712 C221.60087108 596.52186989 221.60087108 596.52186989 219.597898 596.52162787 C199.82288376 596.51935185 180.04787413 596.52201546 160.27286053 596.52706623 C137.79030906 596.53277986 115.30777066 596.53136551 92.82522082 596.52050474 C80.23883416 596.51462533 67.65247579 596.5142587 55.06608985 596.52179709 C46.66270561 596.52627556 38.25934411 596.52350211 29.85596325 596.51478755 C25.06553461 596.51002231 20.27516227 596.50841932 15.48473537 596.51559952 C11.12523524 596.52206728 6.76584129 596.51930492 2.40634887 596.5092382 C0.8405986 596.50722691 -0.72516049 596.50854811 -2.29090373 596.51365007 C-17.8415409 596.56071866 -31.4884011 595.32943357 -43.30328083 584.25447559 C-55.06422523 571.30479058 -54.55787751 555.42500815 -54.50063801 538.9991045 C-54.50409778 536.83590236 -54.50886448 534.67270198 -54.51481974 532.50950527 C-54.52731539 526.58531188 -54.5211658 520.66126392 -54.51186109 514.73707008 C-54.5050651 508.34025378 -54.51555456 501.94346225 -54.52380085 495.54665089 C-54.53636439 483.74651295 -54.5352835 471.94642661 -54.52706644 460.14628619 C-54.51951221 449.2441323 -54.5175532 438.34199533 -54.52113438 427.43983936 C-54.52136353 426.71596002 -54.52159269 425.99208068 -54.52182879 425.24626561 C-54.52276284 422.30761587 -54.52371805 419.36896614 -54.52470808 416.43031643 C-54.53387985 388.87781342 -54.525573 361.32533983 -54.50941739 333.77284136 C-54.49518115 309.30771931 -54.49645506 284.84264411 -54.51080036 260.37752247 C-54.5268731 232.87459501 -54.53322932 205.37169352 -54.52396357 177.86876202 C-54.52300146 174.93554529 -54.52206293 172.00232856 -54.52113438 169.06911182 C-54.52089714 168.34690805 -54.52065991 167.62470428 -54.52041549 166.88061555 C-54.51700672 155.98677546 -54.52098709 145.09295418 -54.52857304 134.19911671 C-54.53715791 121.80917598 -54.53470297 109.41929842 -54.5187308 97.02936316 C-54.51085128 90.70892957 -54.50775121 84.38859101 -54.51767826 78.06815815 C-54.52663204 72.27981968 -54.52168079 66.49166413 -54.5057456 60.7033422 C-54.50240074 58.61198219 -54.50408522 56.52060666 -54.51137297 54.42925668 C-54.56370684 38.16026285 -53.90490474 24.12182321 -42.45953083 11.41072559 C-30.44520063 0.27687822 -15.50931158 -0.04758758 0 0 Z " fill="#B6F0B3" transform="translate(54.1196870803833,213.7455244064331)"/>
<path d="M0 0 C0.80727539 0.26184082 1.61455078 0.52368164 2.44628906 0.79345703 C13.68320248 4.45841297 24.45590201 8.64946567 35 14 C35.69222656 14.34820801 36.38445312 14.69641602 37.09765625 15.05517578 C65.88827408 29.62430998 92.08407131 50.53025105 112 76 C112.77730469 76.94875 113.55460937 77.8975 114.35546875 78.875 C137.6020269 107.85004227 152.34383926 143.62998882 159 180 C159.18546387 181.00248779 159.37092773 182.00497559 159.56201172 183.0378418 C161.28956085 193.53335775 161.4001047 203.94785901 161.375 214.5625 C161.3737915 215.50786621 161.37258301 216.45323242 161.37133789 217.42724609 C161.21233168 263.44597085 148.72260867 310.5251693 121 348 C120.24460937 349.02609375 119.48921875 350.0521875 118.7109375 351.109375 C106.2222628 367.80531642 92.45307275 383.13461117 76 396 C75.05125 396.77730469 74.1025 397.55460937 73.125 398.35546875 C45.20786844 420.75326945 10.94501196 435.18502523 -24 442 C-25.31991943 442.26731934 -25.31991943 442.26731934 -26.66650391 442.54003906 C-54.12310719 447.8770484 -86.88879687 447.77060312 -114 441 C-115.52415527 440.6299585 -115.52415527 440.6299585 -117.07910156 440.25244141 C-159.3600992 429.77544944 -195.49978266 408.8637035 -227 379 C-228.13115234 377.93265625 -228.13115234 377.93265625 -229.28515625 376.84375 C-234.6737601 371.6158401 -239.34210879 365.87874083 -244 360 C-245.17369141 358.56914063 -245.17369141 358.56914063 -246.37109375 357.109375 C-268.7507729 329.17953542 -283.1847185 294.94658475 -290 260 C-290.17821289 259.12005371 -290.35642578 258.24010742 -290.54003906 257.33349609 C-295.88927166 229.8140094 -295.67718254 197.18639769 -289 170 C-288.78569336 169.08637695 -288.57138672 168.17275391 -288.35058594 167.23144531 C-283.6665705 147.56130772 -276.61730802 128.78321626 -267 111 C-266.68595215 110.41202637 -266.3719043 109.82405273 -266.04833984 109.21826172 C-251.76168139 82.64996005 -231.73952769 58.60841226 -208 40 C-207.10925781 39.29230469 -206.21851563 38.58460938 -205.30078125 37.85546875 C-178.29317449 16.94999908 -147.29738555 2.46776883 -114 -5 C-112.77941895 -5.29414795 -112.77941895 -5.29414795 -111.53417969 -5.59423828 C-76.3884131 -13.85072552 -34.15537502 -11.3876743 0 0 Z " fill="#57DF4D" transform="translate(578,294)"/>
<path d="M0 0 C1.62533095 -0.00239283 3.2506608 -0.00565993 4.87598845 -0.0097166 C9.33761679 -0.01831951 13.79916076 -0.01451725 18.26079035 -0.00866088 C23.11657686 -0.00448576 27.97234811 -0.01189526 32.8281309 -0.01781338 C41.33711022 -0.02657525 49.84606547 -0.02788754 58.35504818 -0.02431011 C71.00832435 -0.01900433 83.66157721 -0.02509716 96.31485085 -0.03339304 C120.22782618 -0.04863993 144.14079093 -0.05033741 168.0537701 -0.04787002 C186.51830329 -0.04603793 204.98283301 -0.04779519 223.44736576 -0.05209446 C226.09939601 -0.05269686 228.75142626 -0.05329806 231.40345651 -0.05389806 C236.39662408 -0.05503076 236.39662408 -0.05503076 241.38979166 -0.05617132 C279.21650849 -0.06484351 317.04322401 -0.06948886 354.86994171 -0.06522369 C355.92042147 -0.06510661 355.92042147 -0.06510661 356.99212304 -0.06498716 C364.80127195 -0.06411437 372.61042086 -0.06318511 380.41956977 -0.06223653 C381.12460867 -0.06215102 381.82964758 -0.06206551 382.55605129 -0.06197741 C388.41402645 -0.06126665 388.41402645 -0.06126665 391.10974105 -0.06093518 C436.20620601 -0.05539942 481.30265049 -0.06294184 526.39911175 -0.08170605 C537.76235894 -0.08642833 549.12560615 -0.09110888 560.48885345 -0.09554291 C561.18855179 -0.09581623 561.88825013 -0.09608955 562.60915145 -0.09637116 C584.17705831 -0.1047435 605.74496346 -0.10942221 627.31287193 -0.11025047 C627.99008923 -0.11027684 628.66730653 -0.11030321 629.36504556 -0.11033037 C644.23209253 -0.11087117 659.09913935 -0.11049865 673.96618628 -0.10929066 C679.94806177 -0.10881207 685.92993728 -0.10841639 691.91181278 -0.10803318 C693.87481963 -0.10789708 693.87481963 -0.10789708 695.87748317 -0.10775824 C715.64185234 -0.10659177 735.40620908 -0.11324428 755.17057514 -0.1238451 C777.64535938 -0.13588732 800.12011624 -0.13746731 822.59490088 -0.12505493 C835.17400526 -0.11841884 847.7530442 -0.1200747 860.33214336 -0.13364345 C868.73450233 -0.14187656 877.13681219 -0.13920519 885.53916715 -0.12766818 C890.32657012 -0.12140054 895.11384525 -0.11983997 899.90124092 -0.13153151 C904.26152914 -0.14208198 908.62158139 -0.13868008 912.98185704 -0.12442699 C914.54451229 -0.12171167 916.10718662 -0.12395284 917.66982384 -0.13193413 C933.09022207 -0.20528235 946.86881632 1.20152654 958.71625042 11.91463184 C967.45606386 21.29773104 970.20211087 33.05336273 970.13478851 45.5118885 C970.13799499 46.40338576 970.14120147 47.29488301 970.14450511 48.21339533 C970.15278729 51.19202421 970.14688703 54.17045107 970.14100933 57.14908314 C970.14403082 59.30969506 970.14792029 61.47030591 970.1526019 63.63091487 C970.16289091 69.56185646 970.16069775 75.49273767 970.1564213 81.42368424 C970.15395573 87.82259501 970.16296617 94.22149118 970.17045879 100.62039661 C970.18321257 113.15424635 970.18500444 125.68807403 970.18265853 138.22192911 C970.18082504 148.40944846 970.18258666 158.59696153 970.18688297 168.78448009 C970.18748538 170.24872778 970.18808658 171.71297546 970.18868658 173.17722314 C970.18959384 175.38377869 970.19050251 177.59033424 970.19141893 179.79688979 C970.19984726 200.30968028 970.20418499 220.82246841 970.20001221 241.33526039 C970.19985583 242.1083824 970.19969946 242.88150441 970.19953834 243.67805436 C970.19873257 247.5964332 970.1978868 251.51481203 970.19702504 255.43319086 C970.19685395 256.21137582 970.19668286 256.98956078 970.19650659 257.7913271 C970.19615993 259.36500578 970.1958114 260.93868447 970.195461 262.51236316 C970.19010417 286.99713428 970.19803364 311.48186939 970.21649456 335.9666338 C970.23721762 363.48381994 970.24793668 391.00098378 970.24391907 418.51817816 C970.24352374 421.45312671 970.24316219 424.38807525 970.24282169 427.3230238 C970.2426856 428.4069887 970.2426856 428.4069887 970.24254675 429.51285189 C970.24138152 440.41462356 970.24802342 451.31637267 970.25863361 462.21813869 C970.27069071 474.61912771 970.27196074 487.02005762 970.25984345 499.42104844 C970.25394947 505.74753953 970.25286981 512.07393362 970.26484585 518.40041828 C970.2756864 524.19442344 970.27262285 529.98825039 970.25858416 535.78224715 C970.25593222 537.8757174 970.25831935 539.96920153 970.26632003 542.06265817 C970.32419533 558.33901277 969.67125091 572.38077505 958.22015667 585.09822559 C946.20300314 596.23468939 931.26483435 596.55670553 915.7522459 596.50615788 C914.12600724 596.50824687 912.49976951 596.51121138 910.87353384 596.51496661 C906.40940364 596.52274129 901.94536017 596.51810183 897.48123141 596.5114107 C892.62278036 596.50633259 887.7643425 596.51285901 882.90589333 596.51789737 C874.39232179 596.52511992 865.87877561 596.5249021 857.3652029 596.51980305 C844.70526184 596.51224119 832.0453422 596.51610396 819.38540128 596.52221966 C796.77536782 596.5327553 774.16534565 596.5318367 751.55531111 596.52606184 C731.76902103 596.52103293 711.9827351 596.51971629 692.19644451 596.52210712 C690.22858815 596.52233628 690.22858815 596.52233628 688.22097712 596.52257006 C682.89567918 596.52319273 677.57038124 596.52382834 672.2450833 596.52448959 C657.35881934 596.52632358 642.47255537 596.5274648 627.58629131 596.52806187 C626.90841516 596.52808916 626.23053901 596.52811645 625.53212116 596.52814457 C603.93316268 596.52896308 582.33420564 596.52670956 560.73524761 596.52236271 C560.03474045 596.52222221 559.33423329 596.52208171 558.61249864 596.52193696 C547.23683091 596.51964708 535.86116322 596.51720815 524.48549552 596.51475661 C479.36872495 596.50504399 434.25196625 596.5054948 389.13519573 596.51521778 C377.76525658 596.51766018 366.39531742 596.52008228 355.02537823 596.52236271 C354.32528261 596.52250361 353.625187 596.5226445 352.90387636 596.52278967 C331.32736223 596.52710225 309.75084908 596.52893055 288.17433453 596.52806187 C287.49695662 596.5280347 286.81957872 596.52800753 286.12167421 596.52797954 C271.25192828 596.52735457 256.38218245 596.52608728 241.51243661 596.52424086 C235.52968486 596.52350065 229.54693309 596.52280381 223.56418133 596.52210712 C221.60087108 596.52186989 221.60087108 596.52186989 219.597898 596.52162787 C199.82288376 596.51935185 180.04787413 596.52201546 160.27286053 596.52706623 C137.79030906 596.53277986 115.30777066 596.53136551 92.82522082 596.52050474 C80.23883416 596.51462533 67.65247579 596.5142587 55.06608985 596.52179709 C46.66270561 596.52627556 38.25934411 596.52350211 29.85596325 596.51478755 C25.06553461 596.51002231 20.27516227 596.50841932 15.48473537 596.51559952 C11.12523524 596.52206728 6.76584129 596.51930492 2.40634887 596.5092382 C0.8405986 596.50722691 -0.72516049 596.50854811 -2.29090373 596.51365007 C-17.8415409 596.56071866 -31.4884011 595.32943357 -43.30328083 584.25447559 C-55.06422523 571.30479058 -54.55787751 555.42500815 -54.50063801 538.9991045 C-54.50409778 536.83590236 -54.50886448 534.67270198 -54.51481974 532.50950527 C-54.52731539 526.58531188 -54.5211658 520.66126392 -54.51186109 514.73707008 C-54.5050651 508.34025378 -54.51555456 501.94346225 -54.52380085 495.54665089 C-54.53636439 483.74651295 -54.5352835 471.94642661 -54.52706644 460.14628619 C-54.51951221 449.2441323 -54.5175532 438.34199533 -54.52113438 427.43983936 C-54.52136353 426.71596002 -54.52159269 425.99208068 -54.52182879 425.24626561 C-54.52276284 422.30761587 -54.52371805 419.36896614 -54.52470808 416.43031643 C-54.53387985 388.87781342 -54.525573 361.32533983 -54.50941739 333.77284136 C-54.49518115 309.30771931 -54.49645506 284.84264411 -54.51080036 260.37752247 C-54.5268731 232.87459501 -54.53322932 205.37169352 -54.52396357 177.86876202 C-54.52300146 174.93554529 -54.52206293 172.00232856 -54.52113438 169.06911182 C-54.52089714 168.34690805 -54.52065991 167.62470428 -54.52041549 166.88061555 C-54.51700672 155.98677546 -54.52098709 145.09295418 -54.52857304 134.19911671 C-54.53715791 121.80917598 -54.53470297 109.41929842 -54.5187308 97.02936316 C-54.51085128 90.70892957 -54.50775121 84.38859101 -54.51767826 78.06815815 C-54.52663204 72.27981968 -54.52168079 66.49166413 -54.5057456 60.7033422 C-54.50240074 58.61198219 -54.50408522 56.52060666 -54.51137297 54.42925668 C-54.56370684 38.16026285 -53.90490474 24.12182321 -42.45953083 11.41072559 C-30.44520063 0.27687822 -15.50931158 -0.04758758 0 0 Z M51.88031292 35.25447559 C48.41531292 45.15447559 48.41531292 45.15447559 44.88031292 55.25447559 C33.87348183 76.65664716 17.40952058 90.89312017 -5.11968708 99.25447559 C-9.73968708 100.57447559 -14.35968708 101.89447559 -19.11968708 103.25447559 C-19.11968708 231.95447559 -19.11968708 360.65447559 -19.11968708 493.25447559 C-13.67468708 494.73947559 -13.67468708 494.73947559 -8.11968708 496.25447559 C14.46421971 503.62263289 32.93498771 517.98337188 43.88031292 539.25447559 C47.19944777 546.38953553 49.71765871 553.68518585 51.88031292 561.25447559 C319.84031292 561.25447559 587.80031292 561.25447559 863.88031292 561.25447559 C865.86031292 555.31447559 867.84031292 549.37447559 869.88031292 543.25447559 C881.6205452 520.53144537 898.43907579 504.43044499 922.88031292 496.25447559 C928.82031292 494.76947559 928.82031292 494.76947559 934.88031292 493.25447559 C934.88031292 364.55447559 934.88031292 235.85447559 934.88031292 103.25447559 C929.93031292 101.93447559 924.98031292 100.61447559 919.88031292 99.25447559 C916.9341702 98.031455 914.2770715 96.87546889 911.50531292 95.37947559 C910.83596722 95.02925343 910.16662151 94.67903126 909.47699261 94.3181963 C884.01906379 80.80101287 872.85103054 62.16662845 863.88031292 35.25447559 C595.92031292 35.25447559 327.96031292 35.25447559 51.88031292 35.25447559 Z " fill="#57DF4D" transform="translate(54.1196870803833,213.7455244064331)"/>
<path d="M0 0 C17.82 0 35.64 0 54 0 C54 6.93 54 13.86 54 21 C61.59 21 69.18 21 77 21 C77 30.57 77 40.14 77 50 C69.41 50 61.82 50 54 50 C54 122.6 54 195.2 54 270 C37.17 270 20.34 270 3 270 C2.67 261.42 2.34 252.84 2 244 C0.845 245.65 -0.31 247.3 -1.5 249 C-11.69654553 262.92873119 -24.57312784 272.23804019 -41.8425293 275.54418945 C-55.87475891 277.56987357 -71.8366367 277.62479999 -85 272 C-86.17433594 271.50242187 -87.34867187 271.00484375 -88.55859375 270.4921875 C-96.70275697 266.72255329 -103.37879566 262.02518758 -110 256 C-110.63292969 255.44828125 -111.26585937 254.8965625 -111.91796875 254.328125 C-130.3135428 237.32169041 -139.69987847 210.13935701 -141.20507812 185.66552734 C-141.30340086 182.12841729 -141.32865068 178.60092388 -141.3125 175.0625 C-141.30621582 173.16540283 -141.30621582 173.16540283 -141.29980469 171.22998047 C-141.16970445 160.29187244 -140.17403893 149.71791822 -138 139 C-137.86078125 138.31309082 -137.7215625 137.62618164 -137.578125 136.91845703 C-133.23382077 116.55955907 -123.50181915 99.71858775 -109 85 C-108.41605469 84.40316406 -107.83210938 83.80632812 -107.23046875 83.19140625 C-98.71060505 75.23234371 -87.15535742 69.91543041 -76 67 C-75.15566406 66.77570313 -74.31132812 66.55140625 -73.44140625 66.3203125 C-56.12993268 62.47331837 -35.43693905 64.20476755 -20.2578125 73.71875 C-13.00191756 78.78380685 -5.94230227 84.5865466 -1 92 C-0.67 78.14 -0.34 64.28 0 50 C-5.72150391 50.01740234 -5.72150391 50.01740234 -11.55859375 50.03515625 C-15.2354321 50.04294542 -18.91226954 50.04902298 -22.58911133 50.05493164 C-25.15291757 50.0599737 -27.71672091 50.06680714 -30.28051758 50.07543945 C-33.95655021 50.08751064 -37.63254498 50.09322942 -41.30859375 50.09765625 C-42.46274277 50.10281754 -43.61689178 50.10797882 -44.80601501 50.11329651 C-46.3975515 50.11340981 -46.3975515 50.11340981 -48.02124023 50.11352539 C-49.43021828 50.11685631 -49.43021828 50.11685631 -50.86766052 50.12025452 C-53 50 -53 50 -54 49 C-54.08767112 46.92737924 -54.10695873 44.85179706 -54.09765625 42.77734375 C-54.09515869 41.64288818 -54.09266113 40.50843262 -54.09008789 39.33959961 C-54.08098389 37.88690674 -54.07187988 36.43421387 -54.0625 34.9375 C-54.041875 30.338125 -54.02125 25.73875 -54 21 C-36.18 21 -18.36 21 0 21 C0 14.07 0 7.14 0 0 Z " fill="#B6F0B3" transform="translate(544,351)"/>
<path d="M0 0 C1.50983558 1.19129394 2.99028971 2.42086387 4.4375 3.6875 C5.20191406 4.33203125 5.96632813 4.9765625 6.75390625 5.640625 C16.17895581 14.25234541 23.71243634 26.84461812 24.57666016 39.76855469 C24.93763425 48.0940755 25.23304922 56.73765691 22.4375 64.6875 C22.1075 65.63882813 21.7775 66.59015625 21.4375 67.5703125 C18.76807243 74.57755988 15.43559974 80.11670133 10.4375 85.6875 C9.81875 86.38746094 9.2 87.08742188 8.5625 87.80859375 C-1.48820949 98.52799963 -15.37256774 104.59333405 -30.03662109 105.23046875 C-46.77271939 105.3824424 -60.1628463 99.40702899 -72.24609375 88.0234375 C-84.63066373 75.53444451 -88.86313909 61.62242996 -88.87719727 44.36523438 C-88.65713312 30.04153255 -82.60678901 17.60145196 -72.6875 7.3125 C-52.56186506 -11.60257043 -23.43465543 -15.52636614 0 0 Z " fill="#57DF4D" transform="translate(915.5625,464.3125)"/>
<path d="M0 0 C2.72247611 1.90272502 5.21532238 3.90323438 7.703125 6.1015625 C8.41597656 6.69453125 9.12882812 7.2875 9.86328125 7.8984375 C18.55493066 15.7359942 26.11010263 28.52997337 26.84228516 40.34765625 C27.53281736 58.0089529 24.91026389 73.47376521 12.703125 87.1015625 C12.14625 87.72804688 11.589375 88.35453125 11.015625 89 C0.70237003 99.93396013 -12.65683404 105.24917054 -27.55078125 106.33984375 C-44.61253126 106.72257486 -57.6759794 100.99788533 -69.9765625 89.44921875 C-82.31739736 76.96295317 -86.71172952 63.15633253 -86.66552734 45.92114258 C-86.29194236 31.32247418 -80.07088956 18.81037399 -70.109375 8.2890625 C-50.48137266 -10.26929394 -23.27982008 -13.40520445 0 0 Z " fill="#57DF4D" transform="translate(170.296875,462.8984375)"/>
<path d="M0 0 C9.89394856 8.8454051 15.1403317 21.9813623 16.9375 34.875 C17.04835938 35.63941406 17.15921875 36.40382813 17.2734375 37.19140625 C19.68841182 57.00072265 18.42400648 80.33395918 5.81640625 96.7265625 C-2.18952065 105.88094876 -11.78233058 111.05943251 -23.99609375 112.1328125 C-34.58520606 112.51417309 -45.01739429 110.54492082 -53.29296875 103.55859375 C-65.19562682 92.23398971 -70.44359499 77.46932054 -71.18847656 61.10791016 C-71.72486996 39.47224466 -70.73443627 17.75762609 -55.25390625 0.90625 C-39.88486494 -13.6897007 -16.4853885 -11.438841 0 0 Z " fill="#57DF4D" transform="translate(528.0625,471.125)"/>
<path d="M0 0 C42.9 0 85.8 0 130 0 C130 9.24 130 18.48 130 28 C87.1 28 44.2 28 0 28 C0 18.76 0 9.52 0 0 Z " fill="#B6F1B3" transform="translate(447,645)"/>
</svg>
