<?xml version="1.0" encoding="UTF-8"?>
<svg version="1.1" xmlns="http://www.w3.org/2000/svg" width="239" height="239">
<path d="M0 0 C7.71124522 6.80655015 14.70349788 14.1382979 20 23 C20.66644531 24.10730469 21.33289063 25.21460938 22.01953125 26.35546875 C35.05243513 48.8797594 38.53502486 76.82434773 31.921875 102.02758789 C24.91721964 126.04057097 10.64693278 143.90629795 -11 156 C-11.66 156.33 -12.32 156.66 -13 157 C-5.88792823 157.29149397 0.47355323 156.57910828 7.375 154.875 C8.74265503 154.54701416 8.74265503 154.54701416 10.13793945 154.21240234 C16.60245792 152.57373677 22.1362207 150.39727382 27.91796875 147.0390625 C28.94857422 146.52472656 28.94857422 146.52472656 30 146 C30.66 146.33 31.32 146.66 32 147 C16.08612997 168.06906736 -14.11737172 174.02284571 -38.80859375 177.77734375 C-43.19540698 178.36316498 -47.58511049 178.70877797 -52 179 C-52.87205078 179.06558105 -53.74410156 179.13116211 -54.64257812 179.19873047 C-88.64269764 181.66190799 -132.1017075 179.58630098 -160.64453125 158 C-162.50010323 156.38815463 -164.28141446 154.75594609 -166 153 C-164 152 -164 152 -160.7265625 152.92578125 C-159.35779715 153.38332744 -157.99069739 153.84587623 -156.625 154.3125 C-149.81347882 156.55447147 -143.12982069 158.09526897 -136 159 C-136 158.01 -136 157.02 -136 156 C-134.35 156 -132.7 156 -131 156 C-130.67 157.32 -130.34 158.64 -130 160 C-129.01 160 -128.02 160 -127 160 C-126.67 159.01 -126.34 158.02 -126 157 C-125.34 157.33 -124.68 157.66 -124 158 C-124 158.99 -124 159.98 -124 161 C-122.68 160.67 -121.36 160.34 -120 160 C-122.98977633 156.33511289 -124.78125988 154.81088115 -129.5 154.0625 C-132.97422473 153.46230171 -134.64172884 152.82363525 -136.875 150.0625 C-137.926875 148.5465625 -137.926875 148.5465625 -139 147 C-139.98290968 145.98319689 -140.97334787 144.97261781 -142 144 C-142 144.66 -142 145.32 -142 146 C-143.32 146 -144.64 146 -146 146 C-145.7525 145.278125 -145.505 144.55625 -145.25 143.8125 C-144.68237589 140.84193994 -144.68237589 140.84193994 -146.875 138.3125 C-147.926875 137.1678125 -147.926875 137.1678125 -149 136 C-149.33 135.34 -149.66 134.68 -150 134 C-151.98 134.99 -151.98 134.99 -154 136 C-154 136.66 -154 137.32 -154 138 C-152.7934375 138.3403125 -152.7934375 138.3403125 -151.5625 138.6875 C-149 140 -149 140 -148 142.4375 C-148 145 -148 145 -149 146.875 C-152.10259257 148.62020832 -154.6273707 147.69997967 -158 147 C-158.66 144.69 -159.32 142.38 -160 140 C-160.804375 139.855625 -161.60875 139.71125 -162.4375 139.5625 C-165 139 -165 139 -166 138 C-166.3125 135.6875 -166.3125 135.6875 -166 133 C-164 130.6875 -164 130.6875 -162 129 C-163.134375 129.185625 -164.26875 129.37125 -165.4375 129.5625 C-167.2009375 129.7790625 -167.2009375 129.7790625 -169 130 C-170 129 -170 129 -170.0625 126.4375 C-170.041875 125.633125 -170.02125 124.82875 -170 124 C-166.75 123.25 -166.75 123.25 -163 123 C-160.5625 124.9375 -160.5625 124.9375 -159 127 C-159.33 127.99 -159.66 128.98 -160 130 C-159.34 130 -158.68 130 -158 130 C-157.67 130.66 -157.34 131.32 -157 132 C-155.02 132 -153.04 132 -151 132 C-151.804375 131.0925 -152.60875 130.185 -153.4375 129.25 C-155.41142671 126.89690092 -156.63877467 125.13061954 -157 122 C-157.99 122 -158.98 122 -160 122 C-160.268125 120.88625 -160.53625 119.7725 -160.8125 118.625 C-161.65809019 114.78159049 -161.65809019 114.78159049 -165 113 C-165.04596809 110.66711951 -165.03809016 108.33302241 -165 106 C-165.59550241 103.56482052 -166.26561345 101.14695611 -167 98.75 C-168.85067072 92.40042176 -169.49390342 86.59909846 -169 80 C-169.928125 79.731875 -170.85625 79.46375 -171.8125 79.1875 C-174.85350696 78.05457584 -176.08689172 77.51125314 -178 75 C-177.0499827 67.18787424 -173.76767482 60.3124323 -170.5625 53.1875 C-170.07201172 52.06923828 -169.58152344 50.95097656 -169.07617188 49.79882812 C-167.01724561 45.16693867 -165.11049765 41.01428301 -162 37 C-160.51277101 34.41123419 -159.20511846 31.73491749 -157.875 29.0625 C-157.33552734 28.00772461 -157.33552734 28.00772461 -156.78515625 26.93164062 C-154.97004368 23.30481456 -153.52599098 20.07244533 -153 16 C-156.37462715 16.54723683 -158.08235 17.0549 -161 19 C-162.98046875 18.94140625 -162.98046875 18.94140625 -165.1875 18.5625 C-168.92471752 18.04411176 -172.13614937 18.17090011 -175.890625 18.7265625 C-181.28692065 19.42608231 -186.15811551 20.03606003 -191 17.3125 C-193.92483992 13.93065385 -194.80963299 11.33256908 -195.4375 6.9375 C-195 4 -195 4 -193.1875 1.6875 C-188.467918 -0.81110224 -184.28885487 -0.86051372 -179 -1 C-178.25137695 -1.02578125 -177.50275391 -1.0515625 -176.73144531 -1.078125 C-152.69112235 -1.837393 -152.69112235 -1.837393 -144.43359375 3.73046875 C-142.12137 5.29136277 -142.12137 5.29136277 -139.92578125 4.41015625 C-137.83952223 2.88248991 -136.03812464 1.24432287 -134.1875 -0.5625 C-97.06423139 -34.04027579 -37.34963308 -31.03701904 0 0 Z " fill="#F8FCFD" transform="translate(203,44)"/>
<path d="M0 0 C7.71124522 6.80655015 14.70349788 14.1382979 20 23 C20.66644531 24.10730469 21.33289063 25.21460938 22.01953125 26.35546875 C35.05243513 48.8797594 38.53502486 76.82434773 31.921875 102.02758789 C26.83404961 119.46939747 16.41245021 138.72503319 1 149 C-1.1875 148.625 -1.1875 148.625 -3 148 C-2.484375 147.05125 -1.96875 146.1025 -1.4375 145.125 C0.57790762 140.3384069 0.43751727 135.95586064 -1 131 C-3.74893693 126.28258141 -6.77627086 123.65611561 -12 122 C-17.33918613 121.33163027 -21.67805051 121.31541901 -26.5 123.8125 C-28.89999535 125.78904594 -28.89999535 125.78904594 -30.25634766 127.54296875 C-32.7845943 129.6556229 -35.17636633 129.89762642 -38.3984375 130.5 C-39.68363281 130.7475 -40.96882813 130.995 -42.29296875 131.25 C-43.65354986 131.50052177 -45.01422755 131.75051964 -46.375 132 C-48.35396617 132.3726026 -50.33226481 132.74855487 -52.31036377 133.12573242 C-54.26609579 133.49860027 -56.22240307 133.8684466 -58.17871094 134.23828125 C-62.92282888 135.1839526 -67.61868774 136.29093326 -72.31494141 137.44921875 C-75 138 -75 138 -79 138 C-79.68359375 136.046875 -80.3671875 134.09375 -81.05078125 132.140625 C-82.08788267 129.80181192 -83.40124713 127.98836492 -85 126 C-84.15824219 125.98582031 -83.31648438 125.97164062 -82.44921875 125.95703125 C-73.19970789 125.60165025 -64.28846788 124.31590042 -55.1875 122.625 C-53.49016724 122.31139526 -53.49016724 122.31139526 -51.75854492 121.99145508 C-41.8167687 120.08709233 -32.16277647 117.63825498 -22.6875 114.0625 C-22.02427734 113.82337891 -21.36105469 113.58425781 -20.67773438 113.33789062 C-17.403788 112.11298868 -14.53062204 110.79414727 -11.64453125 108.80859375 C-9 107 -9 107 -7 107 C-6.72929687 106.41863281 -6.45859375 105.83726562 -6.1796875 105.23828125 C-5.0048224 103.00914979 -3.64898697 101.18921345 -2.125 99.1875 C5.03814556 88.35769775 5.61500319 75.71811935 5.41162109 63.14672852 C5.37486284 60.80375762 5.37060542 58.46237187 5.37109375 56.11914062 C5.91426808 42.01274005 5.91426808 42.01274005 1.73974609 29.12036133 C0.02987049 27.78089392 0.02987049 27.78089392 -2.24267578 28.10742188 C-5.6810954 29.22047855 -8.87984684 30.69356989 -12.1171875 32.28125 C-13.53158907 32.96141063 -14.94614609 33.64124808 -16.36083984 34.32080078 C-17.09759949 34.67692444 -17.83435913 35.0330481 -18.59344482 35.39996338 C-42.03425979 46.70179608 -66.01616389 57.41800539 -91.8125 61.9375 C-92.53542236 62.06624512 -93.25834473 62.19499023 -94.00317383 62.32763672 C-98.65065836 63.05355033 -102.43634554 62.8650064 -107 62 C-106.34 61.01 -105.68 60.02 -105 59 C-101.375 58.3125 -101.375 58.3125 -98 58 C-98 57.01 -98 56.02 -98 55 C-97.34 55 -96.68 55 -96 55 C-95.67 52.03 -95.34 49.06 -95 46 C-93.68 46 -92.36 46 -91 46 C-91 47.65 -91 49.3 -91 51 C-88.64632287 51.6878236 -88.64632287 51.6878236 -86 52 C-82.74665741 50.31238846 -82.74665741 50.31238846 -82.26953125 47.1796875 C-82.11871094 46.08914062 -81.96789062 44.99859375 -81.8125 43.875 C-81.57466797 42.23144531 -81.57466797 42.23144531 -81.33203125 40.5546875 C-81.22246094 39.71164063 -81.11289063 38.86859375 -81 38 C-77 38 -77 38 -74 40 C-73.3125 43.125 -73.3125 43.125 -73 46 C-70.03 45.01 -70.03 45.01 -67 44 C-65.17834369 35.9543513 -67.20339923 29.79299424 -71.32421875 22.73046875 C-77.40147012 14.02251679 -85.66493808 9.14680514 -96 7 C-103.20648375 6.46466121 -109.57363908 6.48368931 -116 10 C-117.13440778 12.57080135 -117.13440778 12.57080135 -117 15 C-117.33 15 -117.66 15 -118 15 C-118 11.7 -118 8.4 -118 5 C-105.54852574 1.44243593 -92.11370568 1.45004104 -80.41796875 7.2890625 C-69.4959611 13.4132467 -62.59546516 21.47113337 -58.9375 33.4375 C-58.65777344 34.46746094 -58.37804687 35.49742188 -58.08984375 36.55859375 C-57.24972236 39.14274204 -57.24972236 39.14274204 -55.00390625 39.97265625 C-54.34261719 39.98167969 -53.68132812 39.99070313 -53 40 C-50.53487828 37.53487828 -50.6213317 36.66750949 -50.5 33.25 C-50.74181646 21.71837734 -56.98367918 11.00198036 -65 3 C-71.80826186 -2.95576938 -79.465647 -6.20147232 -88 -9 C-88.61746094 -9.20367187 -89.23492187 -9.40734375 -89.87109375 -9.6171875 C-99.26115486 -11.30567555 -109.24179788 -10.70009438 -118 -7 C-119.65839874 -6.62770641 -121.32201275 -6.2706431 -123 -6 C-123.33 -5.01 -123.66 -4.02 -124 -3 C-126.76264289 -2.40267181 -129.16032769 -2 -132 -2 C-120.32882251 -12.37437999 -105.93937158 -18.11167041 -91 -22 C-90.05511719 -22.24621094 -89.11023438 -22.49242188 -88.13671875 -22.74609375 C-57.15755014 -29.2467876 -24.10422453 -20.03027109 0 0 Z " fill="#4891D9" transform="translate(203,44)"/>
<path d="M0 0 C10.25285923 7.293271 18.09098152 17.20939781 21.2734375 29.6171875 C22.36298352 39.01452194 22.36298352 39.01452194 19.99609375 42.49609375 C18.2734375 43.6171875 18.2734375 43.6171875 16.2109375 43.58984375 C13.51219888 42.23503343 13.23913711 40.87849664 12.2734375 38.0546875 C11.93699219 37.14589844 11.60054688 36.23710938 11.25390625 35.30078125 C10.93035156 34.41519531 10.60679687 33.52960938 10.2734375 32.6171875 C5.66891783 20.94222058 -2.43598678 14.11551492 -13.4921875 8.89453125 C-18.88329498 6.76543446 -23.72110902 6.45428705 -29.4765625 6.4921875 C-30.53520508 6.49508789 -30.53520508 6.49508789 -31.61523438 6.49804688 C-36.72573726 6.54028244 -41.67173593 6.89506942 -46.7265625 7.6171875 C-46.3965625 9.2671875 -46.0665625 10.9171875 -45.7265625 12.6171875 C-44.9840625 12.1428125 -44.2415625 11.6684375 -43.4765625 11.1796875 C-36.37330774 7.1437473 -27.25535793 7.68933895 -19.5390625 9.7421875 C-9.16413284 13.30596751 -2.04056711 20.01734416 3.0859375 29.5546875 C5.61802236 34.92924181 7.15424393 39.66019449 5.3984375 45.5546875 C4.2734375 47.6171875 4.2734375 47.6171875 3.2734375 48.6171875 C1.60726635 48.65782582 -0.06044345 48.6599085 -1.7265625 48.6171875 C-2.7165625 45.6471875 -2.7165625 45.6471875 -3.7265625 42.6171875 C-4.7165625 43.1121875 -4.7165625 43.1121875 -5.7265625 43.6171875 C-6.0565625 42.6271875 -6.3865625 41.6371875 -6.7265625 40.6171875 C-7.3865625 40.6171875 -8.0465625 40.6171875 -8.7265625 40.6171875 C-8.81292969 41.44863281 -8.89929688 42.28007813 -8.98828125 43.13671875 C-9.12878906 44.22339844 -9.26929688 45.31007812 -9.4140625 46.4296875 C-9.54167969 47.50863281 -9.66929688 48.58757812 -9.80078125 49.69921875 C-10.7265625 52.6171875 -10.7265625 52.6171875 -13.1640625 54.5546875 C-15.7265625 55.6171875 -15.7265625 55.6171875 -18.0390625 54.8046875 C-18.874375 54.216875 -18.874375 54.216875 -19.7265625 53.6171875 C-19.7265625 51.9671875 -19.7265625 50.3171875 -19.7265625 48.6171875 C-21.0465625 48.6171875 -22.3665625 48.6171875 -23.7265625 48.6171875 C-23.7059375 49.7309375 -23.6853125 50.8446875 -23.6640625 51.9921875 C-23.7265625 55.6171875 -23.7265625 55.6171875 -24.7265625 57.6171875 C-25.3865625 57.6171875 -26.0465625 57.6171875 -26.7265625 57.6171875 C-26.7265625 58.6071875 -26.7265625 59.5971875 -26.7265625 60.6171875 C-29.3665625 61.6071875 -32.0065625 62.5971875 -34.7265625 63.6171875 C-31.7565625 64.1121875 -31.7565625 64.1121875 -28.7265625 64.6171875 C-28.7265625 64.9471875 -28.7265625 65.2771875 -28.7265625 65.6171875 C-33.74264775 66.6348278 -38.51264556 66.73575184 -43.6015625 66.6796875 C-44.3853125 66.67517578 -45.1690625 66.67066406 -45.9765625 66.66601562 C-47.89326264 66.65432843 -49.80992298 66.63639658 -51.7265625 66.6171875 C-54.6761964 57.15325576 -57.28169388 47.66131971 -59.4765625 37.9921875 C-59.68692139 37.06905762 -59.89728027 36.14592773 -60.11401367 35.19482422 C-60.96355599 31.38178644 -61.71947563 27.67804753 -62.171875 23.79296875 C-62.78098454 20.30560213 -63.86709609 18.3325465 -65.8515625 15.4296875 C-68.77193998 11.15678496 -68.77193998 11.15678496 -68.546875 8.48046875 C-66.86492776 4.66004573 -63.89990476 2.20385863 -60.2265625 0.3671875 C-57.7265625 -0.3828125 -57.7265625 -0.3828125 -54.9765625 -0.8828125 C-54.2340625 -1.0478125 -53.4915625 -1.2128125 -52.7265625 -1.3828125 C-52.3965625 -2.0428125 -52.0665625 -2.7028125 -51.7265625 -3.3828125 C-49.7265625 -4.3203125 -49.7265625 -4.3203125 -46.7265625 -5.3828125 C-46.15421875 -5.64449219 -45.581875 -5.90617187 -44.9921875 -6.17578125 C-30.36447723 -12.21396398 -12.82785741 -8.34433443 0 0 Z " fill="#4991D8" transform="translate(131.7265625,41.3828125)"/>
<path d="M0 0 C2 1 2 1 2.75613403 3.08473206 C2.99403656 4.00495651 3.23193909 4.92518097 3.47705078 5.87329102 C3.75138947 6.91691299 4.02572815 7.96053497 4.30838013 9.03578186 C4.60106781 10.18026291 4.89375549 11.32474396 5.1953125 12.50390625 C5.66201859 14.28087135 5.66201859 14.28087135 6.13815308 16.09373474 C7.14145389 19.91468116 8.13483085 23.73813615 9.125 27.5625 C12.84197632 41.91633552 16.57253887 56.24095882 21.1796875 70.33984375 C21.48883087 71.30386612 21.79797424 72.26788849 22.1164856 73.26112366 C25.24082942 83.09525165 25.24082942 83.09525165 32.1569519 90.21617126 C32.76515778 90.47483475 33.37336365 90.73349823 34 91 C32.70078808 93.76841418 31.20415255 96.06112993 29.375 98.5 C26.06185242 103.76957597 26.12358702 108.96248836 27 115 C28.66182808 120.44513882 31.2540332 123.79647241 36 127 C37.32 127.99 38.64 128.98 40 130 C35.38 129.67 30.76 129.34 26 129 C26 128.34 26 127.68 26 127 C23.14224759 123.31257754 21.01280735 121.7932885 16.5 121.0625 C13.02577527 120.46230171 11.35827116 119.82363525 9.125 117.0625 C8.42375 116.051875 7.7225 115.04125 7 114 C6.01709032 112.98319689 5.02665213 111.97261781 4 111 C4 111.66 4 112.32 4 113 C2.68 113 1.36 113 0 113 C0.2475 112.278125 0.495 111.55625 0.75 110.8125 C1.31762411 107.84193994 1.31762411 107.84193994 -0.875 105.3125 C-1.926875 104.1678125 -1.926875 104.1678125 -3 103 C-3.495 102.01 -3.495 102.01 -4 101 C-5.98 101.99 -5.98 101.99 -8 103 C-8 103.66 -8 104.32 -8 105 C-7.195625 105.226875 -6.39125 105.45375 -5.5625 105.6875 C-3 107 -3 107 -2 109.4375 C-2 112 -2 112 -3 113.875 C-6.10259257 115.62020832 -8.6273707 114.69997967 -12 114 C-12.66 111.69 -13.32 109.38 -14 107 C-14.804375 106.855625 -15.60875 106.71125 -16.4375 106.5625 C-19 106 -19 106 -20 105 C-20.3125 102.6875 -20.3125 102.6875 -20 100 C-18 97.6875 -18 97.6875 -16 96 C-17.134375 96.185625 -18.26875 96.37125 -19.4375 96.5625 C-21.2009375 96.7790625 -21.2009375 96.7790625 -23 97 C-24 96 -24 96 -24.0625 93.4375 C-24.0315625 92.2309375 -24.0315625 92.2309375 -24 91 C-20.75 90.25 -20.75 90.25 -17 90 C-14.5625 91.9375 -14.5625 91.9375 -13 94 C-13.33 94.99 -13.66 95.98 -14 97 C-13.34 97 -12.68 97 -12 97 C-11.67 97.66 -11.34 98.32 -11 99 C-9.02 99 -7.04 99 -5 99 C-5.804375 98.0925 -6.60875 97.185 -7.4375 96.25 C-9.41142671 93.89690092 -10.63877467 92.13061954 -11 89 C-11.99 89 -12.98 89 -14 89 C-14.268125 87.88625 -14.53625 86.7725 -14.8125 85.625 C-15.65809019 81.78159049 -15.65809019 81.78159049 -19 80 C-19.04602475 77.66712063 -19.03805134 75.33302305 -19 73 C-19.59475897 70.54396408 -20.26473555 68.10519247 -21 65.6875 C-22.74040026 59.69237338 -23.52837092 54.2377123 -23 48 C-22.154375 48.144375 -21.30875 48.28875 -20.4375 48.4375 C-16.96403993 49.00588437 -13.48484074 49.50690125 -10 50 C-8.27313114 46.36282199 -6.58307274 42.71049098 -4.92480469 39.04150391 C-4.29248148 37.64565209 -3.65485803 36.25219241 -3.01269531 34.86083984 C-2.00711938 32.66645621 -1.03235028 30.46037361 -0.0625 28.25 C0.255979 27.56623291 0.57445801 26.88246582 0.90258789 26.17797852 C3.87142843 19.26338899 3.06265387 13.00769901 0.375 6.0625 C-0.4765625 3.84765625 -0.4765625 3.84765625 -1 2 C-0.67 1.34 -0.34 0.68 0 0 Z " fill="#4991D8" transform="translate(57,77)"/>
<path d="M0 0 C9.23820894 6.68510392 16.15420638 16.90479274 19 28 C20.08954602 37.39733444 20.08954602 37.39733444 17.72265625 40.87890625 C16 42 16 42 13.9375 41.97265625 C11.23876138 40.61784593 10.96569961 39.26130914 10 36.4375 C9.66355469 35.52871094 9.32710937 34.61992188 8.98046875 33.68359375 C8.65691406 32.79800781 8.33335937 31.91242188 8 31 C3.39548033 19.32503308 -4.70942428 12.49832742 -15.765625 7.27734375 C-21.13716753 5.15597369 -25.95328449 4.8377076 -31.6875 4.875 C-32.39140869 4.8762085 -33.09531738 4.87741699 -33.82055664 4.87866211 C-38.68465045 4.91485743 -43.45269378 5.22649115 -48.27734375 5.87890625 C-48.84582031 5.91886719 -49.41429688 5.95882812 -50 6 C-51.65766798 4.34233202 -51.21049503 2.39653595 -51.25 0.125 C-51.27578125 -0.75929688 -51.3015625 -1.64359375 -51.328125 -2.5546875 C-51 -5 -51 -5 -49.984375 -6.6953125 C-35.55562905 -16.18192893 -12.5293248 -8.91261249 0 0 Z " fill="#F6FBFD" transform="translate(134,43)"/>
<path d="M0 0 C0.33 0.66 0.66 1.32 1 2 C1.99 2.33 2.98 2.66 4 3 C4.984375 4.75 4.984375 4.75 5.75 7 C6.14445312 8.0828125 6.14445312 8.0828125 6.546875 9.1875 C8.03601987 18.43046819 4.19590864 26.15960712 0.5625 34.4375 C0.05912109 35.62021484 -0.44425781 36.80292969 -0.96289062 38.02148438 C-4.70622956 46.70622956 -4.70622956 46.70622956 -7 49 C-13.99365101 48.84796411 -22.20910583 45.99835184 -27.69677734 41.65795898 C-28.12684082 41.11083252 -28.5569043 40.56370605 -29 40 C-28.03899346 32.17803694 -24.79000426 25.2212399 -21.625 18.0625 C-20.90183594 16.3599707 -20.90183594 16.3599707 -20.1640625 14.62304688 C-19.6896875 13.54216797 -19.2153125 12.46128906 -18.7265625 11.34765625 C-18.08581787 9.87824585 -18.08581787 9.87824585 -17.43212891 8.37915039 C-15.83778701 5.7305207 -14.87403242 5.01211657 -12 4 C-10.34259285 3.62331656 -8.67654729 3.27942455 -7 3 C-6.34 5.31 -5.68 7.62 -5 10 C-3.68 10 -2.36 10 -1 10 C-1.20625 8.72125 -1.4125 7.4425 -1.625 6.125 C-1.9765625 3.9453125 -1.9765625 3.9453125 -2 2 C-1.34 1.34 -0.68 0.68 0 0 Z " fill="#F9FDFD" transform="translate(54,79)"/>
<path d="M0 0 C0.34611328 0.79664063 0.34611328 0.79664063 0.69921875 1.609375 C3.45998551 7.58921763 6.70684173 11.52087705 13 14 C14.99110401 14.38290462 16.99100513 14.72604615 19 15 C19 16.32 19 17.64 19 19 C-6.35386604 22.27558824 -31.4718702 22.3339809 -57 22 C-56.20126465 21.38125 -55.4025293 20.7625 -54.57958984 20.125 C-52.12598293 18.10378151 -51.12245724 16.71878762 -49.625 14 C-45.54957804 8.54597851 -40.16432229 7.82886147 -33.74023438 6.54785156 C-30.36671531 5.8733882 -27.00458493 5.15029298 -23.640625 4.4296875 C-2.80689293 0 -2.80689293 0 0 0 Z " fill="#4991D8" transform="translate(169,185)"/>
<path d="M0 0 C2.00720923 0.28674418 4.0085944 0.61866701 6 1 C6 2.98 6 4.96 6 7 C8.475 7.495 8.475 7.495 11 8 C11 9.32 11 10.64 11 12 C11.94875 11.938125 12.8975 11.87625 13.875 11.8125 C14.90625 11.874375 15.9375 11.93625 17 12 C19.2406646 15.3609969 19 16.16027144 19 20 C19.31710938 20.74894531 19.63421875 21.49789062 19.9609375 22.26953125 C21.13726999 25.36072075 21.40783889 28.0188899 21.625 31.3125 C21.69976562 32.38113281 21.77453125 33.44976562 21.8515625 34.55078125 C21.90054688 35.35902344 21.94953125 36.16726562 22 37 C21.01 37.33 20.02 37.66 19 38 C19 38.66 19 39.32 19 40 C11.19585527 39.96599501 11.19585527 39.96599501 8.39453125 37.703125 C7.18265932 36.19667498 6.08716869 34.59877749 5 33 C4.01709032 31.98319689 3.02665213 30.97261781 2 30 C2 30.66 2 31.32 2 32 C0.68 32 -0.64 32 -2 32 C-1.7525 31.278125 -1.505 30.55625 -1.25 29.8125 C-0.68237589 26.84193994 -0.68237589 26.84193994 -2.875 24.3125 C-3.57625 23.549375 -4.2775 22.78625 -5 22 C-5.33 21.34 -5.66 20.68 -6 20 C-7.98 20.99 -7.98 20.99 -10 22 C-10 22.66 -10 23.32 -10 24 C-9.195625 24.226875 -8.39125 24.45375 -7.5625 24.6875 C-5 26 -5 26 -4 28.4375 C-4 31 -4 31 -5 32.875 C-8.10259257 34.62020832 -10.6273707 33.69997967 -14 33 C-14.66 30.69 -15.32 28.38 -16 26 C-16.804375 25.855625 -17.60875 25.71125 -18.4375 25.5625 C-21 25 -21 25 -22 24 C-22.3125 21.6875 -22.3125 21.6875 -22 19 C-20 16.6875 -20 16.6875 -18 15 C-19.7015625 15.2784375 -19.7015625 15.2784375 -21.4375 15.5625 C-23.2009375 15.7790625 -23.2009375 15.7790625 -25 16 C-26 15 -26 15 -26.0625 12.4375 C-26.041875 11.633125 -26.02125 10.82875 -26 10 C-22.75 9.25 -22.75 9.25 -19 9 C-16.5625 10.9375 -16.5625 10.9375 -15 13 C-15.33 13.99 -15.66 14.98 -16 16 C-15.34 16 -14.68 16 -14 16 C-13.67 16.66 -13.34 17.32 -13 18 C-11.02 18 -9.04 18 -7 18 C-7.66 16.35 -8.32 14.7 -9 13 C-6.64031256 10.90250005 -5.45383006 10.03094296 -2.25 9.8125 C-1.5075 9.874375 -0.765 9.93625 0 10 C-0.350625 9.2575 -0.70125 8.515 -1.0625 7.75 C-2.04877778 4.85691852 -2.09422236 3.78529329 -1 1 C-0.67 0.67 -0.34 0.34 0 0 Z " fill="#5D98D2" transform="translate(59,158)"/>
<path d="M0 0 C7.774892 5.58478158 13.34603217 13.15339264 15.8515625 22.4921875 C16.51939892 26.60792357 16.24699291 29.58884633 14.25 33.25 C13.25 34.25 13.25 34.25 10.6875 34.3125 C9.883125 34.291875 9.07875 34.27125 8.25 34.25 C8.03085938 33.54875 7.81171875 32.8475 7.5859375 32.125 C4.56949157 23.10018617 0.89339455 15.96563798 -7.6484375 11.21484375 C-16.50441742 7.14899423 -26.2258801 8.05317548 -35.75 8.25 C-36.75681001 3.84986738 -36.97048552 1.33569335 -34.75 -2.75 C-23.80870451 -8.8284975 -10.252219 -6.40121854 0 0 Z " fill="#F6FBFC" transform="translate(121.75,55.75)"/>
<path d="M0 0 C6.51538847 2.34997758 11.01734253 7.4123341 14.3125 13.375 C15.28277249 17.07967676 15.2513402 20.16706193 15 24 C14.34 24.66 13.68 25.32 13 26 C10.53515625 25.8984375 10.53515625 25.8984375 8 25 C6.55859375 23.0390625 6.55859375 23.0390625 5.4375 20.625 C3.46393002 16.4320174 1.55977794 13.93226481 -2.8984375 12.30859375 C-6.44427147 11.78792296 -9.96718814 12.04045537 -13.5390625 12.16015625 C-16 12 -16 12 -18 10 C-18.08203125 8.125 -18.08203125 8.125 -17.8125 6 C-17.73644531 5.29875 -17.66039063 4.5975 -17.58203125 3.875 C-15.57979412 -2.57515989 -5.16534681 -0.55547521 0 0 Z " fill="#F4FBFC" transform="translate(106,68)"/>
<path d="M0 0 C1.9375 1.8125 1.9375 1.8125 3 4 C2.67 4.99 2.34 5.98 2 7 C2.66 7 3.32 7 4 7 C4.33 7.66 4.66 8.32 5 9 C6.98 9 8.96 9 11 9 C10.34 7.35 9.68 5.7 9 4 C10.6875 2.4375 10.6875 2.4375 13 1 C15.75 1.3125 15.75 1.3125 18 2 C18.625 4.375 18.625 4.375 19 7 C18.34 7.66 17.68 8.32 17 9 C16.01 9 15.02 9 14 9 C14 9.66 14 10.32 14 11 C14.804375 11.144375 15.60875 11.28875 16.4375 11.4375 C19 12 19 12 20 13 C20.04092937 15.33297433 20.04241723 17.66705225 20 20 C20.66 20.33 21.32 20.66 22 21 C21.34 21 20.68 21 20 21 C20 21.66 20 22.32 20 23 C18.68 23 17.36 23 16 23 C16.2475 22.278125 16.495 21.55625 16.75 20.8125 C17.31762411 17.84193994 17.31762411 17.84193994 15.125 15.3125 C14.42375 14.549375 13.7225 13.78625 13 13 C12.67 12.34 12.34 11.68 12 11 C10.02 11.99 10.02 11.99 8 13 C8 13.66 8 14.32 8 15 C8.804375 15.226875 9.60875 15.45375 10.4375 15.6875 C13 17 13 17 14 19.4375 C14 22 14 22 13 23.875 C9.89740743 25.62020832 7.3726293 24.69997967 4 24 C3.34 21.69 2.68 19.38 2 17 C1.195625 16.855625 0.39125 16.71125 -0.4375 16.5625 C-3 16 -3 16 -4 15 C-4.3125 12.6875 -4.3125 12.6875 -4 10 C-2 7.6875 -2 7.6875 0 6 C-1.7015625 6.2784375 -1.7015625 6.2784375 -3.4375 6.5625 C-5.2009375 6.7790625 -5.2009375 6.7790625 -7 7 C-8 6 -8 6 -8.0625 3.4375 C-8.041875 2.633125 -8.02125 1.82875 -8 1 C-5.17116253 -0.41441874 -3.12623255 -0.31900332 0 0 Z " fill="#5397CD" transform="translate(41,167)"/>
<path d="M0 0 C6.19822484 5.13705016 11.81284811 12.1262532 14 20 C13.625 22.3125 13.625 22.3125 13 24 C11.74335022 21.09399739 11 19.20395416 11 16 C10.34 16 9.68 16 9 16 C9.04640625 17.02480469 9.0928125 18.04960938 9.140625 19.10546875 C9.17816011 20.46611656 9.21455841 21.82679605 9.25 23.1875 C9.30027344 24.19780273 9.30027344 24.19780273 9.3515625 25.22851562 C9.42503051 28.99375127 9.11393243 30.83108854 6.984375 33.98828125 C6.32953125 34.65214844 5.6746875 35.31601563 5 36 C-0.875 35.125 -0.875 35.125 -2 34 C-2.04080783 32.00041636 -2.04254356 29.99954746 -2 28 C0 31.75 0 31.75 0 34 C1.98 33.34 3.96 32.68 6 32 C7.82165631 23.9543513 5.79660077 17.79299424 1.67578125 10.73046875 C-4.40147012 2.02251679 -12.66493808 -2.85319486 -23 -5 C-30.20648375 -5.53533879 -36.57363908 -5.51631069 -43 -2 C-44.13440778 0.57080135 -44.13440778 0.57080135 -44 3 C-44.33 3 -44.66 3 -45 3 C-45 -0.3 -45 -3.6 -45 -7 C-29.02515184 -11.56424233 -13.56903945 -9.73133132 0 0 Z " fill="#5993CE" transform="translate(130,56)"/>
<path d="M0 0 C3.9375 0.5625 3.9375 0.5625 5.9375 2 C7.45093825 5.87818551 7.60854244 9.46084736 6.9375 13.5625 C4.90964318 16.68227972 3.50280428 17.37005599 0 18.5625 C-3.0625 18.5625 -3.0625 18.5625 -5.9375 17.1875 C-8.60745857 13.88931589 -8.73967952 11.90694331 -8.47265625 7.7578125 C-7.5074657 2.59174496 -5.14331691 0.30310523 0 0 Z " fill="#F3FBFD" transform="translate(99.0625,83.4375)"/>
<path d="M0 0 C11.10438688 -0.41728385 19.18945079 0.83810486 28 8 C30.375 10.5625 30.375 10.5625 32 13 C32.928125 14.2684375 32.928125 14.2684375 33.875 15.5625 C35 18 35 18 34.1875 20.3125 C33.795625 20.869375 33.40375 21.42625 33 22 C32.505 20.515 32.505 20.515 32 19 C31.34 19 30.68 19 30 19 C29.67 21.64 29.34 24.28 29 27 C28.67 27 28.34 27 28 27 C27.85304688 26.12988281 27.85304688 26.12988281 27.703125 25.2421875 C26.23549737 17.57509832 23.53336848 12.57335794 17 8 C13.74642187 6.06199911 11.01074612 5.64362472 7.25 5.375 C6.26515625 5.30023438 5.2803125 5.22546875 4.265625 5.1484375 C3.51796875 5.09945312 2.7703125 5.05046875 2 5 C5 3 5 3 8 2 C5.36 1.67 2.72 1.34 0 1 C0 0.67 0 0.34 0 0 Z " fill="#5693D0" transform="translate(93,63)"/>
<path d="M0 0 C4.6 2.2 4.6 2.2 6 5 C6.039992 6.99960012 6.04346799 9.00047242 6 11 C5.01 11.33 4.02 11.66 3 12 C3 12.66 3 13.32 3 14 C-4.75147496 13.96622451 -4.75147496 13.96622451 -7.67578125 11.703125 C-9.72589687 9.25991937 -10.99203778 7.02388667 -12 4 C-8.01662534 0.13733366 -5.51851799 -0.68981475 0 0 Z " fill="#EFF9FC" transform="translate(75,184)"/>
<path d="M0 0 C0 0.66 0 1.32 0 2 C0.99 2 1.98 2 3 2 C3 2.66 3 3.32 3 4 C-17.65392781 9.78202406 -17.65392781 9.78202406 -23 8 C-23.33 5.69 -23.66 3.38 -24 1 C-7.52436195 -2.50812065 -7.52436195 -2.50812065 0 0 Z " fill="#4690D9" transform="translate(148,171)"/>
<path d="M0 0 C3 2 3 2 3.6171875 3.91796875 C4.23768328 9.38021189 4.14417065 13.23610508 1 18 C-1.56380353 19.42856002 -4.18948996 20.19699713 -7 21 C-8.3465266 21.63960014 -9.68922893 22.289999 -11 23 C-10.50432825 17.37943637 -8.29791005 13.44741199 -5.5 8.6875 C-5.08363281 7.95982422 -4.66726562 7.23214844 -4.23828125 6.48242188 C-1.19019574 1.19019574 -1.19019574 1.19019574 0 0 Z " fill="#4894DF" transform="translate(52,61)"/>
<path d="M0 0 C5.5351928 3.0286904 7.70570727 7.20789563 10.3125 12.8125 C12.2925 12.4825 14.2725 12.1525 16.3125 11.8125 C15.5 13.75 15.5 13.75 14.3125 15.8125 C11.3125 16.8125 11.3125 16.8125 9.125 15.875 C8.2278125 15.3490625 8.2278125 15.3490625 7.3125 14.8125 C7.3125 13.1625 7.3125 11.5125 7.3125 9.8125 C5.9925 9.8125 4.6725 9.8125 3.3125 9.8125 C3.333125 10.92625 3.35375 12.04 3.375 13.1875 C3.3125 16.8125 3.3125 16.8125 2.3125 18.8125 C1.6525 18.8125 0.9925 18.8125 0.3125 18.8125 C0.33570312 18.05324219 0.35890625 17.29398438 0.3828125 16.51171875 C0.40085937 15.51785156 0.41890625 14.52398437 0.4375 13.5 C0.46070312 12.51386719 0.48390625 11.52773437 0.5078125 10.51171875 C0.51932639 7.58843473 0.51932639 7.58843473 -1.6875 4.8125 C-3.59456576 4.41162669 -3.59456576 4.41162669 -5.6875 4.5625 C-6.739375 4.58570312 -6.739375 4.58570312 -7.8125 4.609375 C-9.77686628 4.71206666 -9.77686628 4.71206666 -11.6875 5.8125 C-11.6875 4.8225 -11.6875 3.8325 -11.6875 2.8125 C-10.6975 2.4825 -9.7075 2.1525 -8.6875 1.8125 C-11.6575 1.3175 -11.6575 1.3175 -14.6875 0.8125 C-9.86200807 -2.27581483 -5.27670026 -1.69927635 0 0 Z " fill="#5995CE" transform="translate(104.6875,80.1875)"/>
<path d="M0 0 C1.1446875 0.0928125 1.1446875 0.0928125 2.3125 0.1875 C2.9725 2.4975 3.6325 4.8075 4.3125 7.1875 C6.7875 7.6825 6.7875 7.6825 9.3125 8.1875 C9.3125 9.1775 9.3125 10.1675 9.3125 11.1875 C7.0025 11.1875 4.6925 11.1875 2.3125 11.1875 C2.044375 11.826875 1.77625 12.46625 1.5 13.125 C0.3125 15.1875 0.3125 15.1875 -2.6875 16.1875 C-3.3475 15.8575 -4.0075 15.5275 -4.6875 15.1875 C-5.09479228 12.86593403 -5.43188677 10.5306213 -5.6875 8.1875 C-8.1625 7.1975 -8.1625 7.1975 -10.6875 6.1875 C-10.6875 5.5275 -10.6875 4.8675 -10.6875 4.1875 C-9.924375 4.084375 -9.16125 3.98125 -8.375 3.875 C-5.65795327 3.43156015 -5.65795327 3.43156015 -4.1875 1.625 C-2.6875 0.1875 -2.6875 0.1875 0 0 Z " fill="#4C90D3" transform="translate(65.6875,171.8125)"/>
<path d="M0 0 C0.23074219 0.53109375 0.46148437 1.0621875 0.69921875 1.609375 C3.45998551 7.58921763 6.70684173 11.52087705 13 14 C14.99110401 14.38290462 16.99100513 14.72604615 19 15 C19 16.32 19 17.64 19 19 C8.93020011 20.35067975 -0.82241303 21.31860272 -11 21 C-10.01 20.67 -9.02 20.34 -8 20 C-7.67 19.34 -7.34 18.68 -7 18 C-3.37 18.33 0.26 18.66 4 19 C4.66 17.68 5.32 16.36 6 15 C6.33 14.34 6.66 13.68 7 13 C6.01 13 5.02 13 4 13 C3.16151196 11.54462432 2.32936066 10.08559627 1.5 8.625 C1.0359375 7.81289062 0.571875 7.00078125 0.09375 6.1640625 C-1 4 -1 4 -1 2 C-3.31 2 -5.62 2 -8 2 C-8 1.67 -8 1.34 -8 1 C-2.25 0 -2.25 0 0 0 Z " fill="#508FCF" transform="translate(169,185)"/>
<path d="M0 0 C0 3.3 0 6.6 0 10 C-8.42857143 12.42857143 -8.42857143 12.42857143 -13 11 C-13.66 8.36 -14.32 5.72 -15 3 C-13.0636296 2.49564306 -11.12585854 1.99666126 -9.1875 1.5 C-8.10855469 1.2215625 -7.02960938 0.943125 -5.91796875 0.65625 C-3 0 -3 0 0 0 Z " fill="#6097CE" transform="translate(101,125)"/>
<path d="M0 0 C1.11375 0.3403125 1.11375 0.3403125 2.25 0.6875 C2.875 3.0625 2.875 3.0625 3.25 5.6875 C2.59 6.3475 1.93 7.0075 1.25 7.6875 C0.26 7.6875 -0.73 7.6875 -1.75 7.6875 C-1.75 8.3475 -1.75 9.0075 -1.75 9.6875 C-0.945625 9.831875 -0.14125 9.97625 0.6875 10.125 C3.25 10.6875 3.25 10.6875 4.25 11.6875 C4.29092937 14.02047433 4.29241723 16.35455225 4.25 18.6875 C4.91 19.0175 5.57 19.3475 6.25 19.6875 C5.59 19.6875 4.93 19.6875 4.25 19.6875 C4.25 20.3475 4.25 21.0075 4.25 21.6875 C2.93 21.6875 1.61 21.6875 0.25 21.6875 C0.62125 20.6046875 0.62125 20.6046875 1 19.5 C1.56762411 16.52943994 1.56762411 16.52943994 -0.625 14 C-1.676875 12.8553125 -1.676875 12.8553125 -2.75 11.6875 C-3.08 11.0275 -3.41 10.3675 -3.75 9.6875 C-5.07 10.0175 -6.39 10.3475 -7.75 10.6875 C-8.08 9.6975 -8.41 8.7075 -8.75 7.6875 C-7.43 7.6875 -6.11 7.6875 -4.75 7.6875 C-5.41 6.0375 -6.07 4.3875 -6.75 2.6875 C-4.29511132 0.41445492 -3.41240272 -0.38777304 0 0 Z " fill="#93C9F4" transform="translate(56.75,168.3125)"/>
<path d="M0 0 C0.69818182 5.14909091 0.69818182 5.14909091 0 8 C-2.37095983 10.27499241 -5.0447177 11.60864447 -8 13 C-8.68578125 13.37382813 -9.3715625 13.74765625 -10.078125 14.1328125 C-12 15 -12 15 -15 15 C-15.33 12.69 -15.66 10.38 -16 8 C-13.52215037 6.66416771 -11.04281928 5.33123211 -8.5625 4 C-7.85544922 3.6184375 -7.14839844 3.236875 -6.41992188 2.84375 C-1.11328125 0 -1.11328125 0 0 0 Z " fill="#5092D3" transform="translate(195,89)"/>
<path d="M0 0 C0.33 0 0.66 0 1 0 C1.09796875 0.65226563 1.1959375 1.30453125 1.296875 1.9765625 C2.24242802 7.50315689 3.19091951 11.68972471 7 16 C9.07681923 17.46411777 11.17748408 18.77161055 13.390625 20.01953125 C13.92171875 20.34308594 14.4528125 20.66664063 15 21 C15 21.33 15 21.66 15 22 C8.07 21.505 8.07 21.505 1 21 C1 20.34 1 19.68 1 19 C0.175 18.195625 -0.65 17.39125 -1.5 16.5625 C-4 14 -4 14 -4 11 C-3.34 10.67 -2.68 10.34 -2 10 C-2 7.36 -2 4.72 -2 2 C-1.34 2 -0.68 2 0 2 C0 1.34 0 0.68 0 0 Z " fill="#6097CA" transform="translate(82,185)"/>
<path d="M0 0 C0.6290625 0.19335938 1.258125 0.38671875 1.90625 0.5859375 C11.2352543 3.42397796 20.35728871 5.48930857 30 7 C30 6.01 30 5.02 30 4 C31.65 4 33.3 4 35 4 C35.495 5.98 35.495 5.98 36 8 C36.99 8 37.98 8 39 8 C39.33 7.01 39.66 6.02 40 5 C40.66 5.33 41.32 5.66 42 6 C42 6.99 42 7.98 42 9 C35.71628693 9.10064005 29.67190051 8.75941669 23.4375 8 C22.21063477 7.85691406 22.21063477 7.85691406 20.95898438 7.7109375 C18.97211325 7.47855491 16.98597206 7.23994484 15 7 C15.33 8.32 15.66 9.64 16 11 C9.94099499 9.60176807 5.55818232 6.06877748 1 2 C0.67 1.34 0.34 0.68 0 0 Z " fill="#E9FCFE" transform="translate(37,196)"/>
<path d="M0 0 C3 0.25 3 0.25 5 2.25 C5 3.91666667 5 5.58333333 5 7.25 C5.350625 8.11625 5.70125 8.9825 6.0625 9.875 C7 12.25 7 12.25 6 15.25 C2.37 14.59 -1.26 13.93 -5 13.25 C-5 12.92 -5 12.59 -5 12.25 C-2.69 12.25 -0.38 12.25 2 12.25 C2 11.26 2 10.27 2 9.25 C1.21625 9.29125 0.4325 9.3325 -0.375 9.375 C-3 9.25 -3 9.25 -5 7.25 C-5.25 4.75 -5.25 4.75 -5 2.25 C-3 0.25 -3 0.25 0 0 Z " fill="#8BBEF3" transform="translate(73,170.75)"/>
<path d="M0 0 C0.33 2.97 0.66 5.94 1 9 C-0.43554025 9.50559908 -1.8735202 10.0042749 -3.3125 10.5 C-4.11300781 10.7784375 -4.91351563 11.056875 -5.73828125 11.34375 C-8 12 -8 12 -11 12 C-11 9.03 -11 6.06 -11 3 C-9.54293274 2.49632243 -8.08429904 1.99717444 -6.625 1.5 C-5.81289062 1.2215625 -5.00078125 0.943125 -4.1640625 0.65625 C-2 0 -2 0 0 0 Z " fill="#4D8ED1" transform="translate(119,120)"/>
<path d="M0 0 C0.33 2.64 0.66 5.28 1 8 C-6.28571429 11.42857143 -6.28571429 11.42857143 -11 11 C-11.33 8.69 -11.66 6.38 -12 4 C-10.56570999 3.32645501 -9.12742943 2.66140299 -7.6875 2 C-6.88699219 1.62875 -6.08648437 1.2575 -5.26171875 0.875 C-3 0 -3 0 0 0 Z " fill="#5A96D1" transform="translate(142,145)"/>
<path d="M0 0 C0.33 0.99 0.66 1.98 1 3 C-0.98 3.33 -2.96 3.66 -5 4 C-5.33 5.32 -5.66 6.64 -6 8 C-11.75 7.125 -11.75 7.125 -14 6 C-14 6.99 -14 7.98 -14 9 C-12.68 9.33 -11.36 9.66 -10 10 C-12.64 10.33 -15.28 10.66 -18 11 C-17.59727205 7.92919936 -17.31060093 5.7457631 -16 3 C-11.29653889 -0.45445588 -5.58548253 -0.29922228 0 0 Z " fill="#4790DA" transform="translate(178,162)"/>
<path d="M0 0 C0.33 2.64 0.66 5.28 1 8 C-5.5 11 -5.5 11 -10 11 C-10 8.03 -10 5.06 -10 2 C-3.375 0 -3.375 0 0 0 Z " fill="#5C95CC" transform="translate(137,115)"/>
<path d="M0 0 C-6.16795162 4.11196775 -13.76565833 4.26793858 -21 4 C-20.67 6.31 -20.34 8.62 -20 11 C-13.32271667 10.41339754 -6.65936905 9.76418989 0 9 C-3.38354448 10.90739027 -6.72286344 11.76734743 -10.5 12.625 C-11.6240625 12.88539063 -12.748125 13.14578125 -13.90625 13.4140625 C-17 14 -17 14 -21 14 C-21.68359375 12.046875 -22.3671875 10.09375 -23.05078125 8.140625 C-24.08788267 5.80181192 -25.40124713 3.98836492 -27 2 C-25.91460937 1.93941406 -24.82921875 1.87882813 -23.7109375 1.81640625 C-22.26561514 1.73193936 -20.82030318 1.64729449 -19.375 1.5625 C-18.66214844 1.52318359 -17.94929688 1.48386719 -17.21484375 1.44335938 C-11.43651729 1.09878027 -5.78588049 -0.17017296 0 0 Z " fill="#6395C9" transform="translate(145,168)"/>
<path d="M0 0 C1.35439668 2.70879335 1.06501451 5.00933268 1 8 C-0.26839526 8.50615298 -1.53983102 9.00469099 -2.8125 9.5 C-3.52019531 9.7784375 -4.22789062 10.056875 -4.95703125 10.34375 C-7 11 -7 11 -10 11 C-10.33 8.69 -10.66 6.38 -11 4 C-9.73308493 3.32591692 -8.46129251 2.66099503 -7.1875 2 C-6.47980469 1.62875 -5.77210938 1.2575 -5.04296875 0.875 C-3 0 -3 0 0 0 Z " fill="#5E93CA" transform="translate(160,138)"/>
<path d="M0 0 C2.5654594 2.5654594 2.54046087 4.47686668 3 8 C1.73308493 8.67408308 0.46129251 9.33900497 -0.8125 10 C-1.52019531 10.37125 -2.22789062 10.7425 -2.95703125 11.125 C-5 12 -5 12 -8 12 C-8.33 9.36 -8.66 6.72 -9 4 C-6.03 2.68 -3.06 1.36 0 0 Z " fill="#4691D8" transform="translate(177,129)"/>
<path d="M0 0 C0.33 2.31 0.66 4.62 1 7 C-0.26691507 7.67408308 -1.53870749 8.33900497 -2.8125 9 C-3.52019531 9.37125 -4.22789062 9.7425 -4.95703125 10.125 C-7 11 -7 11 -10 11 C-10 8.36 -10 5.72 -10 3 C-6.27034861 0.96564469 -4.33094958 0 0 0 Z " fill="#5394D3" transform="translate(155,109)"/>
<path d="M0 0 C2 3 2 3 1.75 5.0625 C1 7 1 7 -1 9 C-4.625 8.625 -4.625 8.625 -8 8 C-8.66 6.02 -9.32 4.04 -10 2 C-6.32003497 -0.45331002 -4.34586828 -0.39507893 0 0 Z " fill="#E9F8FD" transform="translate(53,183)"/>
<path d="M0 0 C0.33 2.31 0.66 4.62 1 7 C-2.3 8.32 -5.6 9.64 -9 11 C-9.33 8.36 -9.66 5.72 -10 3 C-3.375 0 -3.375 0 0 0 Z " fill="#6194C6" transform="translate(172,102)"/>
<path d="M0 0 C0.625 2.625 0.625 2.625 0 6 C-3.84404327 9.14319561 -7.95093396 12 -13 12 C-13.37109375 9.73828125 -13.37109375 9.73828125 -13 7 C-10.41015625 4.98046875 -10.41015625 4.98046875 -7.0625 3.1875 C-5.96035156 2.58292969 -4.85820312 1.97835937 -3.72265625 1.35546875 C-1 0 -1 0 0 0 Z " fill="#4990D2" transform="translate(196,105)"/>
<path d="M0 0 C0.33 0.99 0.66 1.98 1 3 C1.66 3 2.32 3 3 3 C2.34 4.32 1.68 5.64 1 7 C0.34 7 -0.32 7 -1 7 C-0.67 9.64 -0.34 12.28 0 15 C-1.65 15.33 -3.3 15.66 -5 16 C-5.268125 14.865625 -5.53625 13.73125 -5.8125 12.5625 C-6.204375 11.386875 -6.59625 10.21125 -7 9 C-7.99 8.67 -8.98 8.34 -10 8 C-6.55930376 5.70620251 -5.27709699 5 -1 5 C-0.67 3.35 -0.34 1.7 0 0 Z " fill="#E5F6FD" transform="translate(54,74)"/>
<path d="M0 0 C3 2 3 2 3.6171875 3.91796875 C4.23768328 9.38021189 4.14417065 13.23610508 1 18 C-1.56380353 19.42856002 -4.18948996 20.19699713 -7 21 C-8.3465266 21.63960014 -9.68922893 22.289999 -11 23 C-11 22.01 -11 21.02 -11 20 C-10.030625 19.731875 -9.06125 19.46375 -8.0625 19.1875 C-7.051875 18.795625 -6.04125 18.40375 -5 18 C-4.67 17.01 -4.34 16.02 -4 15 C-3.34 14.67 -2.68 14.34 -2 14 C-1.60955794 12.68225804 -1.29044914 11.34332728 -1 10 C-0.649375 8.96875 -0.29875 7.9375 0.0625 6.875 C1.1033402 4.18708882 1.1033402 4.18708882 1 2 C0.34 1.67 -0.32 1.34 -1 1 C-0.67 0.67 -0.34 0.34 0 0 Z " fill="#5994CF" transform="translate(52,61)"/>
<path d="M0 0 C5.5 -0.36666667 5.5 -0.36666667 7.875 1.375 C9 3 9 3 9 5 C9.66 5 10.32 5 11 5 C14.01290674 9.84684997 14.40763238 13.93278758 14.59375 19.609375 C14.7278125 20.39828125 14.861875 21.1871875 15 22 C15.99 22.66 16.98 23.32 18 24 C15.75 26.0625 15.75 26.0625 13 28 C10.6875 27.75 10.6875 27.75 9 27 C9.515625 26.05125 10.03125 25.1025 10.5625 24.125 C12.57790762 19.3384069 12.43751727 14.95586064 11 10 C8.35402948 5.45928087 5.18011775 2.37120764 0 1 C0 0.67 0 0.34 0 0 Z " fill="#5C92C9" transform="translate(191,165)"/>
<path d="M0 0 C0 1.98 0 3.96 0 6 C-3.96 6.99 -7.92 7.98 -12 9 C-12 7.02 -12 5.04 -12 3 C-10.75336669 2.49166409 -9.50250613 1.99368855 -8.25 1.5 C-7.55390625 1.2215625 -6.8578125 0.943125 -6.140625 0.65625 C-4 0 -4 0 0 0 Z " fill="#5593D0" transform="translate(121,138)"/>
<path d="M0 0 C0 1.98 0 3.96 0 6 C-1.26839526 6.50615298 -2.53983102 7.00469099 -3.8125 7.5 C-4.87404297 7.91765625 -4.87404297 7.91765625 -5.95703125 8.34375 C-8 9 -8 9 -11 9 C-11.33 7.35 -11.66 5.7 -12 4 C-10.56570999 3.32645501 -9.12742943 2.66140299 -7.6875 2 C-6.88699219 1.62875 -6.08648437 1.2575 -5.26171875 0.875 C-3 0 -3 0 0 0 Z " fill="#5C96CE" transform="translate(140,131)"/>
<path d="M0 0 C0 1.98 0 3.96 0 6 C-3.3 7.32 -6.6 8.64 -10 10 C-10.33 8.02 -10.66 6.04 -11 4 C-9.5437455 3.32880451 -8.08492133 2.66318193 -6.625 2 C-5.81289062 1.62875 -5.00078125 1.2575 -4.1640625 0.875 C-2 0 -2 0 0 0 Z " fill="#5793CF" transform="translate(158,124)"/>
<path d="M0 0 C0.33 0.99 0.66 1.98 1 3 C-0.65 4.65 -2.3 6.3 -4 8 C7.55 8.33 19.1 8.66 31 9 C31 9.33 31 9.66 31 10 C17.47 10 3.94 10 -10 10 C-8.35 8.68 -6.7 7.36 -5 6 C-3.43494459 4.35870717 -3.43494459 4.35870717 -2.1875 2.75 C-1.465625 1.8425 -0.74375 0.935 0 0 Z " fill="#588FC7" transform="translate(122,197)"/>
<path d="M0 0 C2.5625 0.1875 2.5625 0.1875 4.5625 2.1875 C4.00694444 6.74305556 4.00694444 6.74305556 2.5625 8.1875 C0.125 8.375 0.125 8.375 -2.4375 8.1875 C-3.0975 7.5275 -3.7575 6.8675 -4.4375 6.1875 C-3.71780303 0.28598485 -3.71780303 0.28598485 0 0 Z " fill="#76B5EC" transform="translate(32.4375,154.8125)"/>
<path d="M0 0 C1.35504975 4.06514926 0.63653981 6.08653524 -1 10 C-4.125 11.4375 -4.125 11.4375 -7 12 C-7.33 9.69 -7.66 7.38 -8 5 C-4.04 2.525 -4.04 2.525 0 0 Z " fill="#5691CC" transform="translate(194,120)"/>
<path d="M0 0 C2 2 2 2 2 6 C0.71086513 6.67154933 -0.58140204 7.33708859 -1.875 8 C-2.59429687 8.37125 -3.31359375 8.7425 -4.0546875 9.125 C-6 10 -6 10 -8 10 C-8.33 8.02 -8.66 6.04 -9 4 C-6.03 2.68 -3.06 1.36 0 0 Z " fill="#5593D0" transform="translate(174,116)"/>
<path d="M0 0 C0 1.98 0 3.96 0 6 C-2.97 6.66 -5.94 7.32 -9 8 C-9.33 6.02 -9.66 4.04 -10 2 C-3.375 0 -3.375 0 0 0 Z " fill="#6198CE" transform="translate(102,143)"/>
<path d="M0 0 C1.16208984 0.01353516 1.16208984 0.01353516 2.34765625 0.02734375 C4.23190843 0.05060612 6.11599832 0.0864636 8 0.125 C8 0.455 8 0.785 8 1.125 C6.90300781 1.17398438 5.80601563 1.22296875 4.67578125 1.2734375 C3.22133075 1.34850591 1.76690484 1.42405197 0.3125 1.5 C-0.7693457 1.54640625 -0.7693457 1.54640625 -1.87304688 1.59375 C-8.34410582 1.94832857 -13.33387751 3.32555972 -18 8.125 C-18.66721536 11.21059301 -18.66721536 11.21059301 -18 14.125 C-17.01 14.785 -16.02 15.445 -15 16.125 C-16.65 15.795 -18.3 15.465 -20 15.125 C-20.08121924 13.52167209 -20.13929134 11.91715974 -20.1875 10.3125 C-20.22230469 9.41917969 -20.25710937 8.52585937 -20.29296875 7.60546875 C-20 5.125 -20 5.125 -18.98828125 3.42578125 C-13.31967937 -0.28275397 -6.52537955 -0.14701895 0 0 Z " fill="#D4ECF9" transform="translate(103,32.875)"/>
<path d="M0 0 C1.875 2 1.875 2 3 4 C2.67 4.66 2.34 5.32 2 6 C-0.03125 6.44921875 -0.03125 6.44921875 -2.5 6.6875 C-3.3146875 6.77386719 -4.129375 6.86023438 -4.96875 6.94921875 C-5.6390625 6.96597656 -6.309375 6.98273438 -7 7 C-8 6 -8 6 -8.0625 3.4375 C-8.041875 2.633125 -8.02125 1.82875 -8 1 C-5.17116253 -0.41441874 -3.12623255 -0.31900332 0 0 Z " fill="#DAF3FA" transform="translate(41,167)"/>
<path d="M0 0 C0 0.66 0 1.32 0 2 C0.99 2.33 1.98 2.66 3 3 C3 3.99 3 4.98 3 6 C-3.625 9.125 -3.625 9.125 -7 8 C-6.34 6.68 -5.68 5.36 -5 4 C-6.32 3.67 -7.64 3.34 -9 3 C-2.25 0 -2.25 0 0 0 Z " fill="#E7F7FD" transform="translate(178,138)"/>
<path d="M0 0 C6.65050424 -0.24991456 12.56986533 0.26044666 19 2 C19 2.33 19 2.66 19 3 C17.35 3.33 15.7 3.66 14 4 C14.99 4.33 15.98 4.66 17 5 C17 5.66 17 6.32 17 7 C9.575 6.01 9.575 6.01 2 5 C5 3 5 3 8 2 C5.36 1.67 2.72 1.34 0 1 C0 0.67 0 0.34 0 0 Z " fill="#669BD0" transform="translate(93,63)"/>
<path d="M0 0 C2.00720923 0.28674418 4.0085944 0.61866701 6 1 C6 2.98 6 4.96 6 7 C3.6875 7.6875 3.6875 7.6875 1 8 C-0.875 6.8125 -0.875 6.8125 -2 5 C-1.74853421 2.86254078 -1.54074221 1.54074221 0 0 Z " fill="#88BDEE" transform="translate(59,158)"/>
<path d="M0 0 C1.65 0.33 3.3 0.66 5 1 C5 2.98 5 4.96 5 7 C6.2375 6.773125 7.475 6.54625 8.75 6.3125 C10.859375 5.92578125 10.859375 5.92578125 13 6 C14.32 6.99 15.64 7.98 17 9 C10.07 8.505 10.07 8.505 3 8 C3 7.34 3 6.68 3 6 C1.0399719 4.36323743 1.0399719 4.36323743 -1 3 C-0.67 2.01 -0.34 1.02 0 0 Z " fill="#80ACD5" transform="translate(80,198)"/>
<path d="M0 0 C0.99 0.33 1.98 0.66 3 1 C3.6875 3.0625 3.6875 3.0625 4 5 C5.65 5.33 7.3 5.66 9 6 C8.67 6.66 8.34 7.32 8 8 C7.34 8 6.68 8 6 8 C6.495 8.37125 6.99 8.7425 7.5 9.125 C9.59755514 11.74694393 9.21743835 13.73842472 9 17 C8.34 15.68 7.68 14.36 7 13 C6.01 13 5.02 13 4 13 C3.731875 11.88625 3.46375 10.7725 3.1875 9.625 C2.34190981 5.78159049 2.34190981 5.78159049 -1 4 C-0.67 2.68 -0.34 1.36 0 0 Z " fill="#94CBF3" transform="translate(39,153)"/>
<path d="M0 0 C0.99 0.33 1.98 0.66 3 1 C2.67 1.66 2.34 2.32 2 3 C1.2890131 8.92657081 1.2890131 8.92657081 3.625 14.125 C7.69802368 15.62558767 11.01467511 14.32844163 15 13 C15 13.99 15 14.98 15 16 C13.42074025 16.39180108 11.83631206 16.76280736 10.25 17.125 C9.36828125 17.33382812 8.4865625 17.54265625 7.578125 17.7578125 C4.56524327 18.04084078 3.40239618 17.82791014 1 16 C-1.11399668 12.24538626 -1.13286667 9.40279336 -0.625 5.1875 C-0.51414062 4.21167969 -0.40328125 3.23585938 -0.2890625 2.23046875 C-0.19367188 1.49441406 -0.09828125 0.75835937 0 0 Z " fill="#6097CF" transform="translate(90,86)"/>
<path d="M0 0 C1.65 0 3.3 0 5 0 C5.33 1.32 5.66 2.64 6 4 C6.99 4 7.98 4 9 4 C9.33 3.01 9.66 2.02 10 1 C10.66 1.33 11.32 1.66 12 2 C12 2.99 12 3.98 12 5 C5.35590042 5.21432579 -0.53205867 4.51233701 -7 3 C-3.98968256 2.06576355 -3.13349732 1.95550089 0 3 C0 2.01 0 1.02 0 0 Z " fill="#A4CCEA" transform="translate(67,200)"/>
<path d="M0 0 C2 1 2 1 2.68603516 2.77832031 C2.88503418 3.53725586 3.0840332 4.29619141 3.2890625 5.078125 C3.61777344 6.32529297 3.61777344 6.32529297 3.953125 7.59765625 C4.17484375 8.47292969 4.3965625 9.34820312 4.625 10.25 C4.85445312 11.10980469 5.08390625 11.96960938 5.3203125 12.85546875 C6.4018376 17.03350322 7.12552556 20.6593071 7 25 C6.67 23.68 6.34 22.36 6 21 C5.01 21.33 4.02 21.66 3 22 C3.0825 20.88625 3.165 19.7725 3.25 18.625 C3.29142387 13.96895699 1.74539781 10.45828224 -0.22265625 6.296875 C-1.0971051 3.7130764 -0.92066161 2.52458151 0 0 Z " fill="#729ECC" transform="translate(57,77)"/>
<path d="M0 0 C0.33 0.66 0.66 1.32 1 2 C1.99 2.33 2.98 2.66 4 3 C4.33 4.65 4.66 6.3 5 8 C4.34 7.67 3.68 7.34 3 7 C2.731875 7.804375 2.46375 8.60875 2.1875 9.4375 C1.795625 10.283125 1.40375 11.12875 1 12 C-2.13349732 13.04449911 -2.98968256 12.93423645 -6 12 C-5.67 11.34 -5.34 10.68 -5 10 C-3.68 10 -2.36 10 -1 10 C-1.20625 8.72125 -1.4125 7.4425 -1.625 6.125 C-1.9765625 3.9453125 -1.9765625 3.9453125 -2 2 C-1.34 1.34 -0.68 0.68 0 0 Z " fill="#E8F7FD" transform="translate(54,79)"/>
<path d="M0 0 C1.65 0 3.3 0 5 0 C5.45375 1.134375 5.9075 2.26875 6.375 3.4375 C7.57095806 7.04721692 7.57095806 7.04721692 10 8 C11.10546875 10.3984375 11.10546875 10.3984375 12.1875 13.375 C12.73470703 14.84066406 12.73470703 14.84066406 13.29296875 16.3359375 C14 19 14 19 13 22 C12.56429687 21.0821875 12.12859375 20.164375 11.6796875 19.21875 C8.34427307 12.30692026 4.99811165 5.89520861 0 0 Z " fill="#5993CC" transform="translate(138,46)"/>
<path d="M0 0 C0 1.65 0 3.3 0 5 C-3.96 5 -7.92 5 -12 5 C-12 4.34 -12 3.68 -12 3 C-10.75336669 2.49166409 -9.50250613 1.99368855 -8.25 1.5 C-7.55390625 1.2215625 -6.8578125 0.943125 -6.140625 0.65625 C-4 0 -4 0 0 0 Z " fill="#528FCA" transform="translate(123,152)"/>
<path d="M0 0 C1.67542976 0.28604898 3.34385343 0.61781233 5 1 C5.38218767 2.65614657 5.71395102 4.32457024 6 6 C5 7 5 7 2.5 7.125 C0 7 0 7 -1 6 C-1.125 3.5 -1.125 3.5 -1 1 C-0.67 0.67 -0.34 0.34 0 0 Z " fill="#EFFBFD" transform="translate(54,168)"/>
<path d="M0 0 C0.66 0.33 1.32 0.66 2 1 C0.90653119 2.34212062 -0.2001575 3.67347975 -1.3125 5 C-1.92738281 5.7425 -2.54226562 6.485 -3.17578125 7.25 C-5 9 -5 9 -8 9 C-7.67 8.34 -7.34 7.68 -7 7 C-8.65 7 -10.3 7 -12 7 C-9.5129261 5.34195074 -7.02682498 3.80125522 -4.4375 2.3125 C-3.65246094 1.85488281 -2.86742187 1.39726562 -2.05859375 0.92578125 C-1.37925781 0.62027344 -0.69992188 0.31476563 0 0 Z " fill="#D9FBFE" transform="translate(233,190)"/>
<path d="M0 0 C0.33 0.66 0.66 1.32 1 2 C1.99 2.33 2.98 2.66 4 3 C3.49396008 5.16874252 3.00016187 6.99967627 2 9 C-0.475 8.01 -0.475 8.01 -3 7 C-3.1875 4.625 -3.1875 4.625 -3 2 C-2.01 1.34 -1.02 0.68 0 0 Z " fill="#6FAEEB" transform="translate(40,175)"/>
<path d="M0 0 C0 0.33 0 0.66 0 1 C-1.03640625 1.09796875 -2.0728125 1.1959375 -3.140625 1.296875 C-4.51051741 1.4470002 -5.88030404 1.59809287 -7.25 1.75 C-7.93191406 1.811875 -8.61382812 1.87375 -9.31640625 1.9375 C-12.65143676 2.32604724 -14.73539625 2.79381526 -17.40625 4.875 C-19.33689004 7.44918672 -20.15773959 9.91171182 -21 13 C-22.01181874 10.36927128 -21.96617842 8.76324896 -21.5625 5.9375 C-19.75240825 2.53452752 -18.15327737 1.60716869 -14.5078125 0.45703125 C-9.69740524 -0.41963176 -4.86672327 -0.21900255 0 0 Z " fill="#DAF0FC" transform="translate(107,50)"/>
<path d="M0 0 C0.23074219 0.53109375 0.46148437 1.0621875 0.69921875 1.609375 C2.83218105 6.2293882 4.68617964 9.08817126 9 12 C9.763125 12.5775 10.52625 13.155 11.3125 13.75 C11.869375 14.1625 12.42625 14.575 13 15 C9.77355527 14.78209197 6.96797971 14.31524184 4 13 C1.4180359 9.88160043 -1 6.14830309 -1 2 C-3.31 2 -5.62 2 -8 2 C-8 1.67 -8 1.34 -8 1 C-2.25 0 -2.25 0 0 0 Z " fill="#6496CC" transform="translate(169,185)"/>
<path d="M0 0 C5.61 0.33 11.22 0.66 17 1 C16 3 16 3 14.15234375 3.6328125 C13.42144531 3.79523438 12.69054687 3.95765625 11.9375 4.125 C11.20402344 4.29257813 10.47054687 4.46015625 9.71484375 4.6328125 C9.14894531 4.75398438 8.58304688 4.87515625 8 5 C8 4.34 8 3.68 8 3 C5.36 3 2.72 3 0 3 C0 2.01 0 1.02 0 0 Z " fill="#5794D1" transform="translate(85,63)"/>
<path d="M0 0 C0.598125 0.226875 1.19625 0.45375 1.8125 0.6875 C1.3484375 1.8321875 1.3484375 1.8321875 0.875 3 C0.13356407 4.87539677 -0.54978217 6.77434652 -1.1875 8.6875 C-2.5075 8.6875 -3.8275 8.6875 -5.1875 8.6875 C-5.55003776 3.24943353 -5.55003776 3.24943353 -3.9375 0.75 C-2.1875 -0.3125 -2.1875 -0.3125 0 0 Z " fill="#4992DB" transform="translate(115.1875,121.3125)"/>
<path d="M0 0 C1.5 1.3125 1.5 1.3125 3 3 C3 3.99 3 4.98 3 6 C3.66 6 4.32 6 5 6 C7.15059309 9.53186832 7.3797728 12.66287993 7.625 16.75 C7.69976562 17.92046875 7.77453125 19.0909375 7.8515625 20.296875 C7.90054688 21.18890625 7.94953125 22.0809375 8 23 C6.59530559 20.41915274 5.9945356 18.93306107 5.75 15.9375 C5.13309979 10.39749418 1.78340652 5.70710644 -1 1 C-0.67 0.67 -0.34 0.34 0 0 Z " fill="#5991C8" transform="translate(64,50)"/>
<path d="M0 0 C0 0.66 0 1.32 0 2 C-0.66 2 -1.32 2 -2 2 C-2 2.66 -2 3.32 -2 4 C-5 5 -5 5 -8 4 C-8 2.35 -8 0.7 -8 -1 C-4.37673261 -2.2077558 -3.35853631 -1.54311128 0 0 Z " fill="#4B92D8" transform="translate(160,143)"/>
<path d="M0 0 C2 3.75 2 3.75 2 6 C0.73308493 6.67408308 -0.53870749 7.33900497 -1.8125 8 C-2.52019531 8.37125 -3.22789062 8.7425 -3.95703125 9.125 C-6 10 -6 10 -9 10 C-9.33 7.36 -9.66 4.72 -10 2 C-9.34 2 -8.68 2 -8 2 C-8 3.98 -8 5.96 -8 8 C-7.01 7.67 -6.02 7.34 -5 7 C-4.67 6.34 -4.34 5.68 -4 5 C-2.68 5 -1.36 5 0 5 C0 3.35 0 1.7 0 0 Z " fill="#6997CD" transform="translate(178,131)"/>
<path d="M0 0 C1.9375 0.625 1.9375 0.625 4 2 C4.75 5.125 4.75 5.125 5 8 C4.1646875 7.2265625 4.1646875 7.2265625 3.3125 6.4375 C1.09592692 4.73377425 1.09592692 4.73377425 -1.5 5.25 C-2.7375 5.62125 -2.7375 5.62125 -4 6 C-4.763125 6.185625 -5.52625 6.37125 -6.3125 6.5625 C-6.869375 6.706875 -7.42625 6.85125 -8 7 C-8 6.34 -8 5.68 -8 5 C-7.34 5 -6.68 5 -6 5 C-6 4.34 -6 3.68 -6 3 C-5.195625 2.87625 -4.39125 2.7525 -3.5625 2.625 C-2.716875 2.41875 -1.87125 2.2125 -1 2 C-0.67 1.34 -0.34 0.68 0 0 Z " fill="#5691CE" transform="translate(202,67)"/>
<path d="M0 0 C0.33 0.66 0.66 1.32 1 2 C0.01873444 4.00925805 -0.9849911 6.00757511 -2 8 C-2.77068925 10.31671045 -3.38503124 12.63473553 -4 15 C-4.99 15 -5.98 15 -7 15 C-6.67 13.02 -6.34 11.04 -6 9 C-5.34 9 -4.68 9 -4 9 C-3.81824219 8.15115234 -3.81824219 8.15115234 -3.6328125 7.28515625 C-3.46523437 6.55167969 -3.29765625 5.81820312 -3.125 5.0625 C-2.96257812 4.33160156 -2.80015625 3.60070312 -2.6328125 2.84765625 C-2 1 -2 1 0 0 Z " fill="#5390CF" transform="translate(86,172)"/>
<path d="M0 0 C0.99 0 1.98 0 3 0 C3.93423645 3.01031744 4.04449911 3.86650268 3 7 C-0.63 6.34 -4.26 5.68 -8 5 C-8 4.67 -8 4.34 -8 4 C-5.69 4 -3.38 4 -1 4 C-0.67 2.68 -0.34 1.36 0 0 Z " fill="#83B1D9" transform="translate(76,179)"/>
<path d="M0 0 C0 3 0 3 -1.8125 5.1875 C-4 7 -4 7 -7 7 C-7 5.02 -7 3.04 -7 1 C-4 0 -4 0 0 0 Z " fill="#4690D9" transform="translate(135,117)"/>
<path d="M0 0 C0.3125 2.8125 0.3125 2.8125 0 6 C-2.5 7.875 -2.5 7.875 -5 9 C-5 7.68 -5 6.36 -5 5 C-5.99 4.67 -6.98 4.34 -8 4 C-1.125 0 -1.125 0 0 0 Z " fill="#6096CB" transform="translate(196,105)"/>
<path d="M0 0 C-1.76755526 0.84026396 -3.53917263 1.67198722 -5.3125 2.5 C-6.79169922 3.19609375 -6.79169922 3.19609375 -8.30078125 3.90625 C-11 5 -11 5 -14 5 C-13.67 3.68 -13.34 2.36 -13 1 C-12.2575 0.855625 -11.515 0.71125 -10.75 0.5625 C-8.09581805 0.0636926 -8.09581805 0.0636926 -5.9375 -0.625 C-3.65547236 -1.06668277 -2.21456743 -0.6169481 0 0 Z " fill="#5794CD" transform="translate(168,87)"/>
<path d="M0 0 C-0.33 0.99 -0.66 1.98 -1 3 C-0.34 3.66 0.32 4.32 1 5 C-0.98 5.66 -2.96 6.32 -5 7 C-5.33 4.69 -5.66 2.38 -6 0 C-3.50907189 -1.24546405 -2.58919267 -0.7767578 0 0 Z " fill="#4990D9" transform="translate(94,129)"/>
<path d="M0 0 C1.32 0.33 2.64 0.66 4 1 C4 2.32 4 3.64 4 5 C3.01 5.33 2.02 5.66 1 6 C0.34 6.66 -0.32 7.32 -1 8 C-1.66 7.67 -2.32 7.34 -3 7 C-3 6.01 -3 5.02 -3 4 C-2.34 4 -1.68 4 -1 4 C-0.67 2.68 -0.34 1.36 0 0 Z " fill="#4891DD" transform="translate(167,104)"/>
<path d="M0 0 C1.65 0.33 3.3 0.66 5 1 C4.67 2.65 4.34 4.3 4 6 C2.35 5.67 0.7 5.34 -1 5 C-0.67 3.35 -0.34 1.7 0 0 Z " fill="#5E95C7" transform="translate(49,84)"/>
<path d="M0 0 C0.33 0.66 0.66 1.32 1 2 C3.52733235 2.65555119 3.52733235 2.65555119 6 3 C6 3.33 6 3.66 6 4 C-0.15234375 4.09765625 -0.15234375 4.09765625 -2 4 C-2.33 3.67 -2.66 3.34 -3 3 C-4.84891946 2.76636119 -6.70488031 2.58696365 -8.5625 2.4375 C-9.57441406 2.35371094 -10.58632812 2.26992188 -11.62890625 2.18359375 C-12.80259766 2.09271484 -12.80259766 2.09271484 -14 2 C-14 1.67 -14 1.34 -14 1 C-9.38 0.67 -4.76 0.34 0 0 Z " fill="#4E91D0" transform="translate(109,47)"/>
<path d="M0 0 C0.2475 0.61875 0.495 1.2375 0.75 1.875 C2.20628639 4.35068687 3.37812506 4.95125002 6 6 C0.58461538 9.07692308 0.58461538 9.07692308 -2.375 8.6875 C-2.91125 8.460625 -3.4475 8.23375 -4 8 C-4 7.34 -4 6.68 -4 6 C-2.68 6 -1.36 6 0 6 C-0.66 4.35 -1.32 2.7 -2 1 C-1.34 0.67 -0.68 0.34 0 0 Z " fill="#B2DAF5" transform="translate(52,170)"/>
<path d="M0 0 C0.33 0.99 0.66 1.98 1 3 C0.01 3.33 -0.98 3.66 -2 4 C-3.21869929 6.50447516 -3.21869929 6.50447516 -4 9 C-4.99 9 -5.98 9 -7 9 C-7 8.34 -7 7.68 -7 7 C-7.99 6.67 -8.98 6.34 -10 6 C-6.7 4.02 -3.4 2.04 0 0 Z " fill="#5292CE" transform="translate(194,151)"/>
<path d="M0 0 C2.97 0 5.94 0 9 0 C9 0.99 9 1.98 9 3 C9.66 3 10.32 3 11 3 C10.67 3.66 10.34 4.32 10 5 C9.34 5 8.68 5 8 5 C7.67 4.34 7.34 3.68 7 3 C6.236875 3.165 5.47375 3.33 4.6875 3.5 C2 4 2 4 -1 4 C-0.67 2.68 -0.34 1.36 0 0 Z " fill="#E4FAFE" transform="translate(43,57)"/>
<path d="M0 0 C0.66 0.33 1.32 0.66 2 1 C0.515 3.475 0.515 3.475 -1 6 C-5.571279 5.45144652 -9.67435795 4.58255197 -14 3 C-14 2.67 -14 2.34 -14 2 C-7.07 2.495 -7.07 2.495 0 3 C0 2.01 0 1.02 0 0 Z " fill="#DDF3FD" transform="translate(48,122)"/>
<path d="M0 0 C2.67868487 1.33934244 2.74954078 2.51692397 3.6875 5.3125 C3.95949219 6.09238281 4.23148437 6.87226563 4.51171875 7.67578125 C5.03839183 10.18274511 4.8178554 11.60132343 4 14 C1.8480563 10.77208445 1.79913557 9.71599191 2 6 C1.01 6 0.02 6 -1 6 C-0.67 4.02 -0.34 2.04 0 0 Z " fill="#5F98CE" transform="translate(74,139)"/>
<path d="M0 0 C2.0625 0.4375 2.0625 0.4375 4 1 C4 2.32 4 3.64 4 5 C2.68 5.33 1.36 5.66 0 6 C-0.38218767 4.34385343 -0.71395102 2.67542976 -1 1 C-0.67 0.67 -0.34 0.34 0 0 Z " fill="#88CBF2" transform="translate(58,192)"/>
<path d="M0 0 C2 2 2 2 2 6 C0.02 6.66 -1.96 7.32 -4 8 C-4 7.34 -4 6.68 -4 6 C-3.01 6 -2.02 6 -1 6 C-1 5.01 -1 4.02 -1 3 C-2.65 3.33 -4.3 3.66 -6 4 C-4.03617993 2.49440461 -2.21736634 1.10868317 0 0 Z " fill="#6598CC" transform="translate(174,116)"/>
<path d="M0 0 C1.32 0 2.64 0 4 0 C4 0.66 4 1.32 4 2 C4.66 2.33 5.32 2.66 6 3 C4.35 4.65 2.7 6.3 1 8 C0.67 5.36 0.34 2.72 0 0 Z " fill="#65A2DB" transform="translate(64,179)"/>
<path d="M0 0 C0.99 0.495 0.99 0.495 2 1 C3.67654729 0.72057545 5.34608154 0.39171753 7 0 C6.01 1.98 5.02 3.96 4 6 C2.68 6 1.36 6 0 6 C0 4.02 0 2.04 0 0 Z " fill="#579ADA" transform="translate(48,166)"/>
<path d="M0 0 C2.31 0.66 4.62 1.32 7 2 C7 2.66 7 3.32 7 4 C7.66 4 8.32 4 9 4 C8.67 4.99 8.34 5.98 8 7 C5.36 5.68 2.72 4.36 0 3 C0 2.01 0 1.02 0 0 Z " fill="#4D90D7" transform="translate(119,52)"/>
<path d="M0 0 C0.99 1.32 1.98 2.64 3 4 C1.01118929 6.98321607 -0.54764954 8.84921651 -4 10 C-6.25 9.625 -6.25 9.625 -8 9 C-6.865625 8.443125 -5.73125 7.88625 -4.5625 7.3125 C-1.44531169 5.5777124 -1.44531169 5.5777124 -0.0625 2.25 C-0.041875 1.5075 -0.02125 0.765 0 0 Z " fill="#DDF1FC" transform="translate(195,92)"/>
<path d="M0 0 C0 1.98 0 3.96 0 6 C-0.99 5.67 -1.98 5.34 -3 5 C-3.99 5.495 -3.99 5.495 -5 6 C-5.99 5.34 -6.98 4.68 -8 4 C-1.125 0 -1.125 0 0 0 Z " fill="#5091CD" transform="translate(178,129)"/>
<path d="M0 0 C-0.99 0.33 -1.98 0.66 -3 1 C-3 3.64 -3 6.28 -3 9 C-3.99 9 -4.98 9 -6 9 C-6 6.03 -6 3.06 -6 0 C-3.50907189 -1.24546405 -2.58919267 -0.7767578 0 0 Z " fill="#5E8FC2" transform="translate(114,123)"/>
<path d="M0 0 C0 2.64 0 5.28 0 8 C-0.33 6.68 -0.66 5.36 -1 4 C-3.97 4.66 -6.94 5.32 -10 6 C-2.8 0 -2.8 0 0 0 Z " fill="#5E93CA" transform="translate(195,89)"/>
<path d="M0 0 C0.33 0.99 0.66 1.98 1 3 C2.98 3 4.96 3 7 3 C7.33 2.01 7.66 1.02 8 0 C7.125 4.875 7.125 4.875 6 6 C4.33382885 6.04063832 2.66611905 6.042721 1 6 C0.67 4.02 0.34 2.04 0 0 Z " fill="#E3F8FD" transform="translate(129,84)"/>
<path d="M0 0 C0.99 1.32 1.98 2.64 3 4 C2.0625 5.9375 2.0625 5.9375 0 8 C-2.9858081 8.66174825 -5.94861869 8.87205948 -9 9 C-5.81237635 6.87491756 -3.73487777 6.4979837 0 6 C0 4.02 0 2.04 0 0 Z " fill="#EBF9FC" transform="translate(102,143)"/>
<path d="M0 0 C0.66 0.33 1.32 0.66 2 1 C2 1.66 2 2.32 2 3 C3.98 3 5.96 3 8 3 C5.53721199 5.46278801 3.29323018 5.99771255 0 7 C-0.38133299 5.0085944 -0.71325582 3.00720923 -1 1 C-0.67 0.67 -0.34 0.34 0 0 Z " fill="#649ACE" transform="translate(148,127)"/>
<path d="M0 0 C0.33 0 0.66 0 1 0 C1.66 3.63 2.32 7.26 3 11 C2.34 11 1.68 11 1 11 C1 10.34 1 9.68 1 9 C0.34 9 -0.32 9 -1 9 C-1.33 6.69 -1.66 4.38 -2 2 C-1.34 2 -0.68 2 0 2 C0 1.34 0 0.68 0 0 Z " fill="#6E9FD0" transform="translate(82,185)"/>
<path d="M0 0 C1.32 0 2.64 0 4 0 C4 1.65 4 3.3 4 5 C2.35 4.67 0.7 4.34 -1 4 C-0.67 2.68 -0.34 1.36 0 0 Z " fill="#D5F8FE" transform="translate(20,160)"/>
<path d="M0 0 C2.375 -0.125 2.375 -0.125 5 0 C5.66 0.66 6.32 1.32 7 2 C6.625 4.125 6.625 4.125 6 6 C6 5.01 6 4.02 6 3 C4.35 3.66 2.7 4.32 1 5 C0.67 3.35 0.34 1.7 0 0 Z " fill="#80BCEF" transform="translate(30,155)"/>
<path d="M0 0 C4.85437999 0.45157023 7.49174013 1.59197613 11 5 C11.33 5.99 11.66 6.98 12 8 C9.14940657 6.61964507 6.44119096 5.10703513 3.75 3.4375 C3.04359375 3.00308594 2.3371875 2.56867187 1.609375 2.12109375 C1.07828125 1.75113281 0.5471875 1.38117187 0 1 C0 0.67 0 0.34 0 0 Z " fill="#6299CB" transform="translate(126,38)"/>
<path d="M0 0 C0.66 0 1.32 0 2 0 C2 1.32 2 2.64 2 4 C2.99 4.33 3.98 4.66 5 5 C5 6.32 5 7.64 5 9 C3.68 8.67 2.36 8.34 1 8 C0.67 5.36 0.34 2.72 0 0 Z " fill="#5499DA" transform="translate(60,179)"/>
<path d="M0 0 C0 1.65 0 3.3 0 5 C-0.99 5.495 -0.99 5.495 -2 6 C-2.99 5.34 -3.98 4.68 -5 4 C-5 3.01 -5 2.02 -5 1 C-3 0 -3 0 0 0 Z " fill="#96BCE7" transform="translate(75,173)"/>
<path d="M0 0 C1.32 0 2.64 0 4 0 C3.67 1.65 3.34 3.3 3 5 C1.68 4.67 0.36 4.34 -1 4 C-0.67 2.68 -0.34 1.36 0 0 Z " fill="#DFF5FD" transform="translate(65,167)"/>
<path d="M0 0 C0.33 1.65 0.66 3.3 1 5 C-0.32 5.33 -1.64 5.66 -3 6 C-3.33 4.35 -3.66 2.7 -4 1 C-2 0 -2 0 0 0 Z " fill="#4590DD" transform="translate(99,127)"/>
<path d="M0 0 C0.33 0 0.66 0 1 0 C1.1953125 6.0546875 1.1953125 6.0546875 1 8 C0.34 8.66 -0.32 9.32 -1 10 C-3.625 9.625 -3.625 9.625 -6 9 C-3 7 -3 7 -1 6 C-0.34227572 2.97065509 -0.34227572 2.97065509 0 0 Z " fill="#DDF4FC" transform="translate(120,84)"/>
<path d="M0 0 C1.98 0 3.96 0 6 0 C2.63576723 2.96052484 -0.69159287 3.92289822 -5 5 C-5 4.34 -5 3.68 -5 3 C-3.35 2.67 -1.7 2.34 0 2 C0 1.34 0 0.68 0 0 Z " fill="#E9FDFE" transform="translate(207,207)"/>
<path d="M0 0 C0 0.66 0 1.32 0 2 C-6.625 5.125 -6.625 5.125 -10 4 C-3.375 0 -3.375 0 0 0 Z " fill="#6E97C1" transform="translate(181,142)"/>
<path d="M0 0 C-0.33 0.99 -0.66 1.98 -1 3 C-2.32 3 -3.64 3 -5 3 C-5 4.65 -5 6.3 -5 8 C-5.66 8 -6.32 8 -7 8 C-7 6.02 -7 4.04 -7 2 C-2.25 0 -2.25 0 0 0 Z " fill="#6C9FD0" transform="translate(116,139)"/>
<path d="M0 0 C0.33 0 0.66 0 1 0 C1.33 2.97 1.66 5.94 2 9 C-1 9 -1 9 -3 8 C-2.01 5.36 -1.02 2.72 0 0 Z " fill="#5B97D0" transform="translate(54,111)"/>
<path d="M0 0 C1.32 0.66 2.64 1.32 4 2 C4 3.98 4 5.96 4 8 C3.34 6.68 2.68 5.36 2 4 C1.01 4 0.02 4 -1 4 C-0.67 2.68 -0.34 1.36 0 0 Z " fill="#A7D8F7" transform="translate(44,162)"/>
<path d="M0 0 C0 1.65 0 3.3 0 5 C-1.65 5 -3.3 5 -5 5 C-4.01 4.67 -3.02 4.34 -2 4 C-2 3.34 -2 2.68 -2 2 C-3.65 2 -5.3 2 -7 2 C-4 0 -4 0 0 0 Z " fill="#6A9ACD" transform="translate(123,152)"/>
<path d="M0 0 C0.33 0.66 0.66 1.32 1 2 C0.34 2 -0.32 2 -1 2 C-1 2.66 -1 3.32 -1 4 C-0.01 4.33 0.98 4.66 2 5 C1.34 5.66 0.68 6.32 0 7 C-0.99 7 -1.98 7 -3 7 C-3.1875 4.625 -3.1875 4.625 -3 2 C-2.01 1.34 -1.02 0.68 0 0 Z " fill="#5C96CD" transform="translate(186,110)"/>
<path d="M0 0 C0.66 0.33 1.32 0.66 2 1 C2.4140625 3.06640625 2.4140625 3.06640625 2.625 5.5625 C2.69976562 6.38878906 2.77453125 7.21507813 2.8515625 8.06640625 C2.92503906 9.02353516 2.92503906 9.02353516 3 10 C0.50939295 7.50939295 -0.08717042 5.37044767 -1 2 C-0.67 1.34 -0.34 0.68 0 0 Z " fill="#6A97C4" transform="translate(57,77)"/>
<path d="M0 0 C1.98 0.99 3.96 1.98 6 3 C5.67 3.66 5.34 4.32 5 5 C3.35 5 1.7 5 0 5 C0 3.35 0 1.7 0 0 Z " fill="#5193D3" transform="translate(85,200)"/>
<path d="M0 0 C3.36179774 1.44077046 5.59156268 3.24750021 8 6 C8 6.66 8 7.32 8 8 C4.27382578 6.75794193 2.60708543 4.8889325 0 2 C0 1.34 0 0.68 0 0 Z " fill="#E6F9FE" transform="translate(194,167)"/>
<path d="M0 0 C5.53846154 -0.36923077 5.53846154 -0.36923077 7.875 1.5 C8.24625 1.995 8.6175 2.49 9 3 C8.67 3.99 8.34 4.98 8 6 C7.236875 5.38125 6.47375 4.7625 5.6875 4.125 C3.00374191 1.94402948 3.00374191 1.94402948 0 0 Z " fill="#6A9CCE" transform="translate(191,165)"/>
<path d="M0 0 C1.32 0 2.64 0 4 0 C4 1.32 4 2.64 4 4 C2.35 3.67 0.7 3.34 -1 3 C-0.67 2.01 -0.34 1.02 0 0 Z " fill="#DFF7FE" transform="translate(80,198)"/>
<path d="M0 0 C3 3.625 3 3.625 3 7 C1.35 7 -0.3 7 -2 7 C-1.34 4.69 -0.68 2.38 0 0 Z " fill="#4F90CD" transform="translate(56,161)"/>
<path d="M0 0 C0.66 0 1.32 0 2 0 C2.33 2.97 2.66 5.94 3 9 C1.68 9 0.36 9 -1 9 C-0.34 8.67 0.32 8.34 1 8 C0.67 5.36 0.34 2.72 0 0 Z " fill="#709ECE" transform="translate(117,120)"/>
<path d="M0 0 C0.66 0 1.32 0 2 0 C2.33 2.31 2.66 4.62 3 7 C2.01 7.33 1.02 7.66 0 8 C0 5.36 0 2.72 0 0 Z " fill="#6297CB" transform="translate(153,109)"/>
<path d="M0 0 C0.66 1.32 1.32 2.64 2 4 C0.35 6.31 -1.3 8.62 -3 11 C-3.33 10.34 -3.66 9.68 -4 9 C-3.22265625 6.8359375 -3.22265625 6.8359375 -2.0625 4.375 C-1.68222656 3.55773437 -1.30195312 2.74046875 -0.91015625 1.8984375 C-0.60980469 1.27195312 -0.30945312 0.64546875 0 0 Z " fill="#5C95CE" transform="translate(59,100)"/>
<path d="M0 0 C1.5 1.3125 1.5 1.3125 3 3 C3 3.99 3 4.98 3 6 C1.68 6 0.36 6 -1 6 C-1.042721 4.33388095 -1.04063832 2.66617115 -1 1 C-0.67 0.67 -0.34 0.34 0 0 Z " fill="#4592DB" transform="translate(121,74)"/>
<path d="M0 0 C1.65 0 3.3 0 5 0 C5.33 0.99 5.66 1.98 6 3 C4.02 3 2.04 3 0 3 C0 2.01 0 1.02 0 0 Z " fill="#D7F5FE" transform="translate(67,200)"/>
<path d="M0 0 C0.99 0.66 1.98 1.32 3 2 C0.75 4.0625 0.75 4.0625 -2 6 C-4.3125 5.75 -4.3125 5.75 -6 5 C-5.01 5 -4.02 5 -3 5 C-2.67 4.01 -2.34 3.02 -2 2 C-1.34 1.34 -0.68 0.68 0 0 Z " fill="#5DA5E6" transform="translate(206,187)"/>
<path d="" fill="#0000FF" transform="translate(0,0)"/>
<path d="" fill="#0000FF" transform="translate(0,0)"/>
<path d="" fill="#0000FF" transform="translate(0,0)"/>
<path d="" fill="#0000FF" transform="translate(0,0)"/>
<path d="" fill="#0000FF" transform="translate(0,0)"/>
</svg>
